NotoSerifBengali_new.glyphspackage
{
category = Punctuation;
glyphname = quotedbl;
layers = (
{
layerId = "94EB6DF8-7434-4BE0-9F23-77BCD575F5B8";
shapes = (
{
closed = 1;
nodes = (
(225,529,l),
(235,714,l),
(193,714,l),
(205,529,l)
);
},
{
closed = 1;
nodes = (
(77,529,l),
(87,714,l),
(45,714,l),
(57,529,l)
);
}
);
vertWidth = 0;
width = 280;
},
{
layerId = "B2542900-2B87-4688-8902-A06B6D3D93DD";
shapes = (
{
closed = 1;
nodes = (
(311,484,l),
(339,714,l),
(239,714,l),
(268,484,l)
);
},
{
closed = 1;
nodes = (
(127,484,l),
(155,714,l),
(56,714,l),
(83,484,l)
);
}
);
vertWidth = 0;
width = 395;
},
{
layerId = "18A8C34B-6260-4854-BBF8-229863F38B25";
shapes = (
{
closed = 1;
nodes = (
(409,438,l),
(444,714,l),
(287,714,l),
(342,438,l)
);
},
{
closed = 1;
nodes = (
(180,438,l),
(226,714,l),
(67,714,l),
(113,438,l)
);
}
);
vertWidth = 0;
width = 511;
},
{
layerId = "33F2F8B2-CCE7-4937-A852-9C044B0330C5";
shapes = (
{
closed = 1;
nodes = (
(187,499,l),
(199,714,l),
(156,714,l),
(168,499,l)
);
},
{
closed = 1;
nodes = (
(67,499,l),
(79,714,l),
(36,714,l),
(48,499,l)
);
}
);
vertWidth = 0;
width = 235;
},
{
layerId = "5278E13D-D735-4789-ABCD-F52B0BBC306E";
shapes = (
{
closed = 1;
nodes = (
(269,483,l),
(296,714,l),
(202,714,l),
(229,483,l)
);
},
{
closed = 1;
nodes = (
(115,483,l),
(142,714,l),
(48,714,l),
(75,483,l)
);
}
);
vertWidth = 0;
width = 344;
},
{
layerId = "03D26766-37BE-4C80-9191-ECBB7A84F3C2";
shapes = (
{
closed = 1;
nodes = (
(377,429,l),
(424,714,l),
(263,714,l),
(310,429,l)
);
},
{
closed = 1;
nodes = (
(176,429,l),
(223,714,l),
(62,714,l),
(109,429,l)
);
}
);
vertWidth = 0;
width = 486;
}
);
metricLeft = quotesingle;
metricRight = quotesingle;
script = "";
subCategory = Quote;
unicode = 34;
}
{
category = Punctuation;
glyphname = numbersign;
layers = (
{
layerId = "94EB6DF8-7434-4BE0-9F23-77BCD575F5B8";
shapes = (
{
closed = 1;
nodes = (
(121,0,l),
(162,219,l),
(340,219,l),
(299,0,l),
(327,0,l),
(368,219,l),
(502,219,l),
(502,244,l),
(373,244,l),
(416,476,l),
(534,476,l),
(534,501,l),
(421,501,l),
(461,714,l),
(433,714,l),
(393,501,l),
(215,501,l),
(255,714,l),
(227,714,l),
(187,501,l),
(57,501,l),
(57,476,l),
(182,476,l),
(139,244,l),
(25,244,l),
(25,219,l),
(134,219,l),
(93,0,l)
);
},
{
closed = 1;
nodes = (
(210,476,l),
(388,476,l),
(345,244,l),
(167,244,l)
);
}
);
vertWidth = 0;
width = 559;
},
{
layerId = "B2542900-2B87-4688-8902-A06B6D3D93DD";
shapes = (
{
closed = 1;
nodes = (
(137,0,l),
(175,205,l),
(318,205,l),
(279,0,l),
(336,0,l),
(375,205,l),
(501,205,l),
(501,260,l),
(386,260,l),
(423,460,l),
(534,460,l),
(534,516,l),
(434,516,l),
(472,714,l),
(415,714,l),
(377,516,l),
(234,516,l),
(271,714,l),
(214,714,l),
(177,516,l),
(57,516,l),
(57,460,l),
(167,460,l),
(128,260,l),
(24,260,l),
(24,205,l),
(118,205,l),
(80,0,l)
);
},
{
closed = 1;
nodes = (
(224,460,l),
(367,460,l),
(330,260,l),
(187,260,l)
);
}
);
vertWidth = 0;
width = 559;
},
{
layerId = "18A8C34B-6260-4854-BBF8-229863F38B25";
shapes = (
{
closed = 1;
nodes = (
(156,0,l),
(194,200,l),
(302,200,l),
(265,0,l),
(337,0,l),
(374,200,l),
(499,200,l),
(499,269,l),
(388,269,l),
(422,450,l),
(531,450,l),
(531,520,l),
(435,520,l),
(472,714,l),
(400,714,l),
(363,520,l),
(255,520,l),
(291,714,l),
(218,714,l),
(184,520,l),
(60,520,l),
(60,450,l),
(170,450,l),
(135,269,l),
(28,269,l),
(28,200,l),
(123,200,l),
(84,0,l)
);
},
{
closed = 1;
nodes = (
(242,450,l),
(351,450,l),
(317,269,l),
(207,269,l)
);
}
);
vertWidth = 0;
width = 559;
},
{
layerId = "33F2F8B2-CCE7-4937-A852-9C044B0330C5";
shapes = (
{
closed = 1;
nodes = (
(68,0,l),
(109,219,l),
(255,219,l),
(214,0,l),
(242,0,l),
(283,219,l),
(389,219,l),
(389,244,l),
(288,244,l),
(331,476,l),
(421,476,l),
(421,501,l),
(336,501,l),
(376,714,l),
(348,714,l),
(308,501,l),
(162,501,l),
(202,714,l),
(174,714,l),
(134,501,l),
(33,501,l),
(33,476,l),
(129,476,l),
(86,244,l),
(1,244,l),
(1,219,l),
(81,219,l),
(40,0,l)
);
},
{
closed = 1;
nodes = (
(157,476,l),
(303,476,l),
(260,244,l),
(114,244,l)
);
}
);
vertWidth = 0;
width = 425;
},
{
layerId = "5278E13D-D735-4789-ABCD-F52B0BBC306E";
shapes = (
{
closed = 1;
nodes = (
(99,0,l),
(138,208,l),
(242,208,l),
(203,0,l),
(258,0,l),
(297,208,l),
(403,208,l),
(403,259,l),
(307,259,l),
(345,460,l),
(435,460,l),
(435,513,l),
(355,513,l),
(393,714,l),
(337,714,l),
(300,513,l),
(196,513,l),
(234,714,l),
(178,714,l),
(141,513,l),
(39,513,l),
(39,460,l),
(130,460,l),
(93,259,l),
(7,259,l),
(7,208,l),
(83,208,l),
(44,0,l)
);
},
{
closed = 1;
nodes = (
(186,460,l),
(290,460,l),
(252,259,l),
(148,259,l)
);
}
);
vertWidth = 0;
width = 443;
},
{
layerId = "03D26766-37BE-4C80-9191-ECBB7A84F3C2";
shapes = (
{
closed = 1;
nodes = (
(131,0,l),
(169,198,l),
(237,198,l),
(201,0,l),
(280,0,l),
(316,198,l),
(421,198,l),
(421,274,l),
(332,274,l),
(364,444,l),
(453,444,l),
(453,522,l),
(378,522,l),
(415,714,l),
(336,714,l),
(299,522,l),
(231,522,l),
(266,714,l),
(186,714,l),
(152,522,l),
(46,522,l),
(46,444,l),
(137,444,l),
(104,274,l),
(14,274,l),
(14,198,l),
(90,198,l),
(52,0,l)
);
},
{
closed = 1;
nodes = (
(217,444,l),
(286,444,l),
(253,274,l),
(183,274,l)
);
}
);
vertWidth = 0;
width = 466;
}
);
script = "";
subCategory = Other;
unicode = 35;
}
{
category = Symbol;
glyphname = percent;
layers = (
{
layerId = "94EB6DF8-7434-4BE0-9F23-77BCD575F5B8";
shapes = (
{
closed = 1;
nodes = (
(261,0,l),
(651,714,l),
(619,714,l),
(229,0,l)
);
},
{
closed = 1;
nodes = (
(308,280,o),
(347,371,o),
(347,503,cs),
(347,639,o),
(301,724,o),
(204,724,cs),
(102,724,o),
(59,637,o),
(59,503,cs),
(59,365,o),
(101,280,o),
(203,280,cs)
);
},
{
closed = 1;
nodes = (
(122,305,o),
(87,376,o),
(87,503,cs),
(87,612,o),
(117,699,o),
(202,699,cs),
(282,699,o),
(319,632,o),
(319,503,cs),
(319,389,o),
(289,305,o),
(201,305,cs)
);
},
{
closed = 1;
nodes = (
(786,-10,o),
(825,81,o),
(825,213,cs),
(825,349,o),
(779,434,o),
(682,434,cs),
(580,434,o),
(537,347,o),
(537,213,cs),
(537,75,o),
(579,-10,o),
(681,-10,cs)
);
},
{
closed = 1;
nodes = (
(600,15,o),
(565,86,o),
(565,213,cs),
(565,322,o),
(595,409,o),
(680,409,cs),
(760,409,o),
(797,342,o),
(797,213,cs),
(797,99,o),
(767,15,o),
(679,15,cs)
);
}
);
vertWidth = 0;
width = 884;
},
{
layerId = "B2542900-2B87-4688-8902-A06B6D3D93DD";
shapes = (
{
closed = 1;
nodes = (
(296,0,l),
(656,714,l),
(594,714,l),
(234,0,l)
);
},
{
closed = 1;
nodes = (
(317,280,o),
(370,369,o),
(370,503,c),
(370,637,o),
(316,724,o),
(209,724,cs),
(95,724,o),
(46,637,o),
(46,503,cs),
(46,369,o),
(94,280,o),
(208,280,cs)
);
},
{
closed = 1;
nodes = (
(151,319,o),
(129,387,o),
(129,503,c),
(129,616,o),
(150,684,o),
(208,684,cs),
(266,684,o),
(286,618,o),
(286,503,cs),
(286,388,o),
(266,319,o),
(208,319,cs)
);
},
{
closed = 1;
nodes = (
(795,-10,o),
(848,79,o),
(848,213,cs),
(848,347,o),
(794,434,o),
(687,434,cs),
(572,434,o),
(524,347,o),
(524,213,cs),
(524,79,o),
(572,-10,o),
(686,-10,cs)
);
},
{
closed = 1;
nodes = (
(629,29,o),
(607,97,o),
(607,213,cs),
(607,326,o),
(628,394,o),
(687,394,cs),
(744,394,o),
(763,328,o),
(763,213,cs),
(763,98,o),
(744,29,o),
(686,29,cs)
);
}
);
vertWidth = 0;
width = 895;
},
{
layerId = "18A8C34B-6260-4854-BBF8-229863F38B25";
shapes = (
{
closed = 1;
nodes = (
(319,0,l),
(663,714,l),
(585,714,l),
(240,0,l)
);
},
{
closed = 1;
nodes = (
(336,280,o),
(396,369,o),
(396,503,c),
(396,637,o),
(336,724,o),
(215,724,cs),
(87,724,o),
(34,637,o),
(34,503,cs),
(34,369,o),
(87,280,o),
(214,280,cs)
);
},
{
closed = 1;
nodes = (
(166,331,o),
(147,394,o),
(147,503,c),
(147,610,o),
(166,672,o),
(215,672,cs),
(264,672,o),
(280,610,o),
(280,503,cs),
(280,394,o),
(264,331,o),
(214,331,cs)
);
},
{
closed = 1;
nodes = (
(814,-10,o),
(874,79,o),
(874,213,cs),
(874,347,o),
(814,434,o),
(693,434,cs),
(565,434,o),
(512,347,o),
(512,213,cs),
(512,79,o),
(565,-10,o),
(692,-10,cs)
);
},
{
closed = 1;
nodes = (
(644,41,o),
(625,104,o),
(625,213,cs),
(625,320,o),
(644,382,o),
(693,382,cs),
(742,382,o),
(758,320,o),
(758,213,cs),
(758,104,o),
(742,41,o),
(692,41,cs)
);
}
);
vertWidth = 0;
width = 906;
},
{
layerId = "33F2F8B2-CCE7-4937-A852-9C044B0330C5";
shapes = (
{
closed = 1;
nodes = (
(204,0,l),
(494,714,l),
(464,714,l),
(174,0,l)
);
},
{
closed = 1;
nodes = (
(233,280,o),
(269,359,o),
(269,503,cs),
(269,649,o),
(234,724,o),
(156,724,cs),
(78,724,o),
(43,647,o),
(43,503,cs),
(43,354,o),
(79,280,o),
(155,280,cs)
);
},
{
closed = 1;
nodes = (
(91,305,o),
(71,376,o),
(71,503,cs),
(71,629,o),
(91,699,o),
(155,699,cs),
(222,699,o),
(241,629,o),
(241,503,cs),
(241,376,o),
(222,305,o),
(155,305,cs)
);
},
{
closed = 1;
nodes = (
(594,-10,o),
(630,69,o),
(630,213,cs),
(630,359,o),
(595,434,o),
(517,434,cs),
(439,434,o),
(404,357,o),
(404,213,cs),
(404,64,o),
(440,-10,o),
(516,-10,cs)
);
},
{
closed = 1;
nodes = (
(452,15,o),
(432,86,o),
(432,213,cs),
(432,339,o),
(452,409,o),
(516,409,cs),
(583,409,o),
(602,339,o),
(602,213,cs),
(602,86,o),
(583,15,o),
(516,15,cs)
);
}
);
vertWidth = 0;
width = 672;
},
{
layerId = "5278E13D-D735-4789-ABCD-F52B0BBC306E";
shapes = (
{
closed = 1;
nodes = (
(242,0,l),
(521,714,l),
(467,714,l),
(187,0,l)
);
},
{
closed = 1;
nodes = (
(256,280,o),
(300,369,o),
(300,503,cs),
(300,637,o),
(256,724,o),
(167,724,cs),
(72,724,o),
(33,637,o),
(33,503,cs),
(33,369,o),
(72,280,o),
(166,280,cs)
);
},
{
closed = 1;
nodes = (
(118,316,o),
(102,383,o),
(102,503,cs),
(102,621,o),
(118,687,o),
(167,687,cs),
(215,687,o),
(230,621,o),
(230,503,cs),
(230,383,o),
(215,316,o),
(166,316,cs)
);
},
{
closed = 1;
nodes = (
(634,-10,o),
(678,79,o),
(678,213,cs),
(678,347,o),
(634,434,o),
(545,434,cs),
(451,434,o),
(411,347,o),
(411,213,cs),
(411,79,o),
(451,-10,o),
(544,-10,cs)
);
},
{
closed = 1;
nodes = (
(496,26,o),
(480,93,o),
(480,213,cs),
(480,331,o),
(496,397,o),
(544,397,cs),
(593,397,o),
(608,331,o),
(608,213,cs),
(608,93,o),
(593,26,o),
(544,26,cs)
);
}
);
vertWidth = 0;
width = 711;
},
{
layerId = "03D26766-37BE-4C80-9191-ECBB7A84F3C2";
shapes = (
{
closed = 1;
nodes = (
(276,0,l),
(555,714,l),
(483,714,l),
(204,0,l)
);
},
{
closed = 1;
nodes = (
(290,280,o),
(342,369,o),
(342,503,cs),
(342,637,o),
(290,724,o),
(182,724,cs),
(68,724,o),
(21,637,o),
(21,503,cs),
(21,369,o),
(68,280,o),
(181,280,cs)
);
},
{
closed = 1;
nodes = (
(144,332,o),
(130,394,o),
(130,503,cs),
(130,610,o),
(144,671,o),
(182,671,cs),
(220,671,o),
(232,610,o),
(232,503,cs),
(232,394,o),
(220,332,o),
(182,332,cs)
);
},
{
closed = 1;
nodes = (
(688,-10,o),
(740,79,o),
(740,213,cs),
(740,347,o),
(688,434,o),
(581,434,cs),
(467,434,o),
(420,347,o),
(420,213,cs),
(420,79,o),
(467,-10,o),
(580,-10,cs)
);
},
{
closed = 1;
nodes = (
(543,42,o),
(529,104,o),
(529,213,cs),
(529,320,o),
(543,381,o),
(581,381,cs),
(618,381,o),
(631,320,o),
(631,213,cs),
(631,104,o),
(618,42,o),
(580,42,cs)
);
}
);
vertWidth = 0;
width = 761;
}
);
script = "";
subCategory = Math;
unicode = 37;
}
{
category = Punctuation;
glyphname = parenleft;
layers = (
{
layerId = "94EB6DF8-7434-4BE0-9F23-77BCD575F5B8";
shapes = (
{
closed = 1;
nodes = (
(228,-90,l),
(78,-21,o),
(67,156,o),
(67,315,cs),
(67,474,o),
(75,659,o),
(228,719,c),
(228,744,l),
(94,693,o),
(39,587,o),
(39,315,cs),
(39,44,o),
(94,-61,o),
(228,-114,c)
);
}
);
vertWidth = 0;
width = 306;
},
{
layerId = "B2542900-2B87-4688-8902-A06B6D3D93DD";
shapes = (
{
closed = 1;
nodes = (
(284,-83,l),
(146,-1,o),
(130,158,o),
(130,317,cs),
(130,476,o),
(146,635,o),
(284,715,c),
(284,758,l),
(105,688,o),
(34,560,o),
(34,317,cs),
(34,73,o),
(105,-56,o),
(284,-126,c)
);
}
);
vertWidth = 0;
width = 372;
},
{
layerId = "18A8C34B-6260-4854-BBF8-229863F38B25";
shapes = (
{
closed = 1;
nodes = (
(357,-75,l),
(233,7,o),
(207,159,o),
(207,318,cs),
(207,476,o),
(233,626,o),
(357,709,c),
(357,772,l),
(132,683,o),
(44,532,o),
(44,318,cs),
(44,103,o),
(132,-50,o),
(357,-139,c)
);
}
);
vertWidth = 0;
width = 455;
},
{
layerId = "33F2F8B2-CCE7-4937-A852-9C044B0330C5";
shapes = (
{
closed = 1;
nodes = (
(197,-87,l),
(128,-53,o),
(71,96,o),
(71,315,cs),
(71,534,o),
(128,683,o),
(197,717,c),
(197,745,l),
(107,702,o),
(43,565,o),
(43,315,cs),
(43,62,o),
(107,-72,o),
(197,-115,c)
);
}
);
vertWidth = 0;
width = 221;
},
{
layerId = "5278E13D-D735-4789-ABCD-F52B0BBC306E";
shapes = (
{
closed = 1;
nodes = (
(260,-83,l),
(154,0,o),
(140,158,o),
(140,317,cs),
(140,476,o),
(154,632,o),
(260,716,c),
(260,758,l),
(106,688,o),
(45,560,o),
(45,317,cs),
(45,73,o),
(106,-55,o),
(260,-127,c)
);
}
);
vertWidth = 0;
width = 284;
},
{
layerId = "03D26766-37BE-4C80-9191-ECBB7A84F3C2";
shapes = (
{
closed = 1;
nodes = (
(341,-73,l),
(245,8,o),
(217,159,o),
(217,318,cs),
(217,476,o),
(245,625,o),
(341,708,c),
(341,775,l),
(130,682,o),
(47,526,o),
(47,318,cs),
(47,109,o),
(130,-48,o),
(341,-142,c)
);
}
);
vertWidth = 0;
width = 367;
}
);
script = "";
subCategory = Parenthesis;
unicode = 40;
}
{
category = Punctuation;
glyphname = parenright;
layers = (
{
layerId = "94EB6DF8-7434-4BE0-9F23-77BCD575F5B8";
shapes = (
{
closed = 1;
nodes = (
(271,-61,o),
(326,44,o),
(326,315,cs),
(326,587,o),
(271,693,o),
(137,744,c),
(137,719,l),
(290,659,o),
(297,474,o),
(297,315,cs),
(297,156,o),
(287,-21,o),
(137,-90,c),
(137,-114,l)
);
}
);
vertWidth = 0;
width = 365;
},
{
layerId = "B2542900-2B87-4688-8902-A06B6D3D93DD";
shapes = (
{
closed = 1;
nodes = (
(296,-56,o),
(367,73,o),
(367,317,cs),
(367,560,o),
(296,688,o),
(117,758,c),
(117,715,l),
(255,635,o),
(271,476,o),
(271,317,cs),
(271,158,o),
(255,-1,o),
(117,-83,c),
(117,-126,l)
);
}
);
vertWidth = 0;
width = 401;
},
{
layerId = "18A8C34B-6260-4854-BBF8-229863F38B25";
shapes = (
{
closed = 1;
nodes = (
(352,-50,o),
(440,103,o),
(440,318,cs),
(440,532,o),
(352,683,o),
(127,772,c),
(127,709,l),
(250,626,o),
(277,476,o),
(277,318,cs),
(277,159,o),
(250,7,o),
(127,-75,c),
(127,-139,l)
);
}
);
vertWidth = 0;
width = 484;
},
{
layerId = "33F2F8B2-CCE7-4937-A852-9C044B0330C5";
shapes = (
{
closed = 1;
nodes = (
(113,-72,o),
(177,62,o),
(177,315,cs),
(177,565,o),
(113,702,o),
(23,745,c),
(23,717,l),
(92,683,o),
(149,534,o),
(149,315,cs),
(149,96,o),
(92,-53,o),
(23,-87,c),
(23,-115,l)
);
}
);
vertWidth = 0;
width = 221;
},
{
layerId = "5278E13D-D735-4789-ABCD-F52B0BBC306E";
shapes = (
{
closed = 1;
nodes = (
(179,-55,o),
(240,73,o),
(240,317,cs),
(240,560,o),
(179,688,o),
(25,758,c),
(25,716,l),
(131,632,o),
(146,476,o),
(146,317,cs),
(146,158,o),
(131,0,o),
(25,-83,c),
(25,-127,l)
);
}
);
vertWidth = 0;
width = 284;
},
{
layerId = "03D26766-37BE-4C80-9191-ECBB7A84F3C2";
shapes = (
{
closed = 1;
nodes = (
(237,-48,o),
(320,109,o),
(320,318,cs),
(320,526,o),
(237,682,o),
(26,775,c),
(26,708,l),
(121,625,o),
(150,476,o),
(150,318,cs),
(150,159,o),
(121,8,o),
(26,-73,c),
(26,-142,l)
);
}
);
vertWidth = 0;
width = 367;
}
);
script = "";
subCategory = Parenthesis;
unicode = 41;
}
{
category = Symbol;
glyphname = plus;
layers = (
{
layerId = "94EB6DF8-7434-4BE0-9F23-77BCD575F5B8";
shapes = (
{
closed = 1;
nodes = (
(293,143,l),
(293,343,l),
(494,343,l),
(494,371,l),
(293,371,l),
(293,572,l),
(265,572,l),
(265,371,l),
(65,371,l),
(65,343,l),
(265,343,l),
(265,143,l)
);
}
);
vertWidth = 0;
width = 559;
},
{
layerId = "B2542900-2B87-4688-8902-A06B6D3D93DD";
shapes = (
{
closed = 1;
nodes = (
(307,143,l),
(307,330,l),
(494,330,l),
(494,386,l),
(307,386,l),
(307,572,l),
(250,572,l),
(250,386,l),
(64,386,l),
(64,330,l),
(250,330,l),
(250,143,l)
);
}
);
vertWidth = 0;
width = 559;
},
{
layerId = "18A8C34B-6260-4854-BBF8-229863F38B25";
shapes = (
{
closed = 1;
nodes = (
(315,143,l),
(315,322,l),
(494,322,l),
(494,393,l),
(315,393,l),
(315,572,l),
(243,572,l),
(243,393,l),
(65,393,l),
(65,322,l),
(243,322,l),
(243,143,l)
);
}
);
vertWidth = 0;
width = 559;
},
{
layerId = "33F2F8B2-CCE7-4937-A852-9C044B0330C5";
shapes = (
{
closed = 1;
nodes = (
(228,143,l),
(228,344,l),
(375,344,l),
(375,372,l),
(228,372,l),
(228,572,l),
(198,572,l),
(198,372,l),
(50,372,l),
(50,344,l),
(198,344,l),
(198,143,l)
);
}
);
vertWidth = 0;
width = 425;
},
{
layerId = "5278E13D-D735-4789-ABCD-F52B0BBC306E";
shapes = (
{
closed = 1;
nodes = (
(241,143,l),
(241,329,l),
(382,329,l),
(382,386,l),
(241,386,l),
(241,572,l),
(182,572,l),
(182,386,l),
(43,386,l),
(43,329,l),
(182,329,l),
(182,143,l)
);
}
);
vertWidth = 0;
width = 425;
},
{
layerId = "03D26766-37BE-4C80-9191-ECBB7A84F3C2";
shapes = (
{
closed = 1;
nodes = (
(251,143,l),
(251,321,l),
(391,321,l),
(391,394,l),
(251,394,l),
(251,572,l),
(174,572,l),
(174,394,l),
(34,394,l),
(34,321,l),
(174,321,l),
(174,143,l)
);
}
);
vertWidth = 0;
width = 425;
}
);
script = "";
subCategory = Math;
unicode = 43;
}
{
category = Punctuation;
glyphname = comma;
layers = (
{
layerId = "94EB6DF8-7434-4BE0-9F23-77BCD575F5B8";
shapes = (
{
closed = 1;
nodes = (
(159,-127,o),
(190,-67,o),
(190,0,cs),
(190,52,o),
(167,73,o),
(139,73,cs),
(120,73,o),
(112,60,o),
(112,42,cs),
(112,17,o),
(159,4,o),
(159,-30,cs),
(159,-61,o),
(137,-115,o),
(78,-132,c),
(78,-154,l)
);
}
);
vertWidth = 0;
width = 259;
},
{
layerId = "B2542900-2B87-4688-8902-A06B6D3D93DD";
shapes = (
{
closed = 1;
nodes = (
(203,-120,o),
(247,-45,o),
(247,38,cs),
(247,94,o),
(212,124,o),
(173,124,cs),
(137,124,o),
(111,103,o),
(111,67,cs),
(111,10,o),
(182,17,o),
(182,-23,cs),
(182,-61,o),
(153,-93,o),
(88,-114,c),
(88,-154,l)
);
}
);
vertWidth = 0;
width = 315;
},
{
layerId = "18A8C34B-6260-4854-BBF8-229863F38B25";
shapes = (
{
closed = 1;
nodes = (
(238,-119,o),
(287,-43,o),
(287,42,cs),
(287,111,o),
(255,153,o),
(198,153,cs),
(157,153,o),
(122,129,o),
(122,83,cs),
(122,3,o),
(195,14,o),
(195,-24,cs),
(195,-61,o),
(166,-81,o),
(107,-102,c),
(107,-154,l)
);
}
);
vertWidth = 0;
width = 355;
},
{
layerId = "33F2F8B2-CCE7-4937-A852-9C044B0330C5";
shapes = (
{
closed = 1;
nodes = (
(91,-124,o),
(118,-58,o),
(118,0,cs),
(118,56,o),
(94,73,o),
(72,73,cs),
(55,73,o),
(42,62,o),
(42,47,cs),
(42,16,o),
(86,11,o),
(86,-26,cs),
(86,-61,o),
(67,-110,o),
(20,-128,c),
(20,-154,l)
);
}
);
vertWidth = 0;
width = 157;
},
{
layerId = "5278E13D-D735-4789-ABCD-F52B0BBC306E";
shapes = (
{
closed = 1;
nodes = (
(122,-122,o),
(156,-52,o),
(156,26,cs),
(156,84,o),
(132,117,o),
(96,117,cs),
(69,117,o),
(48,97,o),
(48,64,cs),
(48,10,o),
(99,11,o),
(99,-26,cs),
(99,-61,o),
(77,-97,o),
(32,-116,c),
(32,-154,l)
);
}
);
vertWidth = 0;
width = 207;
},
{
layerId = "03D26766-37BE-4C80-9191-ECBB7A84F3C2";
shapes = (
{
closed = 1;
nodes = (
(162,-120,o),
(205,-45,o),
(205,38,cs),
(205,110,o),
(180,156,o),
(125,156,cs),
(87,156,o),
(55,131,o),
(55,86,cs),
(55,2,o),
(116,11,o),
(116,-25,cs),
(116,-61,o),
(91,-80,o),
(47,-100,c),
(47,-154,l)
);
}
);
vertWidth = 0;
width = 273;
}
);
script = "";
subCategory = Other;
unicode = 44;
}
{
category = Punctuation;
glyphname = hyphen;
layers = (
{
layerId = "94EB6DF8-7434-4BE0-9F23-77BCD575F5B8";
shapes = (
{
closed = 1;
nodes = (
(285,259,l),
(285,287,l),
(25,287,l),
(25,259,l)
);
}
);
vertWidth = 0;
width = 310;
},
{
layerId = "B2542900-2B87-4688-8902-A06B6D3D93DD";
shapes = (
{
closed = 1;
nodes = (
(285,237,l),
(285,308,l),
(24,308,l),
(24,237,l)
);
}
);
vertWidth = 0;
width = 310;
},
{
layerId = "18A8C34B-6260-4854-BBF8-229863F38B25";
shapes = (
{
closed = 1;
nodes = (
(285,219,l),
(285,326,l),
(25,326,l),
(25,219,l)
);
}
);
vertWidth = 0;
width = 310;
},
{
layerId = "33F2F8B2-CCE7-4937-A852-9C044B0330C5";
shapes = (
{
closed = 1;
nodes = (
(216,259,l),
(216,287,l),
(20,287,l),
(20,259,l)
);
}
);
vertWidth = 0;
width = 236;
},
{
layerId = "5278E13D-D735-4789-ABCD-F52B0BBC306E";
shapes = (
{
closed = 1;
nodes = (
(226,236,l),
(226,309,l),
(20,309,l),
(20,236,l)
);
}
);
vertWidth = 0;
width = 246;
},
{
layerId = "03D26766-37BE-4C80-9191-ECBB7A84F3C2";
shapes = (
{
closed = 1;
nodes = (
(238,216,l),
(238,329,l),
(21,329,l),
(21,216,l)
);
}
);
vertWidth = 0;
width = 259;
}
);
script = "";
subCategory = Dash;
unicode = 45;
}
{
category = Punctuation;
glyphname = period;
layers = (
{
layerId = "94EB6DF8-7434-4BE0-9F23-77BCD575F5B8";
shapes = (
{
closed = 1;
nodes = (
(162,-5,o),
(175,4,o),
(175,35,cs),
(175,65,o),
(162,73,o),
(146,73,cs),
(131,73,o),
(117,65,o),
(117,35,cs),
(117,4,o),
(131,-5,o),
(146,-5,cs)
);
}
);
vertWidth = 0;
width = 239;
},
{
layerId = "B2542900-2B87-4688-8902-A06B6D3D93DD";
shapes = (
{
closed = 1;
nodes = (
(209,-7,o),
(236,9,o),
(236,59,cs),
(236,108,o),
(209,124,o),
(177,124,cs),
(144,124,o),
(117,108,o),
(117,59,cs),
(117,9,o),
(144,-7,o),
(177,-7,cs)
);
}
);
vertWidth = 0;
width = 299;
},
{
layerId = "18A8C34B-6260-4854-BBF8-229863F38B25";
shapes = (
{
closed = 1;
nodes = (
(254,-8,o),
(292,12,o),
(292,72,cs),
(292,134,o),
(254,153,o),
(210,153,cs),
(163,153,o),
(127,134,o),
(127,72,cs),
(127,12,o),
(163,-8,o),
(210,-8,cs)
);
}
);
vertWidth = 0;
width = 356;
},
{
layerId = "33F2F8B2-CCE7-4937-A852-9C044B0330C5";
shapes = (
{
closed = 1;
nodes = (
(94,-6,o),
(107,4,o),
(107,33,cs),
(107,63,o),
(94,73,o),
(80,73,cs),
(63,73,o),
(50,63,o),
(50,33,cs),
(50,4,o),
(63,-6,o),
(80,-6,cs)
);
}
);
vertWidth = 0;
width = 157;
},
{
layerId = "5278E13D-D735-4789-ABCD-F52B0BBC306E";
shapes = (
{
closed = 1;
nodes = (
(131,-7,o),
(155,8,o),
(155,55,cs),
(155,102,o),
(131,117,o),
(104,117,cs),
(75,117,o),
(52,102,o),
(52,55,cs),
(52,8,o),
(75,-7,o),
(104,-7,cs)
);
}
);
vertWidth = 0;
width = 207;
},
{
layerId = "03D26766-37BE-4C80-9191-ECBB7A84F3C2";
shapes = (
{
closed = 1;
nodes = (
(179,-8,o),
(217,12,o),
(217,74,cs),
(217,136,o),
(179,156,o),
(136,156,cs),
(91,156,o),
(56,136,o),
(56,74,cs),
(56,12,o),
(91,-8,o),
(136,-8,cs)
);
}
);
vertWidth = 0;
width = 273;
}
);
script = "";
subCategory = Other;
unicode = 46;
}
{
category = Punctuation;
glyphname = slash;
layers = (
{
layerId = "94EB6DF8-7434-4BE0-9F23-77BCD575F5B8";
shapes = (
{
closed = 1;
nodes = (
(29,-121,l),
(288,760,l),
(259,760,l),
(0,-121,l)
);
}
);
vertWidth = 0;
width = 288;
},
{
layerId = "B2542900-2B87-4688-8902-A06B6D3D93DD";
shapes = (
{
closed = 1;
nodes = (
(56,-121,l),
(288,760,l),
(233,760,l),
(0,-121,l)
);
}
);
vertWidth = 0;
width = 288;
},
{
layerId = "18A8C34B-6260-4854-BBF8-229863F38B25";
shapes = (
{
closed = 1;
nodes = (
(73,-121,l),
(288,760,l),
(217,760,l),
(0,-121,l)
);
}
);
vertWidth = 0;
width = 288;
},
{
layerId = "33F2F8B2-CCE7-4937-A852-9C044B0330C5";
shapes = (
{
closed = 1;
nodes = (
(29,-121,l),
(219,760,l),
(190,760,l),
(0,-121,l)
);
}
);
vertWidth = 0;
width = 219;
},
{
layerId = "5278E13D-D735-4789-ABCD-F52B0BBC306E";
shapes = (
{
closed = 1;
nodes = (
(50,-120,l),
(228,760,l),
(180,760,l),
(0,-121,l)
);
}
);
vertWidth = 0;
width = 228;
},
{
layerId = "03D26766-37BE-4C80-9191-ECBB7A84F3C2";
shapes = (
{
closed = 1;
nodes = (
(69,-121,l),
(240,760,l),
(174,760,l),
(0,-121,l)
);
}
);
vertWidth = 0;
width = 240;
}
);
script = "";
subCategory = Other;
unicode = 47;
}
{
category = Number;
glyphname = six;
layers = (
{
layerId = "94EB6DF8-7434-4BE0-9F23-77BCD575F5B8";
shapes = (
{
closed = 1;
nodes = (
(425,-10,o),
(488,83,o),
(488,220,cs),
(488,355,o),
(409,427,o),
(296,427,cs),
(217,427,o),
(154,392,o),
(109,357,c),
(109,596,o),
(198,699,o),
(321,699,cs),
(400,699,o),
(440,666,o),
(440,589,c),
(454,589,o),
(462,603,o),
(462,624,cs),
(462,672,o),
(423,724,o),
(322,724,cs),
(186,724,o),
(81,624,o),
(81,338,cs),
(81,102,o),
(161,-10,o),
(293,-10,cs)
);
},
{
closed = 1;
nodes = (
(171,15,o),
(113,125,o),
(109,325,c),
(142,353,o),
(205,402,o),
(296,402,cs),
(407,402,o),
(460,324,o),
(460,221,cs),
(460,99,o),
(408,15,o),
(296,15,cs)
);
}
);
vertWidth = 0;
width = 559;
},
{
layerId = "B2542900-2B87-4688-8902-A06B6D3D93DD";
shapes = (
{
closed = 1;
nodes = (
(429,-10,o),
(508,88,o),
(508,229,cs),
(508,357,o),
(429,434,o),
(307,434,cs),
(242,434,o),
(197,409,o),
(164,382,c),
(171,575,o),
(222,676,o),
(322,676,cs),
(386,676,o),
(410,624,o),
(410,559,c),
(460,559,o),
(487,581,o),
(487,619,cs),
(487,673,o),
(433,724,o),
(322,724,cs),
(145,724,o),
(61,550,o),
(61,360,cs),
(61,97,o),
(160,-10,o),
(293,-10,cs)
);
},
{
closed = 1;
nodes = (
(216,45,o),
(165,125,o),
(163,325,c),
(190,353,o),
(235,383,o),
(287,383,cs),
(364,383,o),
(406,333,o),
(406,219,cs),
(406,98,o),
(367,45,o),
(296,45,cs)
);
}
);
vertWidth = 0;
width = 559;
},
{
layerId = "18A8C34B-6260-4854-BBF8-229863F38B25";
shapes = (
{
closed = 1;
nodes = (
(445,-10,o),
(524,88,o),
(524,231,cs),
(524,361,o),
(445,438,o),
(324,438,cs),
(256,438,o),
(213,419,o),
(186,401,c),
(194,570,o),
(242,665,o),
(321,665,cs),
(374,665,o),
(387,596,o),
(387,536,c),
(475,536,o),
(507,573,o),
(507,614,cs),
(507,671,o),
(459,724,o),
(330,724,cs),
(137,724,o),
(45,550,o),
(45,330,cs),
(45,97,o),
(145,-10,o),
(293,-10,cs)
);
},
{
closed = 1;
nodes = (
(235,56,o),
(187,137,o),
(186,329,c),
(203,352,o),
(251,377,o),
(287,377,cs),
(344,377,o),
(379,329,o),
(379,221,cs),
(379,106,o),
(347,56,o),
(296,56,cs)
);
}
);
vertWidth = 0;
width = 559;
},
{
layerId = "33F2F8B2-CCE7-4937-A852-9C044B0330C5";
shapes = (
{
closed = 1;
nodes = (
(296,-10,o),
(373,43,o),
(373,216,cs),
(373,354,o),
(322,429,o),
(226,429,cs),
(154,429,o),
(107,383,o),
(86,354,c),
(85,608,o),
(137,699,o),
(239,699,cs),
(309,699,o),
(335,661,o),
(335,587,c),
(345,587,o),
(355,592,o),
(355,625,cs),
(355,682,o),
(317,724,o),
(240,724,cs),
(127,724,o),
(58,637,o),
(58,339,cs),
(58,93,o),
(121,-10,o),
(227,-10,cs)
);
},
{
closed = 1;
nodes = (
(137,15,o),
(88,110,o),
(86,317,c),
(112,354,o),
(156,404,o),
(226,404,cs),
(307,404,o),
(345,344,o),
(345,217,cs),
(345,77,o),
(298,15,o),
(228,15,cs)
);
}
);
vertWidth = 0;
width = 425;
},
{
layerId = "5278E13D-D735-4789-ABCD-F52B0BBC306E";
shapes = (
{
closed = 1;
nodes = (
(342,-10,o),
(405,88,o),
(405,229,cs),
(405,356,o),
(342,433,o),
(249,433,cs),
(194,433,o),
(158,405,o),
(134,379,c),
(137,575,o),
(175,677,o),
(248,677,cs),
(300,677,o),
(322,631,o),
(322,562,c),
(365,562,o),
(388,581,o),
(388,619,cs),
(388,673,o),
(342,724,o),
(251,724,cs),
(109,724,o),
(45,582,o),
(45,340,cs),
(45,97,o),
(124,-10,o),
(232,-10,cs)
);
},
{
closed = 1;
nodes = (
(173,40,o),
(135,133,o),
(133,327,c),
(152,352,o),
(183,385,o),
(231,385,cs),
(288,385,o),
(318,334,o),
(318,219,cs),
(318,95,o),
(288,40,o),
(234,40,cs)
);
}
);
vertWidth = 0;
width = 442;
},
{
layerId = "03D26766-37BE-4C80-9191-ECBB7A84F3C2";
shapes = (
{
closed = 1;
nodes = (
(381,-10,o),
(447,88,o),
(447,231,cs),
(447,362,o),
(381,439,o),
(280,439,cs),
(222,439,o),
(195,420,o),
(174,404,c),
(182,567,o),
(208,662,o),
(260,662,cs),
(297,662,o),
(317,602,o),
(317,530,c),
(401,530,o),
(430,566,o),
(430,612,cs),
(430,671,o),
(384,724,o),
(265,724,cs),
(107,724,o),
(27,584,o),
(27,332,cs),
(27,97,o),
(112,-10,o),
(244,-10,cs)
);
},
{
closed = 1;
nodes = (
(191,58,o),
(176,150,o),
(175,340,c),
(189,353,o),
(209,372,o),
(239,372,cs),
(274,372,o),
(299,328,o),
(299,221,cs),
(299,108,o),
(277,58,o),
(243,58,cs)
);
}
);
vertWidth = 0;
width = 466;
}
);
script = "";
subCategory = "Decimal Digit";
unicode = 54;
}
{
category = Symbol;
glyphname = less;
layers = (
{
layerId = "94EB6DF8-7434-4BE0-9F23-77BCD575F5B8";
shapes = (
{
closed = 1;
nodes = (
(494,149,l),
(95,357,l),
(494,567,l),
(494,598,l),
(65,371,l),
(65,344,l),
(494,118,l)
);
}
);
vertWidth = 0;
width = 559;
},
{
layerId = "B2542900-2B87-4688-8902-A06B6D3D93DD";
shapes = (
{
closed = 1;
nodes = (
(494,174,l),
(152,357,l),
(494,542,l),
(494,605,l),
(65,375,l),
(65,340,l),
(494,111,l)
);
}
);
vertWidth = 0;
width = 559;
},
{
layerId = "18A8C34B-6260-4854-BBF8-229863F38B25";
shapes = (
{
closed = 1;
nodes = (
(494,183,l),
(172,357,l),
(494,533,l),
(494,612,l),
(65,378,l),
(65,337,l),
(494,104,l)
);
}
);
vertWidth = 0;
width = 559;
},
{
layerId = "33F2F8B2-CCE7-4937-A852-9C044B0330C5";
shapes = (
{
closed = 1;
nodes = (
(375,153,l),
(81,357,l),
(375,563,l),
(375,599,l),
(50,371,l),
(50,344,l),
(375,117,l)
);
}
);
vertWidth = 0;
width = 425;
},
{
layerId = "5278E13D-D735-4789-ABCD-F52B0BBC306E";
shapes = (
{
closed = 1;
nodes = (
(382,177,l),
(119,357,l),
(382,540,l),
(382,605,l),
(43,375,l),
(43,340,l),
(382,111,l)
);
}
);
vertWidth = 0;
width = 425;
},
{
layerId = "03D26766-37BE-4C80-9191-ECBB7A84F3C2";
shapes = (
{
closed = 1;
nodes = (
(391,186,l),
(131,357,l),
(391,530,l),
(391,613,l),
(34,379,l),
(34,336,l),
(391,103,l)
);
}
);
vertWidth = 0;
width = 425;
}
);
script = "";
subCategory = Math;
unicode = 60;
}
{
category = Symbol;
glyphname = greater;
layers = (
{
layerId = "94EB6DF8-7434-4BE0-9F23-77BCD575F5B8";
shapes = (
{
closed = 1;
nodes = (
(494,344,l),
(494,371,l),
(65,598,l),
(65,567,l),
(460,357,l),
(65,149,l),
(65,118,l)
);
}
);
vertWidth = 0;
width = 559;
},
{
layerId = "B2542900-2B87-4688-8902-A06B6D3D93DD";
shapes = (
{
closed = 1;
nodes = (
(494,340,l),
(494,375,l),
(65,605,l),
(65,542,l),
(407,357,l),
(65,174,l),
(65,111,l)
);
}
);
vertWidth = 0;
width = 559;
},
{
layerId = "18A8C34B-6260-4854-BBF8-229863F38B25";
shapes = (
{
closed = 1;
nodes = (
(494,337,l),
(494,378,l),
(65,612,l),
(65,533,l),
(387,357,l),
(65,183,l),
(65,104,l)
);
}
);
vertWidth = 0;
width = 559;
},
{
layerId = "33F2F8B2-CCE7-4937-A852-9C044B0330C5";
shapes = (
{
closed = 1;
nodes = (
(375,344,l),
(375,371,l),
(50,599,l),
(50,563,l),
(344,357,l),
(50,153,l),
(50,117,l)
);
}
);
vertWidth = 0;
width = 425;
},
{
layerId = "5278E13D-D735-4789-ABCD-F52B0BBC306E";
shapes = (
{
closed = 1;
nodes = (
(382,340,l),
(382,375,l),
(43,605,l),
(43,540,l),
(305,357,l),
(43,177,l),
(43,111,l)
);
}
);
vertWidth = 0;
width = 425;
},
{
layerId = "03D26766-37BE-4C80-9191-ECBB7A84F3C2";
shapes = (
{
closed = 1;
nodes = (
(391,336,l),
(391,379,l),
(34,613,l),
(34,530,l),
(293,357,l),
(34,186,l),
(34,103,l)
);
}
);
vertWidth = 0;
width = 425;
}
);
script = "";
subCategory = Math;
unicode = 62;
}
{
category = Punctuation;
glyphname = bracketleft;
layers = (
{
layerId = "94EB6DF8-7434-4BE0-9F23-77BCD575F5B8";
shapes = (
{
closed = 1;
nodes = (
(218,-128,l),
(218,-108,l),
(147,-108,ls),
(97,-108,o),
(91,-97,o),
(91,-20,cs),
(91,652,ls),
(91,729,o),
(97,740,o),
(147,740,cs),
(218,740,l),
(218,760,l),
(63,760,l),
(63,-128,l)
);
}
);
vertWidth = 0;
width = 248;
},
{
layerId = "B2542900-2B87-4688-8902-A06B6D3D93DD";
shapes = (
{
closed = 1;
nodes = (
(280,-128,l),
(280,-88,l),
(233,-88,ls),
(188,-88,o),
(155,-79,o),
(155,-15,cs),
(155,646,ls),
(155,711,o),
(188,720,o),
(233,720,cs),
(280,720,l),
(280,760,l),
(63,760,l),
(63,-128,l)
);
}
);
vertWidth = 0;
width = 358;
},
{
layerId = "18A8C34B-6260-4854-BBF8-229863F38B25";
shapes = (
{
closed = 1;
nodes = (
(353,-128,l),
(353,-75,l),
(310,-75,ls),
(265,-75,o),
(228,-66,o),
(228,-3,cs),
(228,635,ls),
(228,698,o),
(265,707,o),
(310,707,cs),
(353,707,l),
(353,760,l),
(73,760,l),
(73,-128,l)
);
}
);
vertWidth = 0;
width = 431;
},
{
layerId = "33F2F8B2-CCE7-4937-A852-9C044B0330C5";
shapes = (
{
closed = 1;
nodes = (
(204,-128,l),
(204,-108,l),
(159,-108,ls),
(109,-108,o),
(103,-97,o),
(103,-20,cs),
(103,652,ls),
(103,729,o),
(109,740,o),
(159,740,cs),
(204,740,l),
(204,760,l),
(75,760,l),
(75,-128,l)
);
}
);
vertWidth = 0;
width = 233;
},
{
layerId = "5278E13D-D735-4789-ABCD-F52B0BBC306E";
shapes = (
{
closed = 1;
nodes = (
(267,-128,l),
(267,-87,l),
(233,-87,ls),
(198,-87,o),
(168,-78,o),
(168,-15,cs),
(168,647,ls),
(168,710,o),
(198,719,o),
(233,719,cs),
(267,719,l),
(267,760,l),
(79,760,l),
(79,-128,l)
);
}
);
vertWidth = 0;
width = 296;
},
{
layerId = "03D26766-37BE-4C80-9191-ECBB7A84F3C2";
shapes = (
{
closed = 1;
nodes = (
(348,-128,l),
(348,-72,l),
(313,-72,ls),
(275,-72,o),
(244,-63,o),
(244,0,cs),
(244,632,ls),
(244,695,o),
(275,704,o),
(313,704,cs),
(348,704,l),
(348,760,l),
(83,760,l),
(83,-128,l)
);
}
);
vertWidth = 0;
width = 379;
}
);
script = "";
subCategory = Parenthesis;
unicode = 91;
}
{
category = Punctuation;
glyphname = underscore;
layers = (
{
layerId = "94EB6DF8-7434-4BE0-9F23-77BCD575F5B8";
shapes = (
{
closed = 1;
nodes = (
(464,-108,l),
(464,-83,l),
(-5,-83,l),
(-5,-108,l)
);
}
);
vertWidth = 0;
width = 459;
},
{
layerId = "B2542900-2B87-4688-8902-A06B6D3D93DD";
shapes = (
{
closed = 1;
nodes = (
(464,-139,l),
(464,-83,l),
(-5,-83,l),
(-5,-139,l)
);
}
);
vertWidth = 0;
width = 459;
},
{
layerId = "18A8C34B-6260-4854-BBF8-229863F38B25";
shapes = (
{
closed = 1;
nodes = (
(464,-142,l),
(464,-83,l),
(-5,-83,l),
(-5,-142,l)
);
}
);
vertWidth = 0;
width = 459;
},
{
layerId = "33F2F8B2-CCE7-4937-A852-9C044B0330C5";
shapes = (
{
closed = 1;
nodes = (
(352,-108,l),
(352,-83,l),
(-5,-83,l),
(-5,-108,l)
);
}
);
vertWidth = 0;
width = 347;
},
{
layerId = "5278E13D-D735-4789-ABCD-F52B0BBC306E";
shapes = (
{
closed = 1;
nodes = (
(366,-142,l),
(366,-83,l),
(-4,-83,l),
(-4,-142,l)
);
}
);
vertWidth = 0;
width = 362;
},
{
layerId = "03D26766-37BE-4C80-9191-ECBB7A84F3C2";
shapes = (
{
closed = 1;
nodes = (
(386,-142,l),
(386,-83,l),
(-5,-83,l),
(-5,-142,l)
);
}
);
vertWidth = 0;
width = 382;
}
);
script = "";
subCategory = Dash;
unicode = 95;
}
{
category = Punctuation;
glyphname = braceleft;
layers = (
{
layerId = "94EB6DF8-7434-4BE0-9F23-77BCD575F5B8";
shapes = (
{
closed = 1;
nodes = (
(270,-132,l),
(270,-107,l),
(240,-107,ls),
(183,-107,o),
(158,-68,o),
(158,6,cs),
(158,187,ls),
(158,259,o),
(123,307,o),
(63,315,c),
(63,317,l),
(122,324,o),
(158,373,o),
(158,443,cs),
(158,620,ls),
(158,697,o),
(183,735,o),
(245,735,cs),
(270,735,l),
(270,760,l),
(240,760,ls),
(169,760,o),
(129,710,o),
(129,621,cs),
(129,445,ls),
(129,356,o),
(78,326,o),
(10,324,c),
(10,306,l),
(78,303,o),
(129,274,o),
(129,184,cs),
(129,8,ls),
(129,-78,o),
(169,-132,o),
(240,-132,cs)
);
}
);
vertWidth = 0;
width = 328;
},
{
layerId = "B2542900-2B87-4688-8902-A06B6D3D93DD";
shapes = (
{
closed = 1;
nodes = (
(341,-128,l),
(341,-87,l),
(311,-87,ls),
(252,-87,o),
(229,-50,o),
(229,19,cs),
(229,192,ls),
(229,259,o),
(194,305,o),
(120,317,c),
(120,318,l),
(192,330,o),
(229,375,o),
(229,441,cs),
(229,613,ls),
(229,683,o),
(252,719,o),
(312,719,cs),
(341,719,l),
(341,760,l),
(279,760,ls),
(187,760,o),
(138,708,o),
(138,618,cs),
(138,443,ls),
(138,361,o),
(86,338,o),
(20,336,c),
(20,297,l),
(86,294,o),
(138,272,o),
(138,189,cs),
(138,15,ls),
(138,-72,o),
(187,-128,o),
(279,-128,cs)
);
}
);
vertWidth = 0;
width = 419;
},
{
layerId = "18A8C34B-6260-4854-BBF8-229863F38B25";
shapes = (
{
closed = 1;
nodes = (
(419,-125,l),
(419,-71,l),
(379,-71,ls),
(323,-71,o),
(309,-37,o),
(309,26,cs),
(309,197,ls),
(309,257,o),
(275,296,o),
(199,315,c),
(199,323,l),
(276,341,o),
(309,380,o),
(309,440,cs),
(309,610,ls),
(309,673,o),
(323,707,o),
(379,707,cs),
(419,707,l),
(419,760,l),
(322,760,ls),
(209,760,o),
(150,707,o),
(150,614,cs),
(150,442,ls),
(150,367,o),
(99,351,o),
(34,349,c),
(34,288,l),
(99,285,o),
(150,270,o),
(150,194,cs),
(150,23,ls),
(150,-68,o),
(209,-125,o),
(322,-125,cs)
);
}
);
vertWidth = 0;
width = 517;
},
{
layerId = "33F2F8B2-CCE7-4937-A852-9C044B0330C5";
shapes = (
{
closed = 1;
nodes = (
(261,-132,l),
(261,-107,l),
(245,-107,ls),
(195,-107,o),
(173,-70,o),
(173,13,cs),
(173,175,ls),
(173,260,o),
(142,303,o),
(93,313,c),
(93,315,l),
(142,325,o),
(173,370,o),
(173,455,cs),
(173,614,ls),
(173,698,o),
(195,735,o),
(245,735,cs),
(261,735,l),
(261,760,l),
(238,760,ls),
(177,760,o),
(146,705,o),
(146,621,cs),
(146,459,ls),
(146,355,o),
(106,333,o),
(52,326,c),
(52,302,l),
(106,295,o),
(146,275,o),
(146,171,cs),
(146,8,ls),
(146,-77,o),
(176,-132,o),
(240,-132,cs)
);
}
);
vertWidth = 0;
width = 314;
},
{
layerId = "5278E13D-D735-4789-ABCD-F52B0BBC306E";
shapes = (
{
closed = 1;
nodes = (
(306,-128,l),
(306,-86,l),
(281,-86,ls),
(235,-86,o),
(218,-49,o),
(218,19,cs),
(218,192,ls),
(218,259,o),
(190,305,o),
(131,317,c),
(131,318,l),
(190,329,o),
(218,375,o),
(218,441,cs),
(218,612,ls),
(218,682,o),
(235,718,o),
(281,718,cs),
(306,718,l),
(306,760,l),
(248,760,ls),
(170,760,o),
(128,708,o),
(128,617,cs),
(128,443,ls),
(128,362,o),
(88,339,o),
(35,337,c),
(35,297,l),
(88,294,o),
(128,272,o),
(128,189,cs),
(128,16,ls),
(128,-73,o),
(170,-128,o),
(248,-128,cs)
);
}
);
vertWidth = 0;
width = 341;
},
{
layerId = "03D26766-37BE-4C80-9191-ECBB7A84F3C2";
shapes = (
{
closed = 1;
nodes = (
(364,-124,l),
(364,-68,l),
(326,-68,ls),
(280,-68,o),
(273,-34,o),
(273,27,cs),
(273,198,ls),
(273,257,o),
(246,294,o),
(183,315,c),
(183,325,l),
(249,344,o),
(273,381,o),
(273,440,cs),
(273,610,ls),
(273,671,o),
(280,705,o),
(326,705,cs),
(364,705,l),
(364,760,l),
(267,760,ls),
(162,760,o),
(108,707,o),
(108,613,cs),
(108,442,ls),
(108,369,o),
(66,354,o),
(12,352,c),
(12,286,l),
(66,283,o),
(108,270,o),
(108,195,cs),
(108,25,ls),
(108,-67,o),
(162,-124,o),
(267,-124,cs)
);
}
);
vertWidth = 0;
width = 376;
}
);
script = "";
subCategory = Parenthesis;
unicode = 123;
}
{
category = Mark;
glyphname = "udatta-deva";
layers = (
{
anchors = (
{
name = _vedic;
pos = (-299,-235);
}
);
layerId = "94EB6DF8-7434-4BE0-9F23-77BCD575F5B8";
shapes = (
{
closed = 1;
nodes = (
(-288,706,l),
(-288,912,l),
(-310,912,l),
(-310,706,l)
);
}
);
vertWidth = 0;
width = 0;
},
{
anchors = (
{
name = _vedic;
pos = (-299,-250);
}
);
layerId = "B2542900-2B87-4688-8902-A06B6D3D93DD";
shapes = (
{
closed = 1;
nodes = (
(-270,706,l),
(-270,911,l),
(-327,911,l),
(-327,706,l)
);
}
);
vertWidth = 0;
width = 0;
},
{
anchors = (
{
name = _vedic;
pos = (-299,-280);
}
);
layerId = "18A8C34B-6260-4854-BBF8-229863F38B25";
shapes = (
{
closed = 1;
nodes = (
(-242,706,l),
(-242,923,l),
(-356,923,l),
(-356,706,l)
);
}
);
vertWidth = 0;
width = 0;
},
{
anchors = (
{
name = _vedic;
pos = (-299,-236);
}
);
layerId = "33F2F8B2-CCE7-4937-A852-9C044B0330C5";
shapes = (
{
closed = 1;
nodes = (
(-288,706,l),
(-288,912,l),
(-310,912,l),
(-310,706,l)
);
}
);
vertWidth = 0;
width = 0;
},
{
anchors = (
{
name = _vedic;
pos = (-299,-250);
}
);
layerId = "5278E13D-D735-4789-ABCD-F52B0BBC306E";
shapes = (
{
closed = 1;
nodes = (
(-271,706,l),
(-271,911,l),
(-326,911,l),
(-326,706,l)
);
}
);
vertWidth = 0;
width = 0;
},
{
anchors = (
{
name = _vedic;
pos = (-299,-280);
}
);
layerId = "03D26766-37BE-4C80-9191-ECBB7A84F3C2";
shapes = (
{
closed = 1;
nodes = (
(-244,706,l),
(-244,922,l),
(-354,922,l),
(-354,706,l)
);
}
);
vertWidth = 0;
width = 0;
}
);
production = uni0951;
script = bengali;
subCategory = Nonspacing;
unicode = 2385;
}
{
category = Punctuation;
glyphname = "danda-deva";
layers = (
{
layerId = "94EB6DF8-7434-4BE0-9F23-77BCD575F5B8";
shapes = (
{
closed = 1;
nodes = (
(363,-9,l),
(363,595,l),
(343,612,l),
(340,612,l),
(340,3,l),
(360,-10,l)
);
}
);
vertWidth = 0;
width = 473;
},
{
layerId = "B2542900-2B87-4688-8902-A06B6D3D93DD";
shapes = (
{
closed = 1;
nodes = (
(374,-22,l),
(374,585,l),
(323,622,l),
(320,622,l),
(320,5,l),
(371,-23,l)
);
}
);
vertWidth = 0;
width = 464;
},
{
layerId = "18A8C34B-6260-4854-BBF8-229863F38B25";
shapes = (
{
closed = 1;
nodes = (
(415,-40,l),
(415,591,l),
(303,628,l),
(300,628,l),
(300,-1,l),
(404,-43,l)
);
}
);
vertWidth = 0;
width = 485;
},
{
layerId = "33F2F8B2-CCE7-4937-A852-9C044B0330C5";
shapes = (
{
closed = 1;
nodes = (
(263,-9,l),
(263,595,l),
(243,612,l),
(240,612,l),
(240,3,l),
(260,-10,l)
);
}
);
vertWidth = 0;
width = 338;
},
{
layerId = "5278E13D-D735-4789-ABCD-F52B0BBC306E";
shapes = (
{
closed = 1;
nodes = (
(274,-22,l),
(274,585,l),
(223,622,l),
(220,622,l),
(220,5,l),
(271,-23,l)
);
}
);
vertWidth = 0;
width = 334;
},
{
layerId = "03D26766-37BE-4C80-9191-ECBB7A84F3C2";
shapes = (
{
closed = 1;
nodes = (
(320,-40,l),
(320,591,l),
(208,628,l),
(205,628,l),
(205,-1,l),
(309,-43,l)
);
}
);
vertWidth = 0;
width = 360;
}
);
production = uni0964;
script = devanagari;
subCategory = Other;
unicode = 2404;
}
{
category = Punctuation;
glyphname = "dbldanda-deva";
layers = (
{
layerId = "94EB6DF8-7434-4BE0-9F23-77BCD575F5B8";
shapes = (
{
closed = 1;
nodes = (
(515,-9,l),
(515,595,l),
(495,612,l),
(492,612,l),
(492,3,l),
(512,-10,l)
);
},
{
closed = 1;
nodes = (
(363,-9,l),
(363,595,l),
(343,612,l),
(340,612,l),
(340,3,l),
(360,-10,l)
);
}
);
vertWidth = 0;
width = 625;
},
{
layerId = "B2542900-2B87-4688-8902-A06B6D3D93DD";
shapes = (
{
closed = 1;
nodes = (
(533,-22,l),
(533,585,l),
(482,622,l),
(479,622,l),
(479,5,l),
(530,-23,l)
);
},
{
closed = 1;
nodes = (
(374,-22,l),
(374,585,l),
(323,622,l),
(320,622,l),
(320,5,l),
(371,-23,l)
);
}
);
vertWidth = 0;
width = 623;
},
{
layerId = "18A8C34B-6260-4854-BBF8-229863F38B25";
shapes = (
{
closed = 1;
nodes = (
(618,-40,l),
(618,591,l),
(506,628,l),
(503,628,l),
(503,-1,l),
(607,-43,l)
);
},
{
closed = 1;
nodes = (
(415,-40,l),
(415,591,l),
(303,628,l),
(300,628,l),
(300,-1,l),
(404,-43,l)
);
}
);
vertWidth = 0;
width = 688;
},
{
layerId = "33F2F8B2-CCE7-4937-A852-9C044B0330C5";
shapes = (
{
closed = 1;
nodes = (
(371,-9,l),
(371,595,l),
(351,612,l),
(348,612,l),
(348,3,l),
(368,-10,l)
);
},
{
closed = 1;
nodes = (
(263,-9,l),
(263,595,l),
(243,612,l),
(240,612,l),
(240,3,l),
(260,-10,l)
);
}
);
vertWidth = 0;
width = 446;
},
{
layerId = "5278E13D-D735-4789-ABCD-F52B0BBC306E";
shapes = (
{
closed = 1;
nodes = (
(404,-22,l),
(404,585,l),
(353,622,l),
(350,622,l),
(350,5,l),
(401,-23,l)
);
},
{
closed = 1;
nodes = (
(274,-22,l),
(274,585,l),
(223,622,l),
(220,622,l),
(220,5,l),
(271,-23,l)
);
}
);
vertWidth = 0;
width = 464;
},
{
layerId = "03D26766-37BE-4C80-9191-ECBB7A84F3C2";
shapes = (
{
closed = 1;
nodes = (
(489,-40,l),
(489,591,l),
(377,628,l),
(374,628,l),
(374,-1,l),
(478,-43,l)
);
},
{
closed = 1;
nodes = (
(320,-40,l),
(320,591,l),
(208,628,l),
(205,628,l),
(205,-1,l),
(309,-43,l)
);
}
);
vertWidth = 0;
width = 529;
}
);
metricLeft = "danda-deva";
metricRight = "danda-deva";
production = uni0965;
script = devanagari;
subCategory = Other;
unicode = 2405;
}
{
category = Letter;
glyphname = "anji-beng";
layers = (
{
anchors = (
{
name = top;
pos = (263,602);
}
);
layerId = "94EB6DF8-7434-4BE0-9F23-77BCD575F5B8";
shapes = (
{
closed = 1;
nodes = (
(436,22,o),
(452,37,o),
(452,59,cs),
(452,84,o),
(436,98,o),
(414,98,cs),
(391,98,o),
(383,86,o),
(381,71,c),
(392,69,l),
(392,506,ls),
(392,576,o),
(354,626,o),
(269,626,cs),
(164,626,o),
(75,547,o),
(75,437,cs),
(75,349,o),
(127,286,o),
(211,286,cs),
(253,286,o),
(276,307,o),
(276,342,cs),
(276,371,o),
(257,391,o),
(227,391,cs),
(200,391,o),
(180,371,o),
(180,344,cs),
(180,324,o),
(189,309,o),
(200,303,c),
(214,315,l),
(207,312,o),
(200,311,o),
(194,311,cs),
(147,311,o),
(99,356,o),
(99,428,cs),
(99,536,o),
(181,602,o),
(275,602,cs),
(335,602,o),
(369,567,o),
(369,500,cs),
(369,71,ls),
(369,40,o),
(386,22,o),
(414,22,cs)
);
}
);
vertWidth = 0;
width = 514;
},
{
anchors = (
{
name = top;
pos = (293,570);
}
);
layerId = "B2542900-2B87-4688-8902-A06B6D3D93DD";
shapes = (
{
closed = 1;
nodes = (
(484,0,o),
(504,26,o),
(504,62,cs),
(504,100,o),
(479,127,o),
(441,127,cs),
(406,127,o),
(393,107,o),
(389,79,c),
(417,79,l),
(417,480,ls),
(417,555,o),
(372,622,o),
(274,622,cs),
(154,622,o),
(65,537,o),
(65,427,cs),
(65,310,o),
(154,250,o),
(226,250,cs),
(288,250,o),
(317,282,o),
(317,330,cs),
(317,383,o),
(285,408,o),
(239,408,cs),
(199,408,o),
(168,382,o),
(168,338,cs),
(168,327,o),
(170,312,o),
(174,304,c),
(219,325,l),
(209,321,o),
(199,320,o),
(189,320,cs),
(153,320,o),
(131,355,o),
(131,407,cs),
(131,496,o),
(235,559,o),
(300,559,cs),
(346,559,o),
(363,538,o),
(363,494,cs),
(363,102,ls),
(363,42,o),
(394,0,o),
(442,0,cs)
);
}
);
vertWidth = 0;
width = 544;
},
{
anchors = (
{
name = top;
pos = (341,592);
}
);
layerId = "18A8C34B-6260-4854-BBF8-229863F38B25";
shapes = (
{
closed = 1;
nodes = (
(597,-60,o),
(631,-24,o),
(631,33,cs),
(631,90,o),
(592,124,o),
(548,124,cs),
(493,124,o),
(474,81,o),
(474,50,c),
(525,41,l),
(525,461,ls),
(525,566,o),
(442,638,o),
(317,638,cs),
(163,638,o),
(45,539,o),
(45,385,cs),
(45,250,o),
(126,162,o),
(258,162,cs),
(337,162,o),
(382,208,o),
(382,275,cs),
(382,335,o),
(345,378,o),
(284,378,cs),
(230,378,o),
(193,339,o),
(193,287,cs),
(193,265,o),
(197,244,o),
(204,232,c),
(261,258,l),
(247,255,o),
(232,254,o),
(219,254,cs),
(181,254,o),
(156,283,o),
(156,345,cs),
(156,451,o),
(274,521,o),
(356,521,cs),
(398,521,o),
(410,502,o),
(410,459,cs),
(410,86,ls),
(410,4,o),
(453,-60,o),
(534,-60,cs)
);
}
);
vertWidth = 0;
width = 641;
},
{
anchors = (
{
name = top;
pos = (205,602);
}
);
layerId = "33F2F8B2-CCE7-4937-A852-9C044B0330C5";
shapes = (
{
closed = 1;
nodes = (
(316,22,o),
(331,37,o),
(331,59,cs),
(331,83,o),
(318,98,o),
(299,98,cs),
(280,98,o),
(273,86,o),
(271,71,c),
(281,69,l),
(281,506,ls),
(281,576,o),
(253,626,o),
(192,626,cs),
(115,626,o),
(52,546,o),
(52,437,cs),
(52,349,o),
(92,286,o),
(152,286,cs),
(187,286,o),
(204,308,o),
(204,342,cs),
(204,370,o),
(189,391,o),
(163,391,cs),
(139,391,o),
(123,371,o),
(123,344,cs),
(123,324,o),
(130,311,o),
(136,303,c),
(154,317,l),
(148,314,o),
(143,313,o),
(138,313,cs),
(106,313,o),
(75,358,o),
(75,428,cs),
(75,535,o),
(135,602,o),
(198,602,cs),
(239,602,o),
(259,567,o),
(259,500,cs),
(259,68,ls),
(259,39,o),
(276,22,o),
(297,22,cs)
);
}
);
vertWidth = 0;
width = 368;
},
{
anchors = (
{
name = top;
pos = (220,570);
}
);
layerId = "5278E13D-D735-4789-ABCD-F52B0BBC306E";
shapes = (
{
closed = 1;
nodes = (
(374,0,o),
(393,27,o),
(393,63,cs),
(393,98,o),
(370,124,o),
(339,124,cs),
(310,124,o),
(298,104,o),
(296,76,c),
(315,76,l),
(315,486,ls),
(315,560,o),
(276,622,o),
(199,622,cs),
(111,622,o),
(41,537,o),
(41,425,cs),
(41,309,o),
(104,255,o),
(167,255,cs),
(212,255,o),
(239,285,o),
(239,330,cs),
(239,377,o),
(212,402,o),
(181,402,cs),
(148,402,o),
(125,377,o),
(125,337,cs),
(125,326,o),
(128,311,o),
(131,305,c),
(162,324,l),
(154,320,o),
(146,319,o),
(138,319,cs),
(112,319,o),
(95,352,o),
(95,399,cs),
(95,479,o),
(164,561,o),
(218,561,cs),
(250,561,o),
(264,537,o),
(264,498,cs),
(264,97,ls),
(264,40,o),
(292,0,o),
(337,0,cs)
);
}
);
vertWidth = 0;
width = 406;
},
{
anchors = (
{
name = top;
pos = (280,592);
}
);
layerId = "03D26766-37BE-4C80-9191-ECBB7A84F3C2";
shapes = (
{
closed = 1;
nodes = (
(502,-57,o),
(537,-21,o),
(537,35,cs),
(537,90,o),
(501,124,o),
(458,124,cs),
(408,124,o),
(391,81,o),
(391,51,c),
(441,43,l),
(441,462,ls),
(441,566,o),
(362,637,o),
(252,637,cs),
(136,637,o),
(32,542,o),
(32,396,cs),
(32,258,o),
(110,177,o),
(206,177,cs),
(269,177,o),
(308,221,o),
(308,285,cs),
(308,343,o),
(278,382,o),
(229,382,cs),
(183,382,o),
(153,347,o),
(153,297,cs),
(153,274,o),
(156,255,o),
(160,244,c),
(210,269,l),
(198,266,o),
(185,265,o),
(174,265,cs),
(149,265,o),
(134,293,o),
(134,352,cs),
(134,455,o),
(231,522,o),
(284,522,cs),
(317,522,o),
(330,504,o),
(330,467,cs),
(330,84,ls),
(330,3,o),
(372,-57,o),
(444,-57,cs)
);
}
);
vertWidth = 0;
width = 536;
}
);
metricLeft = "seven-beng";
metricRight = "seven-beng";
production = uni0980;
script = bengali;
subCategory = Other;
unicode = 2432;
}
{
category = Letter;
glyphname = "visarga-beng";
layers = (
{
anchors = (
{
name = vedic;
pos = (-184,0);
}
);
layerId = "94EB6DF8-7434-4BE0-9F23-77BCD575F5B8";
shapes = (
{
closed = 1;
nodes = (
(276,377,o),
(328,430,o),
(328,506,cs),
(328,574,o),
(281,624,o),
(210,624,cs),
(136,624,o),
(85,570,o),
(85,497,cs),
(85,429,o),
(129,377,o),
(201,377,cs)
);
},
{
closed = 1;
nodes = (
(143,401,o),
(110,438,o),
(110,491,cs),
(110,550,o),
(151,601,o),
(219,601,cs),
(268,601,o),
(303,566,o),
(303,512,cs),
(303,452,o),
(262,401,o),
(193,401,cs)
);
},
{
closed = 1;
nodes = (
(276,3,o),
(328,56,o),
(328,132,cs),
(328,200,o),
(281,250,o),
(210,250,cs),
(136,250,o),
(85,196,o),
(85,123,cs),
(85,55,o),
(129,3,o),
(201,3,cs)
);
},
{
closed = 1;
nodes = (
(143,27,o),
(110,64,o),
(110,117,cs),
(110,176,o),
(151,227,o),
(219,227,cs),
(268,227,o),
(303,192,o),
(303,138,cs),
(303,78,o),
(262,27,o),
(193,27,cs)
);
}
);
vertWidth = 0;
width = 413;
},
{
anchors = (
{
name = vedic;
pos = (-194,0);
}
);
layerId = "B2542900-2B87-4688-8902-A06B6D3D93DD";
shapes = (
{
closed = 1;
nodes = (
(264,365,o),
(320,419,o),
(320,497,cs),
(320,567,o),
(272,623,o),
(195,623,cs),
(118,623,o),
(63,568,o),
(63,492,cs),
(63,424,o),
(108,365,o),
(186,365,cs)
);
},
{
closed = 1;
nodes = (
(135,414,o),
(116,430,o),
(116,452,cs),
(116,511,o),
(172,569,o),
(230,569,cs),
(255,569,o),
(269,551,o),
(269,531,cs),
(269,480,o),
(212,414,o),
(156,414,cs)
);
},
{
closed = 1;
nodes = (
(264,10,o),
(320,64,o),
(320,141,cs),
(320,212,o),
(272,267,o),
(195,267,cs),
(118,267,o),
(63,213,o),
(63,136,cs),
(63,69,o),
(108,10,o),
(186,10,cs)
);
},
{
closed = 1;
nodes = (
(135,58,o),
(116,74,o),
(116,96,cs),
(116,156,o),
(172,213,o),
(230,213,cs),
(255,213,o),
(269,195,o),
(269,176,cs),
(269,125,o),
(212,58,o),
(156,58,cs)
);
}
);
vertWidth = 0;
width = 383;
},
{
anchors = (
{
name = vedic;
pos = (-248,0);
}
);
layerId = "18A8C34B-6260-4854-BBF8-229863F38B25";
shapes = (
{
closed = 1;
nodes = (
(305,310,o),
(378,376,o),
(378,470,cs),
(378,556,o),
(316,624,o),
(216,624,cs),
(117,624,o),
(45,557,o),
(45,465,cs),
(45,382,o),
(104,310,o),
(204,310,cs)
);
},
{
closed = 1;
nodes = (
(160,398,o),
(146,407,o),
(146,430,cs),
(146,471,o),
(204,537,o),
(246,537,cs),
(269,537,o),
(279,527,o),
(279,511,cs),
(279,470,o),
(225,398,o),
(179,398,cs)
);
},
{
closed = 1;
nodes = (
(303,-42,o),
(374,23,o),
(374,115,cs),
(374,199,o),
(314,266,o),
(216,266,cs),
(119,266,o),
(49,200,o),
(49,110,cs),
(49,29,o),
(106,-42,o),
(205,-42,cs)
);
},
{
closed = 1;
nodes = (
(161,44,o),
(147,53,o),
(147,76,cs),
(147,116,o),
(204,181,o),
(245,181,cs),
(267,181,o),
(278,171,o),
(278,155,cs),
(278,115,o),
(225,44,o),
(180,44,cs)
);
}
);
vertWidth = 0;
width = 423;
},
{
anchors = (
{
name = vedic;
pos = (-136,0);
}
);
layerId = "33F2F8B2-CCE7-4937-A852-9C044B0330C5";
shapes = (
{
closed = 1;
nodes = (
(194,380,o),
(232,433,o),
(232,513,cs),
(232,579,o),
(206,628,o),
(150,628,cs),
(95,628,o),
(58,574,o),
(58,500,cs),
(58,433,o),
(87,380,o),
(142,380,cs)
);
},
{
closed = 1;
nodes = (
(104,404,o),
(81,441,o),
(81,494,cs),
(81,552,o),
(108,604,o),
(151,604,cs),
(186,604,o),
(211,571,o),
(211,517,cs),
(211,456,o),
(182,404,o),
(139,404,cs)
);
},
{
closed = 1;
nodes = (
(194,4,o),
(232,57,o),
(232,137,cs),
(232,203,o),
(206,252,o),
(150,252,cs),
(95,252,o),
(58,198,o),
(58,124,cs),
(58,57,o),
(87,4,o),
(142,4,cs)
);
},
{
closed = 1;
nodes = (
(104,28,o),
(81,65,o),
(81,118,cs),
(81,176,o),
(108,228,o),
(151,228,cs),
(186,228,o),
(211,195,o),
(211,141,cs),
(211,80,o),
(182,28,o),
(139,28,cs)
);
}
);
vertWidth = 0;
width = 290;
},
{
anchors = (
{
name = vedic;
pos = (-167,0);
}
);
layerId = "5278E13D-D735-4789-ABCD-F52B0BBC306E";
shapes = (
{
closed = 1;
nodes = (
(193,365,o),
(236,420,o),
(236,497,cs),
(236,567,o),
(202,623,o),
(140,623,cs),
(82,623,o),
(40,568,o),
(40,492,cs),
(40,421,o),
(76,365,o),
(133,365,cs)
);
},
{
closed = 1;
nodes = (
(104,414,o),
(91,430,o),
(91,461,cs),
(91,510,o),
(124,569,o),
(160,569,cs),
(177,569,o),
(186,550,o),
(186,531,cs),
(186,481,o),
(154,414,o),
(121,414,cs)
);
},
{
closed = 1;
nodes = (
(193,9,o),
(236,64,o),
(236,141,cs),
(236,211,o),
(202,267,o),
(140,267,cs),
(82,267,o),
(40,212,o),
(40,136,cs),
(40,65,o),
(76,9,o),
(133,9,cs)
);
},
{
closed = 1;
nodes = (
(104,58,o),
(91,74,o),
(91,105,cs),
(91,154,o),
(124,213,o),
(160,213,cs),
(177,213,o),
(186,194,o),
(186,175,cs),
(186,125,o),
(154,58,o),
(121,58,cs)
);
}
);
vertWidth = 0;
width = 276;
},
{
anchors = (
{
name = vedic;
pos = (-227,0);
}
);
layerId = "03D26766-37BE-4C80-9191-ECBB7A84F3C2";
shapes = (
{
closed = 1;
nodes = (
(255,314,o),
(314,378,o),
(314,470,cs),
(314,554,o),
(259,621,o),
(181,621,cs),
(100,621,o),
(40,554,o),
(40,464,cs),
(40,383,o),
(96,314,o),
(175,314,cs)
);
},
{
closed = 1;
nodes = (
(135,402,o),
(126,411,o),
(126,430,cs),
(126,474,o),
(183,533,o),
(210,533,cs),
(224,533,o),
(230,523,o),
(230,507,cs),
(230,468,o),
(178,402,o),
(146,402,cs)
);
},
{
closed = 1;
nodes = (
(255,-36,o),
(314,28,o),
(314,120,cs),
(314,204,o),
(259,271,o),
(181,271,cs),
(100,271,o),
(40,204,o),
(40,114,cs),
(40,33,o),
(96,-36,o),
(175,-36,cs)
);
},
{
closed = 1;
nodes = (
(135,52,o),
(126,61,o),
(126,80,cs),
(126,124,o),
(183,183,o),
(210,183,cs),
(224,183,o),
(230,173,o),
(230,157,cs),
(230,118,o),
(178,52,o),
(146,52,cs)
);
}
);
vertWidth = 0;
width = 354;
}
);
production = uni0983;
script = bengali;
subCategory = Other;
unicode = 2435;
}
{
category = Letter;
glyphname = "o-beng";
layers = (
{
anchors = (
{
name = bottom;
pos = (510,41);
},
{
name = bottom.rakaar;
pos = (558,-25);
},
{
name = bottom.rvocalic;
pos = (477,86);
},
{
name = bottom.virama;
pos = (445,31);
},
{
name = top;
pos = (438,602);
},
{
name = topright;
pos = (435,602);
},
{
name = vedic;
pos = (345,0);
}
);
layerId = "94EB6DF8-7434-4BE0-9F23-77BCD575F5B8";
shapes = (
{
closed = 1;
nodes = (
(552,85,o),
(625,146,o),
(625,254,cs),
(625,367,o),
(541,408,o),
(496,408,cs),
(467,408,o),
(447,391,o),
(447,362,cs),
(447,332,o),
(468,317,o),
(496,317,cs),
(543,317,o),
(607,375,o),
(607,486,cs),
(607,569,o),
(553,616,o),
(467,616,cs),
(332,616,o),
(228,506,o),
(228,421,cs),
(228,377,o),
(253,357,o),
(282,357,cs),
(311,357,o),
(330,375,o),
(330,405,cs),
(330,431,o),
(312,451,o),
(285,451,cs),
(269,451,o),
(252,445,o),
(240,416,c),
(253,409,l),
(258,532,o),
(379,595,o),
(469,595,cs),
(545,595,o),
(585,553,o),
(585,489,cs),
(585,432,o),
(564,389,o),
(531,374,c),
(536,364,l),
(572,363,o),
(603,318,o),
(603,256,cs),
(603,153,o),
(528,111,o),
(439,111,cs),
(269,111,o),
(137,248,o),
(59,517,c),
(40,512,l),
(125,207,o),
(276,85,o),
(437,85,cs)
);
}
);
vertWidth = 0;
width = 690;
},
{
anchors = (
{
name = bottom;
pos = (510,39);
},
{
name = bottom.rakaar;
pos = (558,-1);
},
{
name = bottom.rvocalic;
pos = (486,63);
},
{
name = bottom.virama;
pos = (426,19);
},
{
name = top;
pos = (435,570);
},
{
name = topright;
pos = (438,570);
},
{
name = vedic;
pos = (341,0);
}
);
layerId = "B2542900-2B87-4688-8902-A06B6D3D93DD";
shapes = (
{
closed = 1;
nodes = (
(571,55,o),
(638,144,o),
(638,245,cs),
(638,341,o),
(568,416,o),
(476,416,cs),
(430,416,o),
(402,390,o),
(402,348,cs),
(402,306,o),
(428,278,o),
(476,278,cs),
(554,278,o),
(617,392,o),
(617,486,cs),
(617,574,o),
(560,631,o),
(455,631,cs),
(310,631,o),
(188,529,o),
(188,420,cs),
(188,354,o),
(229,322,o),
(275,322,cs),
(321,322,o),
(352,346,o),
(352,396,cs),
(352,436,o),
(328,465,o),
(290,465,cs),
(275,465,o),
(251,460,o),
(236,442,c),
(282,430,l),
(294,512,o),
(375,577,o),
(469,577,cs),
(530,577,o),
(560,549,o),
(560,503,cs),
(560,452,o),
(527,419,o),
(484,390,c),
(499,355,l),
(533,355,o),
(585,328,o),
(585,264,cs),
(585,202,o),
(535,146,o),
(426,146,cs),
(283,146,o),
(142,249,o),
(56,550,c),
(15,538,l),
(94,199,o),
(261,55,o),
(422,55,cs)
);
}
);
vertWidth = 0;
width = 683;
},
{
anchors = (
{
name = bottom;
pos = (580,-21);
},
{
name = bottom.rakaar;
pos = (645,0);
},
{
name = bottom.rvocalic;
pos = (570,5);
},
{
name = bottom.virama;
pos = (508,-4);
},
{
name = top;
pos = (498,493);
},
{
name = topright;
pos = (501,493);
},
{
name = vedic;
pos = (370,0);
}
);
layerId = "18A8C34B-6260-4854-BBF8-229863F38B25";
shapes = (
{
closed = 1;
nodes = (
(602,14,o),
(705,91,o),
(705,215,cs),
(705,350,o),
(562,436,o),
(499,436,cs),
(447,436,o),
(409,397,o),
(409,339,cs),
(409,284,o),
(447,246,o),
(505,246,cs),
(596,246,o),
(674,343,o),
(674,455,cs),
(674,554,o),
(598,629,o),
(464,629,cs),
(307,629,o),
(185,537,o),
(185,417,cs),
(185,342,o),
(233,300,o),
(297,300,cs),
(365,300,o),
(402,342,o),
(402,399,cs),
(402,453,o),
(372,476,o),
(330,476,cs),
(294,476,o),
(274,456,o),
(269,440,c),
(369,406,l),
(365,482,o),
(442,542,o),
(509,542,cs),
(549,542,o),
(562,525,o),
(562,504,cs),
(562,470,o),
(536,423,o),
(486,411,c),
(509,335,l),
(556,337,o),
(614,313,o),
(614,260,cs),
(614,192,o),
(546,162,o),
(452,162,cs),
(275,162,o),
(174,242,o),
(78,520,c),
(13,504,l),
(91,175,o),
(228,14,o),
(457,14,cs)
);
}
);
vertWidth = 0;
width = 740;
},
{
anchors = (
{
name = bottom;
pos = (377,41);
},
{
name = bottom.rakaar;
pos = (411,-25);
},
{
name = bottom.rvocalic;
pos = (354,86);
},
{
name = bottom.virama;
pos = (328,31);
},
{
name = top;
pos = (325,602);
},
{
name = topright;
pos = (324,602);
},
{
name = vedic;
pos = (257,0);
}
);
layerId = "33F2F8B2-CCE7-4937-A852-9C044B0330C5";
shapes = (
{
closed = 1;
nodes = (
(409,85,o),
(460,146,o),
(460,254,cs),
(460,360,o),
(394,408,o),
(356,408,cs),
(334,408,o),
(317,393,o),
(317,365,cs),
(317,338,o),
(334,320,o),
(357,320,cs),
(394,320,o),
(446,387,o),
(446,486,cs),
(446,570,o),
(405,616,o),
(340,616,cs),
(244,616,o),
(170,506,o),
(170,421,cs),
(170,377,o),
(190,357,o),
(214,357,cs),
(238,357,o),
(254,375,o),
(254,405,cs),
(254,431,o),
(240,451,o),
(216,451,cs),
(204,451,o),
(190,444,o),
(182,416,c),
(196,409,l),
(200,532,o),
(279,593,o),
(342,593,cs),
(396,593,o),
(424,552,o),
(424,489,cs),
(424,434,o),
(404,389,o),
(377,374,c),
(386,365,l),
(411,364,o),
(438,317,o),
(438,256,cs),
(438,153,o),
(389,110,o),
(325,110,cs),
(203,110,o),
(112,248,o),
(56,517,c),
(37,512,l),
(97,207,o),
(205,85,o),
(324,85,cs)
);
}
);
vertWidth = 0;
width = 515;
},
{
anchors = (
{
name = bottom;
pos = (396,39);
},
{
name = bottom.rakaar;
pos = (435,-1);
},
{
name = bottom.rvocalic;
pos = (383,63);
},
{
name = bottom.virama;
pos = (340,19);
},
{
name = top;
pos = (341,570);
},
{
name = topright;
pos = (343,570);
},
{
name = vedic;
pos = (266,0);
}
);
layerId = "5278E13D-D735-4789-ABCD-F52B0BBC306E";
shapes = (
{
closed = 1;
nodes = (
(433,55,o),
(486,131,o),
(486,231,cs),
(486,339,o),
(412,416,o),
(359,416,cs),
(325,416,o),
(302,390,o),
(302,348,cs),
(302,306,o),
(324,278,o),
(361,278,cs),
(420,278,o),
(469,393,o),
(469,486,cs),
(469,574,o),
(422,631,o),
(340,631,cs),
(243,631,o),
(148,529,o),
(148,420,cs),
(148,355,o),
(181,323,o),
(220,323,cs),
(256,323,o),
(282,348,o),
(282,398,cs),
(282,433,o),
(262,460,o),
(235,460,cs),
(219,460,o),
(202,455,o),
(194,442,c),
(231,430,l),
(235,512,o),
(290,581,o),
(359,581,cs),
(396,581,o),
(413,549,o),
(413,503,cs),
(413,455,o),
(394,421,o),
(359,390,c),
(373,337,l),
(401,337,o),
(439,308,o),
(439,247,cs),
(439,183,o),
(402,140,o),
(329,140,cs),
(208,140,o),
(125,239,o),
(65,547,c),
(25,538,l),
(82,189,o),
(191,55,o),
(326,55,cs)
);
}
);
vertWidth = 0;
width = 532;
},
{
anchors = (
{
name = bottom;
pos = (505,-17);
},
{
name = bottom.rakaar;
pos = (562,0);
},
{
name = bottom.rvocalic;
pos = (500,8);
},
{
name = bottom.virama;
pos = (445,-3);
},
{
name = top;
pos = (435,498);
},
{
name = topright;
pos = (438,498);
},
{
name = vedic;
pos = (317,0);
}
);
layerId = "03D26766-37BE-4C80-9191-ECBB7A84F3C2";
shapes = (
{
closed = 1;
nodes = (
(516,13,o),
(609,94,o),
(609,216,cs),
(609,349,o),
(479,425,o),
(427,425,cs),
(389,425,o),
(345,406,o),
(345,341,cs),
(345,284,o),
(381,247,o),
(433,247,cs),
(514,247,o),
(581,346,o),
(581,457,cs),
(581,555,o),
(514,629,o),
(395,629,cs),
(253,629,o),
(147,528,o),
(147,420,cs),
(147,343,o),
(190,301,o),
(246,301,cs),
(305,301,o),
(336,342,o),
(336,396,cs),
(336,435,o),
(309,472,o),
(277,472,cs),
(245,472,o),
(229,453,o),
(227,438,c),
(287,403,l),
(301,495,o),
(377,540,o),
(430,540,cs),
(461,540,o),
(478,526,o),
(478,498,cs),
(478,463,o),
(454,413,o),
(411,400,c),
(430,335,l),
(471,337,o),
(523,312,o),
(523,259,cs),
(523,192,o),
(464,162,o),
(387,162,cs),
(260,162,o),
(140,233,o),
(76,552,c),
(10,536,l),
(68,176,o),
(196,13,o),
(393,13,cs)
);
}
);
vertWidth = 0;
width = 634;
}
);
production = uni0993;
script = bengali;
subCategory = Other;
unicode = 2451;
}
{
category = Letter;
glyphname = "au-beng";
layers = (
{
anchors = (
{
name = bottom;
pos = (510,41);
},
{
name = bottom.rakaar;
pos = (558,-25);
},
{
name = bottom.rvocalic;
pos = (477,86);
},
{
name = bottom.virama;
pos = (445,31);
},
{
name = top;
pos = (516,602);
},
{
name = topright;
pos = (472,616);
},
{
name = vedic;
pos = (375,0);
}
);
layerId = "94EB6DF8-7434-4BE0-9F23-77BCD575F5B8";
shapes = (
{
closed = 1;
nodes = (
(639,415,o),
(680,476,o),
(680,562,cs),
(680,691,o),
(592,730,o),
(450,743,cs),
(338,753,o),
(244,764,o),
(244,869,cs),
(244,901,o),
(251,923,o),
(263,944,c),
(244,952,l),
(232,929,o),
(224,903,o),
(224,867,cs),
(224,749,o),
(314,729,o),
(443,720,cs),
(569,711,o),
(658,679,o),
(658,564,cs),
(658,486,o),
(625,432,o),
(566,378,c),
(571,355,l)
);
},
{
ref = "o-beng";
}
);
vertWidth = 0;
width = 750;
},
{
anchors = (
{
name = bottom;
pos = (510,39);
},
{
name = bottom.rakaar;
pos = (558,-1);
},
{
name = bottom.rvocalic;
pos = (486,63);
},
{
name = bottom.virama;
pos = (426,19);
},
{
name = top;
pos = (530,600);
},
{
name = topright;
pos = (474,602);
},
{
name = vedic;
pos = (384,0);
}
);
layerId = "B2542900-2B87-4688-8902-A06B6D3D93DD";
shapes = (
{
closed = 1;
nodes = (
(631,384,o),
(693,458,o),
(693,567,cs),
(693,736,o),
(551,757,o),
(429,774,cs),
(329,788,o),
(240,800,o),
(240,889,cs),
(240,916,o),
(246,944,o),
(256,968,c),
(217,982,l),
(199,944,o),
(191,901,o),
(191,869,cs),
(191,732,o),
(310,714,o),
(426,699,cs),
(539,684,o),
(650,672,o),
(650,557,cs),
(650,476,o),
(608,429,o),
(551,386,c),
(575,334,l)
);
},
{
ref = "o-beng";
}
);
vertWidth = 0;
width = 768;
},
{
anchors = (
{
name = bottom;
pos = (612,-16);
},
{
name = bottom.rakaar;
pos = (679,-1);
},
{
name = bottom.rvocalic;
pos = (599,12);
},
{
name = bottom.virama;
pos = (534,-1);
},
{
name = top;
pos = (643,606);
},
{
name = topright;
pos = (580,596);
},
{
name = vedic;
pos = (413,0);
}
);
layerId = "18A8C34B-6260-4854-BBF8-229863F38B25";
shapes = (
{
closed = 1;
nodes = (
(716,376,o),
(771,451,o),
(771,561,cs),
(771,768,o),
(609,790,o),
(466,810,cs),
(353,826,o),
(253,840,o),
(253,933,cs),
(253,962,o),
(261,995,o),
(276,1025,c),
(206,1047,l),
(182,1000,o),
(167,955,o),
(167,894,cs),
(167,733,o),
(317,707,o),
(457,690,cs),
(581,675,o),
(695,659,o),
(695,545,cs),
(695,482,o),
(672,441,o),
(606,392,c),
(633,300,l)
);
},
{
ref = "o-beng";
}
);
vertWidth = 0;
width = 826;
},
{
anchors = (
{
name = bottom;
pos = (510,41);
},
{
name = bottom.rakaar;
pos = (558,-25);
},
{
name = bottom.rvocalic;
pos = (477,86);
},
{
name = bottom.virama;
pos = (445,31);
},
{
name = top;
pos = (516,602);
},
{
name = topright;
pos = (472,616);
},
{
name = vedic;
pos = (275,0);
}
);
layerId = "33F2F8B2-CCE7-4937-A852-9C044B0330C5";
shapes = (
{
closed = 1;
nodes = (
(451,413,o),
(485,477,o),
(485,565,cs),
(485,691,o),
(416,730,o),
(316,743,cs),
(238,753,o),
(172,763,o),
(172,861,cs),
(172,896,o),
(182,924,o),
(190,945,c),
(171,952,l),
(162,929,o),
(152,899,o),
(152,859,cs),
(152,752,o),
(216,729,o),
(309,720,cs),
(396,712,o),
(463,679,o),
(463,567,cs),
(463,487,o),
(438,433,o),
(396,379,c),
(404,353,l)
);
},
{
ref = "o-beng";
}
);
vertWidth = 0;
width = 550;
},
{
anchors = (
{
name = bottom;
pos = (510,39);
},
{
name = bottom.rakaar;
pos = (558,-1);
},
{
name = bottom.rvocalic;
pos = (486,63);
},
{
name = bottom.virama;
pos = (426,19);
},
{
name = top;
pos = (530,600);
},
{
name = topright;
pos = (474,602);
},
{
name = vedic;
pos = (294,0);
}
);
layerId = "5278E13D-D735-4789-ABCD-F52B0BBC306E";
shapes = (
{
closed = 1;
nodes = (
(489,384,o),
(533,456,o),
(533,571,cs),
(533,727,o),
(440,755,o),
(337,772,cs),
(254,786,o),
(192,798,o),
(192,884,cs),
(192,914,o),
(199,944,o),
(208,968,c),
(172,982,l),
(158,948,o),
(147,907,o),
(147,865,cs),
(147,741,o),
(227,716,o),
(324,701,cs),
(417,687,o),
(492,674,o),
(492,557,cs),
(492,482,o),
(465,435,o),
(425,394,c),
(442,334,l)
);
},
{
ref = "o-beng";
}
);
vertWidth = 0;
width = 588;
},
{
anchors = (
{
name = bottom;
pos = (612,-16);
},
{
name = bottom.rakaar;
pos = (679,-1);
},
{
name = bottom.rvocalic;
pos = (599,12);
},
{
name = bottom.virama;
pos = (534,-1);
},
{
name = top;
pos = (643,606);
},
{
name = topright;
pos = (580,596);
},
{
name = vedic;
pos = (355,0);
}
);
layerId = "03D26766-37BE-4C80-9191-ECBB7A84F3C2";
shapes = (
{
closed = 1;
nodes = (
(618,361,o),
(670,442,o),
(670,564,cs),
(670,735,o),
(537,773,o),
(423,798,cs),
(332,818,o),
(243,838,o),
(243,925,cs),
(243,955,o),
(250,988,o),
(262,1015,c),
(202,1034,l),
(182,985,o),
(169,941,o),
(169,887,cs),
(169,746,o),
(272,702,o),
(403,675,cs),
(514,652,o),
(601,644,o),
(601,551,cs),
(601,490,o),
(582,445,o),
(525,397,c),
(548,290,l)
);
},
{
ref = "o-beng";
}
);
vertWidth = 0;
width = 710;
}
);
metricLeft = "o-beng";
metricRight = "ai-beng";
production = uni0994;
script = bengali;
subCategory = Other;
unicode = 2452;
}
{
category = Letter;
glyphname = "ka-beng";
kernLeft = bnBA;
layers = (
{
anchors = (
{
name = bottom;
pos = (415,11);
},
{
name = bottom.rakaar;
pos = (425,20);
},
{
name = bottom.rvocalic;
pos = (425,6);
},
{
name = bottom.virama;
pos = (425,32);
},
{
name = nukta;
pos = (214,88);
},
{
name = top;
pos = (439,602);
},
{
name = topright;
pos = (428,602);
},
{
name = vedic;
pos = (360,0);
}
);
layerId = "94EB6DF8-7434-4BE0-9F23-77BCD575F5B8";
shapes = (
{
closed = 1;
nodes = (
(425,-2,l),
(425,495,l),
(413,483,l),
(416,485,o),
(421,486,o),
(427,486,cs),
(531,486,o),
(641,404,o),
(641,295,cs),
(641,277,o),
(639,265,o),
(630,256,c),
(641,261,l),
(637,286,o),
(621,301,o),
(597,301,cs),
(568,301,o),
(551,282,o),
(551,255,cs),
(551,225,o),
(573,207,o),
(600,207,cs),
(630,207,o),
(663,224,o),
(663,294,cs),
(663,413,o),
(548,505,o),
(418,513,c),
(425,498,l),
(425,602,l),
(739,602,l),
(725,622,l),
(-19,622,l),
(-5,602,l),
(402,602,l),
(402,498,l),
(412,513,l),
(292,480,o),
(175,411,o),
(54,322,c),
(68,294,l),
(221,245,o),
(330,150,o),
(407,11,c),
(422,-3,l)
);
},
{
closed = 1;
nodes = (
(410,43,l),
(341,168,o),
(229,265,o),
(81,317,c),
(81,309,l),
(207,404,o),
(328,465,o),
(410,486,c),
(402,495,l),
(402,33,l)
);
}
);
vertWidth = 0;
width = 720;
},
{
anchors = (
{
name = bottom;
pos = (426,30);
},
{
name = bottom.rakaar;
pos = (431,70);
},
{
name = bottom.rvocalic;
pos = (431,12);
},
{
name = bottom.virama;
pos = (411,6);
},
{
name = nukta;
pos = (204,68);
},
{
name = top;
pos = (431,570);
},
{
name = topright;
pos = (434,570);
},
{
name = vedic;
pos = (351,0);
}
);
layerId = "B2542900-2B87-4688-8902-A06B6D3D93DD";
shapes = (
{
closed = 1;
nodes = (
(431,-12,l),
(431,452,l),
(416,430,l),
(421,432,o),
(428,433,o),
(433,433,cs),
(560,433,o),
(630,357,o),
(630,285,cs),
(630,270,o),
(626,261,o),
(617,249,c),
(637,250,l),
(626,290,o),
(603,309,o),
(571,309,cs),
(528,309,o),
(506,277,o),
(506,239,cs),
(506,204,o),
(528,166,o),
(582,166,cs),
(642,166,o),
(672,219,o),
(672,290,cs),
(672,403,o),
(571,515,o),
(417,524,c),
(431,500,l),
(431,570,l),
(732,570,l),
(698,622,l),
(-29,622,l),
(5,570,l),
(377,570,l),
(377,500,l),
(383,524,l),
(249,477,o),
(146,427,o),
(25,348,c),
(66,235,l),
(203,217,o),
(307,144,o),
(379,24,c),
(426,-13,l)
);
},
{
closed = 1;
nodes = (
(384,87,l),
(306,231,o),
(189,291,o),
(93,314,c),
(105,290,l),
(187,350,o),
(291,399,o),
(389,434,c),
(377,452,l),
(377,71,l)
);
}
);
vertWidth = 0;
width = 703;
},
{
anchors = (
{
name = bottom;
pos = (481,37);
},
{
name = bottom.rakaar;
pos = (491,-46);
},
{
name = bottom.rvocalic;
pos = (491,11);
},
{
name = bottom.virama;
pos = (491,-34);
},
{
name = nukta;
pos = (234,23);
},
{
name = top;
pos = (456,592);
},
{
name = topright;
pos = (457,572);
},
{
name = vedic;
pos = (386,0);
}
);
layerId = "18A8C34B-6260-4854-BBF8-229863F38B25";
shapes = (
{
closed = 1;
nodes = (
(491,-29,l),
(491,379,l),
(473,353,l),
(480,355,o),
(487,356,o),
(494,356,cs),
(600,356,o),
(687,305,o),
(687,241,cs),
(687,226,o),
(684,214,o),
(675,201,c),
(693,202,l),
(690,250,o),
(660,276,o),
(609,276,cs),
(559,276,o),
(519,244,o),
(519,190,cs),
(519,132,o),
(556,91,o),
(619,91,cs),
(696,91,o),
(749,147,o),
(749,253,cs),
(749,394,o),
(646,496,o),
(476,511,c),
(491,485,l),
(491,536,l),
(812,536,l),
(765,622,l),
(-39,622,l),
(8,536,l),
(376,536,l),
(376,447,l),
(389,514,l),
(251,484,o),
(110,422,o),
(3,354,c),
(68,182,l),
(208,167,o),
(322,116,o),
(394,15,c),
(480,-32,l)
);
},
{
closed = 1;
nodes = (
(395,112,l),
(347,206,o),
(260,263,o),
(177,284,c),
(182,262,l),
(245,299,o),
(330,337,o),
(396,353,c),
(376,401,l),
(376,88,l)
);
}
);
vertWidth = 0;
width = 773;
},
{
anchors = (
{
name = bottom;
pos = (300,11);
},
{
name = bottom.rakaar;
pos = (306,20);
},
{
name = bottom.rvocalic;
pos = (308,6);
},
{
name = bottom.virama;
pos = (304,32);
},
{
name = nukta;
pos = (154,98);
},
{
name = top;
pos = (314,602);
},
{
name = topright;
pos = (308,602);
},
{
name = vedic;
pos = (259,0);
}
);
layerId = "33F2F8B2-CCE7-4937-A852-9C044B0330C5";
shapes = (
{
closed = 1;
nodes = (
(308,-2,l),
(308,496,l),
(296,486,l),
(298,487,o),
(302,488,o),
(307,488,cs),
(368,488,o),
(460,421,o),
(460,306,cs),
(460,282,o),
(454,273,o),
(448,264,c),
(454,269,l),
(451,294,o),
(434,308,o),
(415,308,cs),
(390,308,o),
(376,290,o),
(376,264,cs),
(376,234,o),
(395,216,o),
(421,216,cs),
(448,216,o),
(481,241,o),
(481,305,cs),
(481,433,o),
(380,507,o),
(300,515,c),
(308,501,l),
(308,602,l),
(533,602,l),
(520,622,l),
(-15,622,l),
(-3,602,l),
(286,602,l),
(286,502,l),
(293,516,l),
(206,473,o),
(109,404,o),
(37,338,c),
(54,309,l),
(148,258,o),
(250,149,o),
(291,10,c),
(305,-3,l)
);
},
{
closed = 1;
nodes = (
(296,45,l),
(265,167,o),
(152,281,o),
(64,334,c),
(62,324,l),
(133,395,o),
(231,457,o),
(291,487,c),
(286,499,l),
(286,53,l)
);
}
);
vertWidth = 0;
width = 518;
},
{
anchors = (
{
name = bottom;
pos = (325,30);
},
{
name = bottom.rakaar;
pos = (323,70);
},
{
name = bottom.rvocalic;
pos = (329,8);
},
{
name = bottom.virama;
pos = (320,6);
},
{
name = nukta;
pos = (144,78);
},
{
name = top;
pos = (319,570);
},
{
name = topright;
pos = (321,570);
},
{
name = vedic;
pos = (267,0);
}
);
layerId = "5278E13D-D735-4789-ABCD-F52B0BBC306E";
shapes = (
{
closed = 1;
nodes = (
(329,-12,l),
(329,457,l),
(316,432,l),
(320,433,o),
(324,434,o),
(327,434,cs),
(412,434,o),
(464,362,o),
(464,291,cs),
(464,275,o),
(461,266,o),
(455,255,c),
(474,250,l),
(468,290,o),
(449,307,o),
(419,307,cs),
(383,307,o),
(362,277,o),
(362,239,cs),
(362,204,o),
(382,166,o),
(427,166,cs),
(477,166,o),
(504,220,o),
(504,290,cs),
(504,403,o),
(431,508,o),
(318,518,c),
(329,500,l),
(329,570,l),
(560,570,l),
(532,622,l),
(-25,622,l),
(3,570,l),
(278,570,l),
(278,500,l),
(284,520,l),
(188,473,o),
(104,417,o),
(15,342,c),
(69,235,l),
(171,203,o),
(240,134,o),
(286,17,c),
(323,-13,l)
);
},
{
closed = 1;
nodes = (
(291,74,l),
(258,201,o),
(169,278,o),
(84,308,c),
(90,293,l),
(149,353,o),
(224,395,o),
(286,428,c),
(278,452,l),
(278,78,l)
);
}
);
vertWidth = 0;
width = 535;
},
{
anchors = (
{
name = bottom;
pos = (426,37);
},
{
name = bottom.rakaar;
pos = (430,100);
},
{
name = bottom.rvocalic;
pos = (430,11);
},
{
name = bottom.virama;
pos = (409,0);
},
{
name = nukta;
pos = (190,23);
},
{
name = top;
pos = (389,592);
},
{
name = topright;
pos = (390,572);
},
{
name = vedic;
pos = (331,0);
}
);
layerId = "03D26766-37BE-4C80-9191-ECBB7A84F3C2";
shapes = (
{
closed = 1;
nodes = (
(430,-29,l),
(430,379,l),
(413,353,l),
(419,355,o),
(426,356,o),
(432,356,cs),
(515,356,o),
(588,319,o),
(588,256,cs),
(588,241,o),
(586,229,o),
(578,216,c),
(600,212,l),
(599,260,o),
(571,286,o),
(524,286,cs),
(482,286,o),
(446,254,o),
(446,200,cs),
(446,142,o),
(478,101,o),
(533,101,cs),
(604,101,o),
(652,158,o),
(652,263,cs),
(652,403,o),
(560,496,o),
(416,511,c),
(430,485,l),
(430,536,l),
(697,536,l),
(651,622,l),
(-35,622,l),
(10,536,l),
(319,536,l),
(319,447,l),
(332,514,l),
(216,479,o),
(78,412,o),
(-3,351,c),
(72,178,l),
(175,160,o),
(277,111,o),
(344,12,c),
(419,-32,l)
);
},
{
closed = 1;
nodes = (
(340,108,l),
(306,201,o),
(237,256,o),
(172,282,c),
(174,260,l),
(220,297,o),
(291,328,o),
(340,345,c),
(319,401,l),
(319,108,l)
);
}
);
vertWidth = 0;
width = 662;
}
);
metricLeft = "ba-beng";
metricRight = "ba-beng";
production = uni0995;
script = bengali;
subCategory = Other;
unicode = 2453;
}
{
category = Letter;
glyphname = "ca-beng";
layers = (
{
anchors = (
{
name = bottom;
pos = (290,47);
},
{
name = bottom.rakaar;
pos = (351,0);
},
{
name = bottom.rvocalic;
pos = (271,56);
},
{
name = bottom.virama;
pos = (234,35);
},
{
name = top;
pos = (121,602);
},
{
name = topright;
pos = (124,602);
},
{
name = vedic;
pos = (242,0);
}
);
layerId = "94EB6DF8-7434-4BE0-9F23-77BCD575F5B8";
shapes = (
{
closed = 1;
nodes = (
(317,50,o),
(415,215,o),
(413,354,cs),
(413,373,o),
(398,386,o),
(391,390,c),
(257,399,o),
(173,475,o),
(116,583,c),
(110,562,l),
(157,449,o),
(267,372,o),
(400,363,c),
(389,374,l),
(395,225,o),
(295,74,o),
(195,74,cs),
(150,74,o),
(121,104,o),
(121,144,cs),
(121,602,l),
(503,602,l),
(489,622,l),
(-19,622,l),
(-5,602,l),
(98,602,l),
(98,143,ls),
(98,88,o),
(138,50,o),
(195,50,cs)
);
}
);
vertWidth = 0;
width = 484;
},
{
anchors = (
{
name = bottom;
pos = (320,30);
},
{
name = bottom.rakaar;
pos = (370,0);
},
{
name = bottom.rvocalic;
pos = (316,26);
},
{
name = bottom.virama;
pos = (241,36);
},
{
name = top;
pos = (134,570);
},
{
name = topright;
pos = (137,570);
},
{
name = vedic;
pos = (240,0);
}
);
layerId = "B2542900-2B87-4688-8902-A06B6D3D93DD";
shapes = (
{
closed = 1;
nodes = (
(341,31,o),
(441,213,o),
(441,322,cs),
(441,362,o),
(408,391,o),
(388,403,c),
(310,412,o),
(188,450,o),
(128,563,c),
(129,492,l),
(174,399,o),
(253,339,o),
(378,324,c),
(358,347,l),
(350,217,o),
(268,98,o),
(197,98,cs),
(158,98,o),
(134,117,o),
(134,155,cs),
(134,570,l),
(509,570,l),
(475,622,l),
(-29,622,l),
(7,570,l),
(80,570,l),
(80,155,ls),
(80,81,o),
(134,31,o),
(206,31,cs)
);
}
);
vertWidth = 0;
width = 480;
},
{
anchors = (
{
name = bottom;
pos = (380,-10);
},
{
name = bottom.rakaar;
pos = (470,0);
},
{
name = bottom.rvocalic;
pos = (407,-33);
},
{
name = bottom.virama;
pos = (332,20);
},
{
name = top;
pos = (160,592);
},
{
name = topright;
pos = (161,572);
},
{
name = vedic;
pos = (286,0);
}
);
layerId = "18A8C34B-6260-4854-BBF8-229863F38B25";
shapes = (
{
closed = 1;
nodes = (
(439,-12,o),
(531,182,o),
(531,292,cs),
(531,364,o),
(468,409,o),
(436,424,c),
(347,425,o),
(247,456,o),
(189,547,c),
(186,461,l),
(223,366,o),
(313,289,o),
(437,284,c),
(374,343,l),
(366,199,o),
(289,111,o),
(236,111,cs),
(211,111,o),
(195,125,o),
(195,150,cs),
(195,536,l),
(612,536,l),
(566,622,l),
(-39,622,l),
(10,536,l),
(80,536,l),
(80,150,ls),
(80,60,o),
(172,-12,o),
(259,-12,cs)
);
}
);
vertWidth = 0;
width = 573;
},
{
anchors = (
{
name = bottom;
pos = (216,47);
},
{
name = bottom.rakaar;
pos = (258,0);
},
{
name = bottom.rvocalic;
pos = (205,56);
},
{
name = bottom.virama;
pos = (174,35);
},
{
name = top;
pos = (96,602);
},
{
name = topright;
pos = (98,602);
},
{
name = vedic;
pos = (177,0);
}
);
layerId = "33F2F8B2-CCE7-4937-A852-9C044B0330C5";
shapes = (
{
closed = 1;
nodes = (
(235,50,o),
(305,218,o),
(305,355,cs),
(305,375,o),
(290,388,o),
(285,391,c),
(212,403,o),
(131,466,o),
(89,564,c),
(85,540,l),
(122,438,o),
(214,377,o),
(290,363,c),
(281,374,l),
(284,225,o),
(214,75,o),
(145,75,cs),
(117,75,o),
(96,101,o),
(96,140,cs),
(96,602,l),
(369,602,l),
(356,622,l),
(-15,622,l),
(-2,602,l),
(74,602,l),
(74,139,ls),
(74,85,o),
(104,50,o),
(147,50,cs)
);
}
);
vertWidth = 0;
width = 354;
},
{
anchors = (
{
name = bottom;
pos = (254,30);
},
{
name = bottom.rakaar;
pos = (300,0);
},
{
name = bottom.rvocalic;
pos = (259,26);
},
{
name = bottom.virama;
pos = (206,36);
},
{
name = top;
pos = (108,570);
},
{
name = topright;
pos = (109,570);
},
{
name = vedic;
pos = (186,0);
}
);
layerId = "5278E13D-D735-4789-ABCD-F52B0BBC306E";
shapes = (
{
closed = 1;
nodes = (
(281,31,o),
(342,214,o),
(342,322,cs),
(342,362,o),
(312,391,o),
(293,403,c),
(232,412,o),
(155,453,o),
(114,563,c),
(113,492,l),
(138,403,o),
(202,343,o),
(291,331,c),
(272,351,l),
(266,209,o),
(210,93,o),
(155,93,cs),
(133,93,o),
(118,107,o),
(118,143,cs),
(118,570,l),
(398,570,l),
(370,622,l),
(-25,622,l),
(4,570,l),
(67,570,l),
(67,143,ls),
(67,72,o),
(113,31,o),
(169,31,cs)
);
}
);
vertWidth = 0;
width = 373;
},
{
anchors = (
{
name = bottom;
pos = (326,-10);
},
{
name = bottom.rakaar;
pos = (410,0);
},
{
name = bottom.rvocalic;
pos = (345,-13);
},
{
name = bottom.virama;
pos = (256,20);
},
{
name = top;
pos = (118,592);
},
{
name = topright;
pos = (119,572);
},
{
name = vedic;
pos = (230,0);
}
);
layerId = "03D26766-37BE-4C80-9191-ECBB7A84F3C2";
shapes = (
{
closed = 1;
nodes = (
(368,-12,o),
(442,182,o),
(442,292,cs),
(442,362,o),
(382,408,o),
(348,424,c),
(274,425,o),
(202,456,o),
(152,547,c),
(150,458,l),
(179,363,o),
(246,289,o),
(352,284,c),
(296,343,l),
(287,189,o),
(228,111,o),
(187,111,cs),
(169,111,o),
(157,122,o),
(157,145,cs),
(157,536,l),
(495,536,l),
(451,622,l),
(-35,622,l),
(12,536,l),
(46,536,l),
(46,135,ls),
(46,45,o),
(127,-12,o),
(209,-12,cs)
);
}
);
vertWidth = 0;
width = 460;
}
);
production = uni099A;
script = bengali;
subCategory = Other;
unicode = 2458;
}
{
category = Letter;
glyphname = "nya-beng";
layers = (
{
anchors = (
{
name = bottom;
pos = (533,7);
},
{
name = bottom.rakaar;
pos = (543,46);
},
{
name = bottom.rvocalic;
pos = (543,2);
},
{
name = bottom.virama;
pos = (533,-4);
},
{
name = top;
pos = (482,602);
},
{
name = topright;
pos = (485,602);
},
{
name = vedic;
pos = (438,0);
}
);
layerId = "94EB6DF8-7434-4BE0-9F23-77BCD575F5B8";
shapes = (
{
closed = 1;
nodes = (
(775,94,o),
(812,144,o),
(812,217,cs),
(812,283,o),
(775,325,o),
(748,346,c),
(750,335,l),
(778,363,o),
(807,410,o),
(807,481,cs),
(807,542,o),
(778,596,o),
(714,596,cs),
(615,596,o),
(543,448,o),
(535,379,c),
(535,306,l),
(550,195,o),
(617,94,o),
(705,94,cs)
);
},
{
closed = 1;
nodes = (
(615,120,o),
(548,251,o),
(548,337,cs),
(548,411,o),
(615,570,o),
(716,570,cs),
(760,570,o),
(785,531,o),
(785,484,cs),
(785,424,o),
(761,376,o),
(723,351,c),
(741,352,l),
(719,372,o),
(702,378,o),
(683,378,cs),
(659,378,o),
(640,364,o),
(640,338,cs),
(640,311,o),
(658,299,o),
(684,299,cs),
(707,299,o),
(726,309,o),
(745,329,c),
(726,336,l),
(756,315,o),
(790,284,o),
(790,219,cs),
(790,153,o),
(756,120,o),
(705,120,cs)
);
},
{
ref = "e-beng";
}
);
vertWidth = 0;
width = 877;
},
{
anchors = (
{
name = bottom;
pos = (568,30);
},
{
name = bottom.rakaar;
pos = (754,70);
},
{
name = bottom.rvocalic;
pos = (573,8);
},
{
name = bottom.virama;
pos = (553,6);
},
{
name = top;
pos = (491,570);
},
{
name = topright;
pos = (494,570);
},
{
name = vedic;
pos = (471,0);
}
);
layerId = "B2542900-2B87-4688-8902-A06B6D3D93DD";
shapes = (
{
closed = 1;
nodes = (
(818,55,o),
(867,122,o),
(867,209,cs),
(867,260,o),
(850,310,o),
(807,348,c),
(816,307,l),
(846,338,o),
(864,392,o),
(864,447,cs),
(864,530,o),
(817,597,o),
(743,597,cs),
(639,597,o),
(559,456,o),
(551,380,c),
(551,278,l),
(567,164,o),
(648,55,o),
(736,55,cs)
);
},
{
closed = 1;
nodes = (
(653,136,o),
(581,223,o),
(581,323,cs),
(581,406,o),
(642,520,o),
(739,520,cs),
(787,520,o),
(817,501,o),
(817,461,cs),
(817,411,o),
(788,378,o),
(746,361,c),
(797,350,l),
(777,382,o),
(746,390,o),
(721,390,cs),
(681,390,o),
(653,365,o),
(653,325,cs),
(653,281,o),
(683,257,o),
(725,257,cs),
(764,257,o),
(790,274,o),
(811,302,c),
(778,315,l),
(801,298,o),
(822,266,o),
(822,225,cs),
(822,170,o),
(792,136,o),
(734,136,cs)
);
},
{
ref = "e-beng";
}
);
vertWidth = 0;
width = 942;
},
{
anchors = (
{
name = bottom;
pos = (624,28);
},
{
name = bottom.rakaar;
pos = (633,91);
},
{
name = bottom.rvocalic;
pos = (633,2);
},
{
name = bottom.virama;
pos = (613,11);
},
{
name = top;
pos = (537,592);
},
{
name = topright;
pos = (538,572);
},
{
name = vedic;
pos = (493,0);
}
);
layerId = "18A8C34B-6260-4854-BBF8-229863F38B25";
shapes = (
{
closed = 1;
nodes = (
(892,21,o),
(941,92,o),
(941,175,cs),
(941,235,o),
(915,297,o),
(860,338,c),
(883,286,l),
(913,315,o),
(940,367,o),
(940,439,cs),
(940,535,o),
(887,611,o),
(798,611,cs),
(669,611,o),
(600,462,o),
(591,371,c),
(591,263,l),
(610,131,o),
(678,21,o),
(790,21,cs)
);
},
{
closed = 1;
nodes = (
(704,154,o),
(635,220,o),
(635,312,cs),
(635,400,o),
(701,491,o),
(789,491,cs),
(819,491,o),
(841,476,o),
(841,445,cs),
(841,417,o),
(806,383,o),
(769,368,c),
(832,361,l),
(812,379,o),
(790,400,o),
(752,400,cs),
(703,400,o),
(672,365,o),
(672,313,cs),
(672,258,o),
(708,225,o),
(757,225,cs),
(800,225,o),
(833,242,o),
(862,272,c),
(807,305,l),
(826,286,o),
(856,264,o),
(856,223,cs),
(856,177,o),
(826,154,o),
(778,154,cs)
);
},
{
ref = "e-beng";
}
);
vertWidth = 0;
width = 986;
},
{
anchors = (
{
name = bottom;
pos = (398,7);
},
{
name = bottom.rakaar;
pos = (404,16);
},
{
name = bottom.rvocalic;
pos = (406,2);
},
{
name = bottom.virama;
pos = (402,28);
},
{
name = top;
pos = (354,602);
},
{
name = topright;
pos = (365,602);
},
{
name = vedic;
pos = (326,0);
}
);
layerId = "33F2F8B2-CCE7-4937-A852-9C044B0330C5";
shapes = (
{
closed = 1;
nodes = (
(573,95,o),
(597,146,o),
(597,218,cs),
(597,283,o),
(574,326,o),
(553,347,c),
(555,336,l),
(575,364,o),
(595,412,o),
(595,482,cs),
(595,543,o),
(571,597,o),
(525,597,cs),
(454,597,o),
(402,449,o),
(396,380,c),
(396,307,l),
(407,196,o),
(456,95,o),
(520,95,cs)
);
},
{
closed = 1;
nodes = (
(458,121,o),
(409,251,o),
(409,338,cs),
(409,411,o),
(465,571,o),
(526,571,cs),
(558,571,o),
(575,532,o),
(575,485,cs),
(575,426,o),
(558,377,o),
(530,352,c),
(547,353,l),
(532,373,o),
(517,379,o),
(504,379,cs),
(483,379,o),
(467,365,o),
(467,339,cs),
(467,312,o),
(483,300,o),
(505,300,cs),
(522,300,o),
(537,309,o),
(551,330,c),
(534,337,l),
(556,316,o),
(577,286,o),
(577,220,cs),
(577,154,o),
(555,121,o),
(518,121,cs)
);
},
{
ref = "e-beng";
}
);
vertWidth = 0;
width = 652;
},
{
anchors = (
{
name = bottom;
pos = (425,30);
},
{
name = bottom.rakaar;
pos = (423,70);
},
{
name = bottom.rvocalic;
pos = (429,8);
},
{
name = bottom.virama;
pos = (420,6);
},
{
name = top;
pos = (359,570);
},
{
name = topright;
pos = (361,570);
},
{
name = vedic;
pos = (348,0);
}
);
layerId = "5278E13D-D735-4789-ABCD-F52B0BBC306E";
shapes = (
{
closed = 1;
nodes = (
(611,49,o),
(646,116,o),
(646,203,cs),
(646,253,o),
(632,304,o),
(598,342,c),
(608,301,l),
(630,333,o),
(645,387,o),
(645,441,cs),
(645,523,o),
(610,591,o),
(553,591,cs),
(473,591,o),
(416,450,o),
(410,374,c),
(410,272,l),
(422,158,o),
(480,49,o),
(548,49,cs)
);
},
{
closed = 1;
nodes = (
(488,130,o),
(438,218,o),
(438,317,cs),
(438,400,o),
(483,514,o),
(549,514,cs),
(578,514,o),
(597,495,o),
(597,455,cs),
(597,406,o),
(575,372,o),
(547,355,c),
(586,344,l),
(572,376,o),
(551,384,o),
(531,384,cs),
(500,384,o),
(479,358,o),
(479,319,cs),
(479,275,o),
(503,251,o),
(534,251,cs),
(563,251,o),
(583,268,o),
(600,296,c),
(571,309,l),
(586,292,o),
(604,260,o),
(604,219,cs),
(604,164,o),
(582,130,o),
(544,130,cs)
);
},
{
ref = "e-beng";
}
);
vertWidth = 0;
width = 696;
},
{
anchors = (
{
name = bottom;
pos = (546,28);
},
{
name = bottom.rakaar;
pos = (550,91);
},
{
name = bottom.rvocalic;
pos = (550,-2);
},
{
name = bottom.virama;
pos = (529,11);
},
{
name = top;
pos = (417,591);
},
{
name = topright;
pos = (417,572);
},
{
name = vedic;
pos = (422,0);
}
);
layerId = "03D26766-37BE-4C80-9191-ECBB7A84F3C2";
shapes = (
{
closed = 1;
nodes = (
(776,14,o),
(818,86,o),
(818,168,cs),
(818,225,o),
(798,288,o),
(746,330,c),
(769,278,l),
(793,306,o),
(818,357,o),
(818,431,cs),
(818,527,o),
(770,602,o),
(692,602,cs),
(578,602,o),
(523,454,o),
(515,363,c),
(515,255,l),
(532,124,o),
(586,14,o),
(685,14,cs)
);
},
{
closed = 1;
nodes = (
(613,145,o),
(556,213,o),
(556,304,cs),
(556,392,o),
(610,484,o),
(683,484,cs),
(704,484,o),
(721,468,o),
(721,437,cs),
(721,409,o),
(690,375,o),
(660,360,c),
(719,352,l),
(702,371,o),
(685,392,o),
(649,392,cs),
(605,392,o),
(578,356,o),
(578,305,cs),
(578,251,o),
(610,218,o),
(654,218,cs),
(693,218,o),
(722,235,o),
(748,265,c),
(696,297,l),
(711,278,o),
(736,255,o),
(736,215,cs),
(736,169,o),
(711,145,o),
(673,145,cs)
);
},
{
ref = "e-beng";
}
);
vertWidth = 0;
width = 845;
}
);
metricLeft = "e-beng";
production = uni099E;
script = bengali;
subCategory = Other;
unicode = 2462;
}
{
category = Letter;
glyphname = "na-beng";
layers = (
{
anchors = (
{
name = bottom;
pos = (378,67);
},
{
name = bottom.rakaar;
pos = (393,50);
},
{
name = bottom.rvocalic;
pos = (393,6);
},
{
name = bottom.virama;
pos = (383,0);
},
{
name = top;
pos = (393,602);
},
{
name = topright;
pos = (396,602);
},
{
name = vedic;
pos = (245,0);
}
);
layerId = "94EB6DF8-7434-4BE0-9F23-77BCD575F5B8";
shapes = (
{
closed = 1;
nodes = (
(393,-2,l),
(393,602,l),
(510,602,l),
(496,622,l),
(-19,622,l),
(-5,602,l),
(370,602,l),
(370,232,ls),
(370,192,o),
(373,121,o),
(375,80,c),
(380,80,l),
(375,183,o),
(309,395,o),
(127,395,cs),
(80,395,o),
(48,371,o),
(48,330,cs),
(48,294,o),
(71,272,o),
(106,272,cs),
(141,272,o),
(162,295,o),
(162,327,cs),
(162,351,o),
(153,370,o),
(134,378,c),
(119,361,l),
(124,363,o),
(135,366,o),
(147,366,cs),
(303,366,o),
(371,138,o),
(373,11,c),
(390,-3,l)
);
}
);
vertWidth = 0;
width = 491;
},
{
anchors = (
{
name = bottom;
pos = (434,71);
},
{
name = bottom.rakaar;
pos = (444,70);
},
{
name = bottom.rvocalic;
pos = (444,11);
},
{
name = bottom.virama;
pos = (424,6);
},
{
name = top;
pos = (444,570);
},
{
name = topright;
pos = (447,570);
},
{
name = vedic;
pos = (262,0);
}
);
layerId = "B2542900-2B87-4688-8902-A06B6D3D93DD";
shapes = (
{
closed = 1;
nodes = (
(444,-12,l),
(444,570,l),
(553,570,l),
(519,622,l),
(-29,622,l),
(5,570,l),
(390,570,l),
(390,325,ls),
(390,260,o),
(396,182,o),
(398,147,c),
(406,136,l),
(396,274,o),
(306,421,o),
(160,421,cs),
(87,421,o),
(38,379,o),
(38,312,cs),
(38,252,o),
(71,205,o),
(142,205,cs),
(201,205,o),
(233,241,o),
(233,293,cs),
(233,314,o),
(227,341,o),
(210,353,c),
(186,322,l),
(195,327,o),
(208,329,o),
(221,329,cs),
(322,329,o),
(391,155,o),
(396,21,c),
(439,-13,l)
);
}
);
vertWidth = 0;
width = 524;
},
{
anchors = (
{
name = bottom;
pos = (503,68);
},
{
name = bottom.rakaar;
pos = (517,100);
},
{
name = bottom.rvocalic;
pos = (517,1);
},
{
name = bottom.virama;
pos = (497,20);
},
{
name = top;
pos = (482,592);
},
{
name = topright;
pos = (483,572);
},
{
name = vedic;
pos = (298,0);
}
);
layerId = "18A8C34B-6260-4854-BBF8-229863F38B25";
shapes = (
{
closed = 1;
nodes = (
(517,-33,l),
(517,536,l),
(636,536,l),
(589,622,l),
(-39,622,l),
(8,536,l),
(402,536,l),
(402,384,ls),
(402,322,o),
(410,206,o),
(416,161,c),
(439,184,l),
(408,302,o),
(321,441,o),
(170,441,cs),
(82,441,o),
(18,391,o),
(18,294,cs),
(18,211,o),
(74,151,o),
(159,151,cs),
(241,151,o),
(282,209,o),
(282,271,cs),
(282,300,o),
(270,325,o),
(243,343,c),
(206,253,l),
(217,259,o),
(242,267,o),
(260,267,cs),
(363,267,o),
(410,111,o),
(429,20,c),
(506,-36,l)
);
}
);
vertWidth = 0;
width = 597;
},
{
anchors = (
{
name = bottom;
pos = (267,61);
},
{
name = bottom.rakaar;
pos = (280,20);
},
{
name = bottom.rvocalic;
pos = (282,6);
},
{
name = bottom.virama;
pos = (278,32);
},
{
name = top;
pos = (288,602);
},
{
name = topright;
pos = (282,602);
},
{
name = vedic;
pos = (178,0);
}
);
layerId = "33F2F8B2-CCE7-4937-A852-9C044B0330C5";
shapes = (
{
closed = 1;
nodes = (
(282,-2,l),
(282,602,l),
(371,602,l),
(359,622,l),
(-15,622,l),
(-3,602,l),
(260,602,l),
(260,296,ls),
(260,247,o),
(261,199,o),
(263,150,c),
(266,150,l),
(247,272,o),
(192,395,o),
(87,395,cs),
(49,395,o),
(21,372,o),
(21,331,cs),
(21,295,o),
(42,272,o),
(72,272,cs),
(101,272,o),
(119,295,o),
(119,326,cs),
(119,350,o),
(111,366,o),
(98,374,c),
(84,361,l),
(88,363,o),
(96,366,o),
(105,366,cs),
(209,366,o),
(263,157,o),
(265,10,c),
(279,-3,l)
);
}
);
vertWidth = 0;
width = 356;
},
{
anchors = (
{
name = bottom;
pos = (319,71);
},
{
name = bottom.rakaar;
pos = (329,70);
},
{
name = bottom.rvocalic;
pos = (329,11);
},
{
name = bottom.virama;
pos = (315,6);
},
{
name = top;
pos = (319,570);
},
{
name = topright;
pos = (321,570);
},
{
name = vedic;
pos = (198,0);
}
);
layerId = "5278E13D-D735-4789-ABCD-F52B0BBC306E";
shapes = (
{
closed = 1;
nodes = (
(329,-12,l),
(329,570,l),
(421,570,l),
(393,622,l),
(-25,622,l),
(3,570,l),
(278,570,l),
(278,325,ls),
(278,267,o),
(285,215,o),
(288,180,c),
(293,169,l),
(280,307,o),
(218,421,o),
(117,421,cs),
(60,421,o),
(17,379,o),
(17,312,cs),
(17,256,o),
(47,209,o),
(101,209,cs),
(149,209,o),
(174,246,o),
(174,293,cs),
(174,314,o),
(168,341,o),
(153,353,c),
(133,322,l),
(140,327,o),
(152,329,o),
(163,329,cs),
(235,329,o),
(281,154,o),
(288,20,c),
(324,-13,l)
);
}
);
vertWidth = 0;
width = 396;
},
{
anchors = (
{
name = bottom;
pos = (451,87);
},
{
name = bottom.rakaar;
pos = (470,100);
},
{
name = bottom.rvocalic;
pos = (464,1);
},
{
name = bottom.virama;
pos = (442,20);
},
{
name = top;
pos = (425,592);
},
{
name = topright;
pos = (427,572);
},
{
name = vedic;
pos = (263,0);
}
);
layerId = "03D26766-37BE-4C80-9191-ECBB7A84F3C2";
shapes = (
{
closed = 1;
nodes = (
(464,-33,l),
(464,536,l),
(562,536,l),
(517,622,l),
(-35,622,l),
(10,536,l),
(353,536,l),
(353,384,ls),
(353,331,o),
(358,266,o),
(365,207,c),
(375,211,l),
(351,324,o),
(284,454,o),
(154,454,cs),
(78,454,o),
(18,401,o),
(18,310,cs),
(18,227,o),
(71,167,o),
(148,167,cs),
(225,167,o),
(263,226,o),
(263,284,cs),
(263,312,o),
(252,338,o),
(227,356,c),
(192,252,l),
(202,262,o),
(221,270,o),
(244,270,cs),
(317,270,o),
(358,109,o),
(378,18,c),
(453,-36,l)
);
}
);
vertWidth = 0;
width = 527;
}
);
metricLeft = "ba-beng";
metricRight = "ba-beng";
production = uni09A8;
script = bengali;
subCategory = Other;
unicode = 2472;
}
{
category = Letter;
glyphname = "pha-beng";
layers = (
{
anchors = (
{
name = bottom;
pos = (405,11);
},
{
name = bottom.rakaar;
pos = (415,50);
},
{
name = bottom.rvocalic;
pos = (415,6);
},
{
name = bottom.virama;
pos = (405,0);
},
{
name = top;
pos = (415,602);
},
{
name = topright;
pos = (418,602);
},
{
name = vedic;
pos = (335,0);
}
);
layerId = "94EB6DF8-7434-4BE0-9F23-77BCD575F5B8";
shapes = (
{
closed = 1;
nodes = (
(415,-2,l),
(415,509,l),
(403,494,l),
(407,495,o),
(413,496,o),
(418,496,cs),
(517,496,o),
(606,448,o),
(606,349,cs),
(606,332,o),
(604,307,o),
(593,296,c),
(603,301,l),
(599,326,o),
(583,341,o),
(559,341,cs),
(530,341,o),
(513,322,o),
(513,295,cs),
(513,265,o),
(535,247,o),
(562,247,cs),
(612,247,o),
(629,292,o),
(629,343,cs),
(629,465,o),
(515,521,o),
(416,521,cs),
(405,521,o),
(396,520,o),
(392,519,c),
(392,33,l),
(400,43,l),
(329,158,o),
(220,239,o),
(70,287,c),
(70,279,l),
(134,337,o),
(208,382,o),
(275,418,c),
(242,478,o),
(152,570,o),
(18,610,c),
(24,602,l),
(689,602,l),
(675,622,l),
(-19,622,l),
(5,585,l),
(131,556,o),
(209,479,o),
(253,417,c),
(251,432,l),
(204,410,o),
(116,354,o),
(43,292,c),
(57,264,l),
(212,219,o),
(318,140,o),
(397,11,c),
(412,-3,l)
);
}
);
vertWidth = 0;
width = 670;
},
{
anchors = (
{
name = bottom;
pos = (448,30);
},
{
name = bottom.rakaar;
pos = (453,70);
},
{
name = bottom.rvocalic;
pos = (453,12);
},
{
name = bottom.virama;
pos = (433,6);
},
{
name = top;
pos = (453,570);
},
{
name = topright;
pos = (456,570);
},
{
name = vedic;
pos = (352,0);
}
);
layerId = "B2542900-2B87-4688-8902-A06B6D3D93DD";
shapes = (
{
closed = 1;
nodes = (
(453,-12,l),
(453,475,l),
(419,431,l),
(438,433,o),
(456,434,o),
(472,434,cs),
(590,434,o),
(642,381,o),
(642,315,cs),
(642,300,o),
(638,291,o),
(629,279,c),
(649,280,l),
(638,320,o),
(615,339,o),
(583,339,cs),
(540,339,o),
(518,307,o),
(518,269,cs),
(518,234,o),
(540,196,o),
(594,196,cs),
(654,196,o),
(684,249,o),
(684,320,cs),
(684,448,o),
(569,521,o),
(446,521,cs),
(427,521,o),
(415,520,o),
(399,517,c),
(399,71,l),
(406,87,l),
(333,222,o),
(215,262,o),
(115,294,c),
(127,269,l),
(173,304,o),
(258,347,o),
(316,376,c),
(270,465,o),
(191,537,o),
(69,582,c),
(73,570,l),
(734,570,l),
(700,622,l),
(-29,622,l),
(50,497,l),
(132,485,o),
(191,460,o),
(260,402,c),
(255,444,l),
(188,415,o),
(107,366,o),
(47,328,c),
(88,215,l),
(234,195,o),
(328,141,o),
(401,24,c),
(448,-13,l)
);
}
);
vertWidth = 0;
width = 705;
},
{
anchors = (
{
name = bottom;
pos = (516,37);
},
{
name = bottom.rakaar;
pos = (526,100);
},
{
name = bottom.rvocalic;
pos = (526,11);
},
{
name = bottom.virama;
pos = (506,20);
},
{
name = top;
pos = (491,592);
},
{
name = topright;
pos = (492,572);
},
{
name = vedic;
pos = (382,0);
}
);
layerId = "18A8C34B-6260-4854-BBF8-229863F38B25";
shapes = (
{
closed = 1;
nodes = (
(526,-29,l),
(526,384,l),
(507,365,l),
(526,368,o),
(545,369,o),
(565,369,cs),
(639,369,o),
(697,331,o),
(697,286,cs),
(697,273,o),
(695,262,o),
(687,250,c),
(706,246,l),
(704,289,o),
(677,313,o),
(630,313,cs),
(586,313,o),
(550,285,o),
(550,233,cs),
(550,181,o),
(583,143,o),
(640,143,cs),
(708,143,o),
(756,196,o),
(756,291,cs),
(756,430,o),
(622,512,o),
(483,512,cs),
(453,512,o),
(437,511,o),
(411,508,c),
(411,80,l),
(430,110,l),
(358,224,o),
(249,262,o),
(156,285,c),
(171,203,l),
(237,253,o),
(311,296,o),
(388,338,c),
(336,432,o),
(265,499,o),
(133,564,c),
(128,536,l),
(803,536,l),
(756,622,l),
(-39,622,l),
(55,441,l),
(129,434,o),
(211,415,o),
(243,390,c),
(235,425,l),
(188,409,o),
(82,354,o),
(44,322,c),
(117,167,l),
(242,155,o),
(365,101,o),
(429,15,c),
(515,-32,l)
);
}
);
vertWidth = 0;
width = 764;
},
{
anchors = (
{
name = bottom;
pos = (301,11);
},
{
name = bottom.rakaar;
pos = (307,20);
},
{
name = bottom.rvocalic;
pos = (309,6);
},
{
name = bottom.virama;
pos = (305,32);
},
{
name = top;
pos = (315,602);
},
{
name = topright;
pos = (309,602);
},
{
name = vedic;
pos = (249,0);
}
);
layerId = "33F2F8B2-CCE7-4937-A852-9C044B0330C5";
shapes = (
{
closed = 1;
nodes = (
(309,-2,l),
(309,504,l),
(297,494,l),
(301,495,o),
(308,496,o),
(312,496,cs),
(386,496,o),
(442,448,o),
(442,349,cs),
(442,330,o),
(439,313,o),
(429,302,c),
(435,307,l),
(432,332,o),
(415,346,o),
(396,346,cs),
(371,346,o),
(357,328,o),
(357,302,cs),
(357,272,o),
(376,254,o),
(402,254,cs),
(429,254,o),
(462,279,o),
(462,345,cs),
(462,472,o),
(381,521,o),
(308,521,cs),
(300,521,o),
(291,520,o),
(287,519,c),
(287,53,l),
(297,45,l),
(266,167,o),
(152,256,o),
(64,289,c),
(61,279,l),
(109,335,o),
(163,379,o),
(214,418,c),
(170,506,o),
(90,575,o),
(21,610,c),
(23,602,l),
(514,602,l),
(502,622,l),
(-15,622,l),
(8,586,l),
(88,550,o),
(150,489,o),
(192,417,c),
(193,433,l),
(159,409,o),
(91,353,o),
(37,292,c),
(54,264,l),
(148,233,o),
(251,149,o),
(292,10,c),
(306,-3,l)
);
}
);
vertWidth = 0;
width = 499;
},
{
anchors = (
{
name = bottom;
pos = (330,30);
},
{
name = bottom.rakaar;
pos = (328,70);
},
{
name = bottom.rvocalic;
pos = (334,8);
},
{
name = bottom.virama;
pos = (325,6);
},
{
name = top;
pos = (324,570);
},
{
name = topright;
pos = (326,570);
},
{
name = vedic;
pos = (254,0);
}
);
layerId = "5278E13D-D735-4789-ABCD-F52B0BBC306E";
shapes = (
{
closed = 1;
nodes = (
(334,-12,l),
(334,470,l),
(318,438,l),
(331,440,o),
(345,441,o),
(357,441,cs),
(426,441,o),
(464,398,o),
(464,336,cs),
(464,319,o),
(461,306,o),
(455,295,c),
(474,290,l),
(468,330,o),
(449,347,o),
(419,347,cs),
(383,347,o),
(362,317,o),
(362,279,cs),
(362,244,o),
(382,206,o),
(427,206,cs),
(477,206,o),
(504,258,o),
(504,328,cs),
(504,456,o),
(428,521,o),
(325,521,cs),
(308,521,o),
(297,520,o),
(283,517,c),
(283,78,l),
(296,74,l),
(263,201,o),
(173,268,o),
(88,288,c),
(93,271,l),
(131,306,o),
(187,349,o),
(236,382,c),
(198,469,o),
(150,537,o),
(65,582,c),
(65,570,l),
(534,570,l),
(507,622,l),
(-25,622,l),
(35,506,l),
(90,490,o),
(132,464,o),
(180,407,c),
(173,438,l),
(131,409,o),
(60,359,o),
(20,321,c),
(77,214,l),
(179,192,o),
(245,134,o),
(291,17,c),
(328,-13,l)
);
}
);
vertWidth = 0;
width = 509;
},
{
anchors = (
{
name = bottom;
pos = (454,37);
},
{
name = bottom.rakaar;
pos = (458,100);
},
{
name = bottom.rvocalic;
pos = (458,7);
},
{
name = bottom.virama;
pos = (437,20);
},
{
name = top;
pos = (417,592);
},
{
name = topright;
pos = (418,572);
},
{
name = vedic;
pos = (332,0);
}
);
layerId = "03D26766-37BE-4C80-9191-ECBB7A84F3C2";
shapes = (
{
closed = 1;
nodes = (
(458,-29,l),
(458,392,l),
(446,365,l),
(464,374,o),
(475,376,o),
(494,376,cs),
(560,376,o),
(596,331,o),
(596,286,cs),
(596,272,o),
(594,262,o),
(588,250,c),
(610,246,l),
(609,289,o),
(585,313,o),
(545,313,cs),
(507,313,o),
(472,285,o),
(472,233,cs),
(472,181,o),
(502,143,o),
(553,143,cs),
(612,143,o),
(655,193,o),
(655,287,cs),
(655,427,o),
(550,512,o),
(416,512,cs),
(388,512,o),
(372,511,o),
(347,508,c),
(347,80,l),
(368,108,l),
(334,201,o),
(269,252,o),
(204,278,c),
(197,246,l),
(233,281,o),
(280,310,o),
(339,345,c),
(284,444,o),
(239,499,o),
(145,564,c),
(127,536,l),
(700,536,l),
(655,622,l),
(-35,622,l),
(50,441,l),
(112,433,o),
(180,415,o),
(198,390,c),
(213,426,l),
(175,410,o),
(76,356,o),
(40,328,c),
(106,178,l),
(207,160,o),
(305,111,o),
(372,12,c),
(447,-32,l)
);
}
);
vertWidth = 0;
width = 665;
}
);
metricLeft = "ya-beng";
metricRight = "ka-beng";
production = uni09AB;
script = bengali;
subCategory = Other;
unicode = 2475;
}
{
category = Letter;
glyphname = "ba-beng";
kernLeft = bnBA;
layers = (
{
anchors = (
{
name = bottom;
pos = (415,11);
},
{
name = bottom.rakaar;
pos = (425,50);
},
{
name = bottom.rvocalic;
pos = (425,6);
},
{
name = bottom.virama;
pos = (415,0);
},
{
name = nukta;
pos = (214,88);
},
{
name = top;
pos = (425,602);
},
{
name = topright;
pos = (428,602);
},
{
name = vedic;
pos = (261,0);
}
);
layerId = "94EB6DF8-7434-4BE0-9F23-77BCD575F5B8";
shapes = (
{
closed = 1;
nodes = (
(425,-2,l),
(425,602,l),
(542,602,l),
(528,622,l),
(-19,622,l),
(-5,602,l),
(402,602,l),
(402,498,l),
(412,513,l),
(292,480,o),
(175,411,o),
(54,322,c),
(68,294,l),
(221,245,o),
(330,150,o),
(407,11,c),
(422,-3,l)
);
},
{
closed = 1;
nodes = (
(410,43,l),
(341,168,o),
(229,265,o),
(81,317,c),
(81,309,l),
(208,405,o),
(328,465,o),
(410,486,c),
(402,495,l),
(402,33,l)
);
}
);
vertWidth = 0;
width = 523;
},
{
anchors = (
{
name = bottom;
pos = (426,30);
},
{
name = bottom.rakaar;
pos = (431,70);
},
{
name = bottom.rvocalic;
pos = (431,8);
},
{
name = bottom.virama;
pos = (411,6);
},
{
name = nukta;
pos = (204,68);
},
{
name = top;
pos = (431,570);
},
{
name = topright;
pos = (434,570);
},
{
name = vedic;
pos = (255,0);
}
);
layerId = "B2542900-2B87-4688-8902-A06B6D3D93DD";
shapes = (
{
closed = 1;
nodes = (
(431,-12,l),
(431,570,l),
(540,570,l),
(506,622,l),
(-29,622,l),
(5,570,l),
(377,570,l),
(377,504,l),
(383,524,l),
(249,477,o),
(146,427,o),
(25,348,c),
(66,235,l),
(203,217,o),
(307,144,o),
(379,24,c),
(426,-13,l)
);
},
{
closed = 1;
nodes = (
(384,87,l),
(306,231,o),
(189,291,o),
(93,314,c),
(105,290,l),
(187,350,o),
(291,399,o),
(389,434,c),
(377,452,l),
(377,71,l)
);
}
);
vertWidth = 0;
width = 511;
},
{
anchors = (
{
name = bottom;
pos = (482,37);
},
{
name = bottom.rakaar;
pos = (491,100);
},
{
name = bottom.rvocalic;
pos = (491,11);
},
{
name = bottom.virama;
pos = (471,20);
},
{
name = nukta;
pos = (234,23);
},
{
name = top;
pos = (456,592);
},
{
name = topright;
pos = (457,572);
},
{
name = vedic;
pos = (285,0);
}
);
layerId = "18A8C34B-6260-4854-BBF8-229863F38B25";
shapes = (
{
closed = 1;
nodes = (
(491,-29,l),
(491,536,l),
(610,536,l),
(562,622,l),
(-39,622,l),
(8,536,l),
(376,536,l),
(376,447,l),
(389,514,l),
(251,484,o),
(110,422,o),
(3,354,c),
(68,182,l),
(208,167,o),
(322,116,o),
(394,15,c),
(480,-32,l)
);
},
{
closed = 1;
nodes = (
(395,112,l),
(347,206,o),
(260,263,o),
(177,284,c),
(182,262,l),
(245,299,o),
(330,337,o),
(396,353,c),
(376,401,l),
(376,88,l)
);
}
);
vertWidth = 0;
width = 571;
},
{
anchors = (
{
name = bottom;
pos = (300,11);
},
{
name = bottom.rakaar;
pos = (306,20);
},
{
name = bottom.rvocalic;
pos = (308,6);
},
{
name = bottom.virama;
pos = (304,12);
},
{
name = nukta;
pos = (154,98);
},
{
name = top;
pos = (314,602);
},
{
name = topright;
pos = (308,602);
},
{
name = vedic;
pos = (191,0);
}
);
layerId = "33F2F8B2-CCE7-4937-A852-9C044B0330C5";
shapes = (
{
closed = 1;
nodes = (
(308,-2,l),
(308,602,l),
(397,602,l),
(385,622,l),
(-15,622,l),
(-3,602,l),
(286,602,l),
(286,502,l),
(293,516,l),
(205,473,o),
(109,404,o),
(37,338,c),
(54,309,l),
(148,258,o),
(250,149,o),
(291,10,c),
(305,-3,l)
);
},
{
closed = 1;
nodes = (
(296,45,l),
(265,167,o),
(152,281,o),
(64,334,c),
(62,324,l),
(133,394,o),
(231,457,o),
(291,487,c),
(286,499,l),
(286,53,l)
);
}
);
vertWidth = 0;
width = 382;
},
{
anchors = (
{
name = bottom;
pos = (325,30);
},
{
name = bottom.rakaar;
pos = (323,70);
},
{
name = bottom.rvocalic;
pos = (329,8);
},
{
name = bottom.virama;
pos = (320,6);
},
{
name = nukta;
pos = (144,78);
},
{
name = top;
pos = (319,570);
},
{
name = topright;
pos = (321,570);
},
{
name = vedic;
pos = (198,0);
}
);
layerId = "5278E13D-D735-4789-ABCD-F52B0BBC306E";
shapes = (
{
closed = 1;
nodes = (
(329,-12,l),
(329,570,l),
(421,570,l),
(393,622,l),
(-25,622,l),
(3,570,l),
(278,570,l),
(278,500,l),
(284,520,l),
(188,473,o),
(104,417,o),
(15,342,c),
(69,235,l),
(171,203,o),
(240,134,o),
(286,17,c),
(323,-13,l)
);
},
{
closed = 1;
nodes = (
(291,74,l),
(258,201,o),
(169,278,o),
(84,308,c),
(90,293,l),
(149,353,o),
(224,395,o),
(286,428,c),
(278,452,l),
(278,78,l)
);
}
);
vertWidth = 0;
width = 396;
},
{
anchors = (
{
name = bottom;
pos = (421,37);
},
{
name = bottom.rakaar;
pos = (425,100);
},
{
name = bottom.rvocalic;
pos = (425,7);
},
{
name = bottom.virama;
pos = (404,20);
},
{
name = nukta;
pos = (190,23);
},
{
name = top;
pos = (384,592);
},
{
name = topright;
pos = (385,572);
},
{
name = vedic;
pos = (235,0);
}
);
layerId = "03D26766-37BE-4C80-9191-ECBB7A84F3C2";
shapes = (
{
closed = 1;
nodes = (
(425,-29,l),
(425,536,l),
(506,536,l),
(460,622,l),
(-35,622,l),
(10,536,l),
(314,536,l),
(314,447,l),
(327,514,l),
(211,479,o),
(73,412,o),
(-8,351,c),
(67,178,l),
(170,160,o),
(272,111,o),
(339,12,c),
(414,-32,l)
);
},
{
closed = 1;
nodes = (
(335,108,l),
(301,201,o),
(232,256,o),
(167,282,c),
(169,260,l),
(215,297,o),
(286,328,o),
(335,345,c),
(314,401,l),
(314,108,l)
);
}
);
vertWidth = 0;
width = 471;
}
);
production = uni09AC;
script = bengali;
subCategory = Other;
unicode = 2476;
}
{
category = Letter;
glyphname = "ma-beng";
layers = (
{
anchors = (
{
name = bottom;
pos = (403,23);
},
{
name = bottom.rakaar;
pos = (414,50);
},
{
name = bottom.rvocalic;
pos = (414,6);
},
{
name = bottom.virama;
pos = (404,0);
},
{
name = top;
pos = (414,602);
},
{
name = topright;
pos = (417,602);
},
{
name = vedic;
pos = (256,0);
}
);
layerId = "94EB6DF8-7434-4BE0-9F23-77BCD575F5B8";
shapes = (
{
closed = 1;
nodes = (
(414,-2,l),
(414,602,l),
(531,602,l),
(517,622,l),
(-19,622,l),
(-5,602,l),
(47,602,l),
(42,617,l),
(33,595,o),
(28,574,o),
(28,554,cs),
(28,497,o),
(62,468,o),
(129,447,cs),
(207,423,o),
(228,389,o),
(228,325,cs),
(228,303,o),
(222,290,o),
(212,281,c),
(231,297,l),
(220,304,o),
(196,311,o),
(177,311,cs),
(137,311,o),
(116,288,o),
(116,253,cs),
(116,217,o),
(142,196,o),
(174,196,cs),
(207,196,o),
(232,211,o),
(246,265,c),
(230,264,l),
(277,261,o),
(366,166,o),
(396,11,c),
(411,-3,l)
);
},
{
closed = 1;
nodes = (
(398,67,l),
(372,171,o),
(307,266,o),
(242,291,c),
(247,273,l),
(250,292,o),
(251,303,o),
(251,318,cs),
(251,378,o),
(240,435,o),
(140,468,cs),
(82,487,o),
(50,504,o),
(50,556,cs),
(50,573,o),
(54,591,o),
(63,611,c),
(53,602,l),
(391,602,l),
(391,262,ls),
(391,205,o),
(391,124,o),
(395,67,c)
);
}
);
vertWidth = 0;
width = 512;
},
{
anchors = (
{
name = bottom;
pos = (459,30);
},
{
name = bottom.rakaar;
pos = (464,70);
},
{
name = bottom.rvocalic;
pos = (464,12);
},
{
name = bottom.virama;
pos = (444,6);
},
{
name = top;
pos = (464,570);
},
{
name = topright;
pos = (467,570);
},
{
name = vedic;
pos = (272,0);
}
);
layerId = "B2542900-2B87-4688-8902-A06B6D3D93DD";
shapes = (
{
closed = 1;
nodes = (
(464,-12,l),
(464,570,l),
(573,570,l),
(539,622,l),
(-29,622,l),
(5,570,l),
(38,570,l),
(30,596,l),
(25,590,o),
(21,574,o),
(21,559,cs),
(21,515,o),
(46,488,o),
(126,457,cs),
(206,426,o),
(218,393,o),
(218,352,cs),
(218,329,o),
(206,306,o),
(194,295,c),
(267,321,l),
(245,333,o),
(221,341,o),
(190,341,cs),
(120,341,o),
(84,302,o),
(84,245,cs),
(84,188,o),
(126,153,o),
(179,153,cs),
(242,153,o),
(271,192,o),
(288,239,c),
(270,235,l),
(320,217,o),
(369,148,o),
(412,24,c),
(459,-13,l)
);
},
{
closed = 1;
nodes = (
(422,80,l),
(394,213,o),
(334,286,o),
(280,317,c),
(291,274,l),
(297,296,o),
(298,314,o),
(298,331,cs),
(298,400,o),
(261,435,o),
(182,480,cs),
(131,509,o),
(116,540,o),
(116,567,cs),
(116,573,o),
(117,580,o),
(119,587,c),
(95,570,l),
(410,570,l),
(410,277,ls),
(410,230,o),
(412,121,o),
(415,64,c)
);
}
);
vertWidth = 0;
width = 544;
},
{
anchors = (
{
name = bottom;
pos = (523,37);
},
{
name = bottom.rakaar;
pos = (533,100);
},
{
name = bottom.rvocalic;
pos = (533,11);
},
{
name = bottom.virama;
pos = (513,20);
},
{
name = top;
pos = (498,592);
},
{
name = topright;
pos = (499,572);
},
{
name = vedic;
pos = (306,0);
}
);
layerId = "18A8C34B-6260-4854-BBF8-229863F38B25";
shapes = (
{
closed = 1;
nodes = (
(533,-29,l),
(533,536,l),
(652,536,l),
(604,622,l),
(-39,622,l),
(8,536,l),
(41,536,l),
(19,577,l),
(15,566,o),
(13,542,o),
(13,535,cs),
(13,481,o),
(58,451,o),
(138,428,cs),
(185,414,o),
(209,401,o),
(209,365,cs),
(209,328,o),
(178,307,o),
(160,299,c),
(298,319,l),
(274,327,o),
(250,336,o),
(215,336,cs),
(130,336,o),
(85,293,o),
(85,224,cs),
(85,149,o),
(137,102,o),
(208,102,cs),
(277,102,o),
(318,148,o),
(337,210,c),
(290,189,l),
(372,173,o),
(401,106,o),
(436,14,c),
(522,-32,l)
);
},
{
closed = 1;
nodes = (
(450,101,l),
(418,211,o),
(384,277,o),
(318,311,c),
(348,238,l),
(356,268,o),
(356,288,o),
(356,311,cs),
(356,383,o),
(325,425,o),
(266,452,cs),
(222,472,o),
(192,491,o),
(192,526,cs),
(192,542,o),
(197,556,o),
(206,565,c),
(119,536,l),
(418,536,l),
(418,309,ls),
(418,249,o),
(428,135,o),
(431,75,c)
);
}
);
vertWidth = 0;
width = 613;
},
{
anchors = (
{
name = bottom;
pos = (293,61);
},
{
name = bottom.rakaar;
pos = (306,20);
},
{
name = bottom.rvocalic;
pos = (308,6);
},
{
name = bottom.virama;
pos = (304,32);
},
{
name = top;
pos = (314,602);
},
{
name = topright;
pos = (308,602);
},
{
name = vedic;
pos = (191,0);
}
);
layerId = "33F2F8B2-CCE7-4937-A852-9C044B0330C5";
shapes = (
{
closed = 1;
nodes = (
(308,-2,l),
(308,602,l),
(397,602,l),
(385,622,l),
(-15,622,l),
(-3,602,l),
(42,602,l),
(42,614,l),
(29,595,o),
(22,573,o),
(22,550,cs),
(22,487,o),
(57,468,o),
(93,449,cs),
(131,429,o),
(171,409,o),
(171,333,cs),
(171,303,o),
(163,290,o),
(156,281,c),
(174,297,l),
(165,304,o),
(146,310,o),
(131,310,cs),
(99,310,o),
(80,289,o),
(80,255,cs),
(80,218,o),
(101,197,o),
(130,197,cs),
(154,197,o),
(176,214,o),
(187,265,c),
(174,264,l),
(262,229,o),
(289,95,o),
(291,10,c),
(305,-3,l)
);
},
{
closed = 1;
nodes = (
(294,110,l),
(281,196,o),
(234,267,o),
(182,291,c),
(189,273,l),
(192,290,o),
(194,303,o),
(194,320,cs),
(194,419,o),
(148,442,o),
(107,465,cs),
(74,484,o),
(44,499,o),
(44,548,cs),
(44,573,o),
(52,591,o),
(64,611,c),
(52,602,l),
(286,602,l),
(286,256,ls),
(286,207,o),
(287,159,o),
(289,110,c)
);
}
);
vertWidth = 0;
width = 382;
},
{
anchors = (
{
name = bottom;
pos = (349,71);
},
{
name = bottom.rakaar;
pos = (359,70);
},
{
name = bottom.rvocalic;
pos = (359,11);
},
{
name = bottom.virama;
pos = (345,6);
},
{
name = top;
pos = (349,570);
},
{
name = topright;
pos = (351,570);
},
{
name = vedic;
pos = (213,0);
}
);
layerId = "5278E13D-D735-4789-ABCD-F52B0BBC306E";
shapes = (
{
closed = 1;
nodes = (
(359,-12,l),
(359,570,l),
(451,570,l),
(423,622,l),
(-25,622,l),
(3,570,l),
(53,570,l),
(33,596,l),
(29,590,o),
(27,572,o),
(27,559,cs),
(27,516,o),
(49,487,o),
(108,451,cs),
(153,424,o),
(175,395,o),
(175,350,cs),
(175,328,o),
(161,304,o),
(151,293,c),
(212,319,l),
(196,331,o),
(181,339,o),
(157,339,cs),
(103,339,o),
(71,305,o),
(71,249,cs),
(71,191,o),
(104,157,o),
(148,157,cs),
(197,157,o),
(219,194,o),
(232,241,c),
(195,241,l),
(267,236,o),
(301,154,o),
(318,20,c),
(354,-13,l)
);
},
{
closed = 1;
nodes = (
(326,129,l),
(307,249,o),
(260,288,o),
(223,312,c),
(236,270,l),
(241,291,o),
(242,308,o),
(242,327,cs),
(242,400,o),
(207,430,o),
(176,454,cs),
(145,477,o),
(117,503,o),
(117,567,cs),
(117,573,o),
(119,580,o),
(123,587,c),
(87,570,l),
(308,570,l),
(308,325,ls),
(308,267,o),
(311,209,o),
(319,133,c)
);
}
);
vertWidth = 0;
width = 426;
},
{
anchors = (
{
name = bottom;
pos = (453,87);
},
{
name = bottom.rakaar;
pos = (472,100);
},
{
name = bottom.rvocalic;
pos = (466,1);
},
{
name = bottom.virama;
pos = (444,20);
},
{
name = top;
pos = (427,592);
},
{
name = topright;
pos = (429,572);
},
{
name = vedic;
pos = (264,0);
}
);
layerId = "03D26766-37BE-4C80-9191-ECBB7A84F3C2";
shapes = (
{
closed = 1;
nodes = (
(466,-33,l),
(466,536,l),
(564,536,l),
(519,622,l),
(-35,622,l),
(10,536,l),
(28,536,l),
(8,577,l),
(6,566,o),
(6,542,o),
(6,535,cs),
(6,486,o),
(37,455,o),
(115,428,cs),
(153,415,o),
(190,391,o),
(190,355,cs),
(190,319,o),
(175,297,o),
(159,280,c),
(260,319,l),
(238,327,o),
(218,336,o),
(186,336,cs),
(108,337,o),
(68,290,o),
(68,221,cs),
(68,149,o),
(119,106,o),
(181,105,cs),
(252,104,o),
(282,148,o),
(299,213,c),
(257,197,l),
(334,180,o),
(367,78,o),
(380,18,c),
(455,-36,l)
);
},
{
closed = 1;
nodes = (
(380,161,l),
(365,234,o),
(319,287,o),
(279,311,c),
(297,241,l),
(306,271,o),
(309,290,o),
(309,314,cs),
(309,380,o),
(285,423,o),
(244,452,cs),
(209,477,o),
(185,496,o),
(184,526,cs),
(184,541,o),
(188,556,o),
(196,565,c),
(107,536,l),
(355,536,l),
(355,354,ls),
(355,291,o),
(360,216,o),
(370,157,c)
);
}
);
vertWidth = 0;
width = 529;
}
);
metricLeft = "na-beng";
metricRight = "na-beng";
production = uni09AE;
script = bengali;
subCategory = Other;
unicode = 2478;
}
{
category = Letter;
glyphname = "ha-beng";
layers = (
{
anchors = (
{
name = bottom;
pos = (270,97);
},
{
name = bottom.rakaar;
pos = (382,-100);
},
{
name = bottom.rvocalic;
pos = (306,105);
},
{
name = bottom.virama;
pos = (236,90);
},
{
name = top;
pos = (239,602);
},
{
name = topright;
pos = (242,602);
},
{
name = vedic;
pos = (236,0);
}
);
layerId = "94EB6DF8-7434-4BE0-9F23-77BCD575F5B8";
shapes = (
{
closed = 1;
nodes = (
(465,-25,l),
(402,53,o),
(281,159,o),
(106,210,c),
(112,201,l),
(142,196,o),
(170,193,o),
(196,193,cs),
(324,193,o),
(401,255,o),
(401,356,cs),
(401,453,o),
(336,510,o),
(219,510,cs),
(137,510,o),
(104,490,o),
(104,448,cs),
(104,413,o),
(127,396,o),
(156,396,cs),
(197,396,o),
(213,425,o),
(213,462,cs),
(213,507,o),
(184,564,o),
(124,606,c),
(82,606,l),
(139,578,o),
(175,541,o),
(190,487,c),
(183,471,l),
(198,480,o),
(213,485,o),
(235,485,cs),
(329,485,o),
(378,440,o),
(378,361,cs),
(378,257,o),
(296,218,o),
(200,218,cs),
(137,218,o),
(104,227,o),
(70,242,c),
(87,189,l),
(233,157,o),
(382,49,o),
(451,-41,c)
);
},
{
closed = 1;
nodes = (
(492,602,l),
(478,622,l),
(-19,622,l),
(-5,602,l)
);
}
);
vertWidth = 0;
width = 473;
},
{
anchors = (
{
name = bottom;
pos = (265,90);
},
{
name = bottom.rakaar;
pos = (385,-59);
},
{
name = bottom.rvocalic;
pos = (320,90);
},
{
name = bottom.virama;
pos = (244,90);
},
{
name = top;
pos = (239,570);
},
{
name = topright;
pos = (210,570);
},
{
name = vedic;
pos = (233,0);
}
);
layerId = "B2542900-2B87-4688-8902-A06B6D3D93DD";
shapes = (
{
closed = 1;
nodes = (
(491,-12,l),
(405,70,o),
(297,159,o),
(183,184,c),
(126,165,l),
(148,152,o),
(186,148,o),
(219,148,cs),
(331,148,o),
(419,216,o),
(419,335,cs),
(419,431,o),
(360,508,o),
(201,508,cs),
(110,508,o),
(57,477,o),
(57,416,cs),
(57,365,o),
(91,331,o),
(146,331,cs),
(208,331,o),
(234,378,o),
(234,434,cs),
(234,484,o),
(203,544,o),
(165,578,c),
(72,578,l),
(120,558,o),
(165,521,o),
(178,468,c),
(168,408,l),
(187,427,o),
(221,444,o),
(256,444,cs),
(335,444,o),
(365,400,o),
(365,347,cs),
(365,274,o),
(307,227,o),
(197,227,cs),
(137,227,o),
(87,234,o),
(36,251,c),
(56,153,l),
(223,128,o),
(319,78,o),
(460,-45,c)
);
},
{
closed = 1;
nodes = (
(495,570,l),
(461,622,l),
(-29,622,l),
(5,570,l)
);
}
);
vertWidth = 0;
width = 466;
},
{
anchors = (
{
name = bottom;
pos = (330,25);
},
{
name = bottom.rakaar;
pos = (463,-100);
},
{
name = bottom.rvocalic;
pos = (423,18);
},
{
name = bottom.virama;
pos = (323,30);
},
{
name = top;
pos = (277,592);
},
{
name = topright;
pos = (278,572);
},
{
name = vedic;
pos = (269,0);
}
);
layerId = "18A8C34B-6260-4854-BBF8-229863F38B25";
shapes = (
{
closed = 1;
nodes = (
(577,-81,l),
(472,28,o),
(339,118,o),
(206,145,c),
(164,105,l),
(183,94,o),
(211,87,o),
(243,87,cs),
(423,87,o),
(510,164,o),
(510,282,cs),
(510,423,o),
(391,494,o),
(220,494,cs),
(121,494,o),
(62,445,o),
(62,372,cs),
(62,294,o),
(119,262,o),
(181,262,cs),
(248,262,o),
(297,306,o),
(297,384,cs),
(297,463,o),
(243,529,o),
(209,543,c),
(33,543,l),
(110,529,o),
(163,504,o),
(212,457,c),
(212,359,l),
(229,378,o),
(265,405,o),
(292,405,cs),
(348,405,o),
(386,382,o),
(386,329,cs),
(386,259,o),
(312,219,o),
(214,219,cs),
(151,219,o),
(96,234,o),
(49,263,c),
(87,66,l),
(220,38,o),
(358,9,o),
(534,-127,c)
);
},
{
closed = 1;
nodes = (
(577,536,l),
(527,622,l),
(-39,622,l),
(8,536,l)
);
}
);
vertWidth = 0;
width = 538;
},
{
anchors = (
{
name = bottom;
pos = (194,104);
},
{
name = bottom.rakaar;
pos = (274,-100);
},
{
name = bottom.rvocalic;
pos = (222,106);
},
{
name = bottom.virama;
pos = (171,90);
},
{
name = top;
pos = (172,602);
},
{
name = topright;
pos = (171,602);
},
{
name = vedic;
pos = (167,0);
}
);
layerId = "33F2F8B2-CCE7-4937-A852-9C044B0330C5";
shapes = (
{
closed = 1;
nodes = (
(336,-25,l),
(289,53,o),
(202,163,o),
(94,213,c),
(95,205,l),
(115,201,o),
(125,200,o),
(141,200,cs),
(224,200,o),
(290,258,o),
(290,362,cs),
(290,455,o),
(240,510,o),
(156,510,cs),
(93,510,o),
(65,487,o),
(65,447,cs),
(65,412,o),
(87,396,o),
(112,396,cs),
(148,396,o),
(162,426,o),
(162,462,cs),
(162,509,o),
(136,568,o),
(93,606,c),
(57,606,l),
(99,578,o),
(128,541,o),
(139,487,c),
(127,471,l),
(141,480,o),
(155,484,o),
(172,484,cs),
(227,484,o),
(268,442,o),
(268,367,cs),
(268,263,o),
(205,224,o),
(138,224,cs),
(100,224,o),
(70,234,o),
(48,249,c),
(61,196,l),
(171,160,o),
(256,65,o),
(323,-38,c)
);
},
{
closed = 1;
nodes = (
(349,602,l),
(337,622,l),
(-15,622,l),
(-3,602,l)
);
}
);
vertWidth = 0;
width = 334;
},
{
anchors = (
{
name = bottom;
pos = (202,90);
},
{
name = bottom.rakaar;
pos = (291,-59);
},
{
name = bottom.rvocalic;
pos = (252,90);
},
{
name = bottom.virama;
pos = (191,90);
},
{
name = top;
pos = (176,570);
},
{
name = topright;
pos = (164,570);
},
{
name = vedic;
pos = (178,0);
}
);
layerId = "5278E13D-D735-4789-ABCD-F52B0BBC306E";
shapes = (
{
closed = 1;
nodes = (
(368,-12,l),
(302,70,o),
(218,163,o),
(133,189,c),
(96,167,l),
(114,159,o),
(136,158,o),
(158,158,cs),
(245,158,o),
(320,220,o),
(320,333,cs),
(320,434,o),
(266,508,o),
(144,508,cs),
(76,508,o),
(36,474,o),
(36,414,cs),
(36,363,o),
(64,331,o),
(108,331,cs),
(160,331,o),
(183,376,o),
(183,432,cs),
(183,483,o),
(151,544,o),
(125,578,c),
(37,578,l),
(79,558,o),
(113,520,o),
(132,468,c),
(128,408,l),
(142,429,o),
(169,444,o),
(190,444,cs),
(239,444,o),
(267,404,o),
(267,350,cs),
(267,269,o),
(212,229,o),
(130,229,cs),
(86,229,o),
(50,238,o),
(25,254,c),
(45,159,l),
(154,134,o),
(233,77,o),
(343,-45,c)
);
},
{
closed = 1;
nodes = (
(382,570,l),
(354,622,l),
(-25,622,l),
(3,570,l)
);
}
);
vertWidth = 0;
width = 357;
},
{
anchors = (
{
name = bottom;
pos = (286,35);
},
{
name = bottom.rakaar;
pos = (403,-100);
},
{
name = bottom.rvocalic;
pos = (375,18);
},
{
name = bottom.virama;
pos = (284,30);
},
{
name = top;
pos = (235,592);
},
{
name = topright;
pos = (240,572);
},
{
name = vedic;
pos = (234,0);
}
);
layerId = "03D26766-37BE-4C80-9191-ECBB7A84F3C2";
shapes = (
{
closed = 1;
nodes = (
(504,-81,l),
(408,28,o),
(290,123,o),
(178,150,c),
(139,110,l),
(153,99,o),
(180,95,o),
(208,95,cs),
(378,95,o),
(446,178,o),
(446,290,cs),
(446,432,o),
(339,494,o),
(189,494,cs),
(102,494,o),
(42,447,o),
(42,374,cs),
(42,305,o),
(91,262,o),
(155,262,cs),
(217,262,o),
(264,306,o),
(264,384,cs),
(264,462,o),
(209,529,o),
(183,543,c),
(10,543,l),
(81,529,o),
(128,503,o),
(177,457,c),
(180,359,l),
(194,378,o),
(225,402,o),
(258,402,cs),
(298,402,o),
(330,377,o),
(330,323,cs),
(330,249,o),
(274,214,o),
(182,214,cs),
(122,214,o),
(75,228,o),
(33,258,c),
(69,77,l),
(176,49,o),
(304,8,o),
(462,-127,c)
);
},
{
closed = 1;
nodes = (
(500,536,l),
(452,622,l),
(-35,622,l),
(10,536,l)
);
}
);
vertWidth = 0;
width = 469;
}
);
metricLeft = "aaMatra-beng";
metricRight = "aaMatra-beng";
production = uni09B9;
script = bengali;
subCategory = Other;
unicode = 2489;
}
{
category = Mark;
glyphname = "nukta-beng";
layers = (
{
anchors = (
{
name = _nukta;
pos = (0,-105);
}
);
layerId = "94EB6DF8-7434-4BE0-9F23-77BCD575F5B8";
shapes = (
{
closed = 1;
nodes = (
(23,-144,o),
(42,-128,o),
(42,-104,cs),
(42,-79,o),
(23,-63,o),
(0,-63,cs),
(-23,-63,o),
(-42,-79,o),
(-42,-104,cs),
(-42,-128,o),
(-23,-144,o),
(0,-144,cs)
);
}
);
vertWidth = 0;
width = 0;
},
{
anchors = (
{
name = _nukta;
pos = (0,-125);
}
);
layerId = "B2542900-2B87-4688-8902-A06B6D3D93DD";
shapes = (
{
closed = 1;
nodes = (
(33,-186,o),
(62,-162,o),
(62,-125,cs),
(62,-88,o),
(34,-63,o),
(0,-63,cs),
(-36,-63,o),
(-64,-88,o),
(-64,-125,cs),
(-64,-161,o),
(-35,-186,o),
(0,-186,cs)
);
}
);
vertWidth = 0;
width = 0;
},
{
anchors = (
{
name = _nukta;
pos = (0,-137);
}
);
layerId = "18A8C34B-6260-4854-BBF8-229863F38B25";
shapes = (
{
closed = 1;
nodes = (
(45,-220,o),
(84,-188,o),
(84,-137,cs),
(84,-87,o),
(46,-53,o),
(0,-53,cs),
(-47,-53,o),
(-85,-87,o),
(-85,-137,cs),
(-85,-186,o),
(-46,-220,o),
(0,-220,cs)
);
}
);
vertWidth = 0;
width = 0;
},
{
anchors = (
{
name = _nukta;
pos = (0,-105);
}
);
layerId = "33F2F8B2-CCE7-4937-A852-9C044B0330C5";
shapes = (
{
closed = 1;
nodes = (
(19,-144,o),
(36,-128,o),
(36,-104,cs),
(36,-79,o),
(19,-63,o),
(0,-63,cs),
(-20,-63,o),
(-37,-79,o),
(-37,-104,cs),
(-37,-128,o),
(-20,-144,o),
(0,-144,cs)
);
}
);
vertWidth = 0;
width = 0;
},
{
anchors = (
{
name = _nukta;
pos = (0,-125);
}
);
layerId = "5278E13D-D735-4789-ABCD-F52B0BBC306E";
shapes = (
{
closed = 1;
nodes = (
(31,-184,o),
(51,-161,o),
(51,-125,cs),
(51,-88,o),
(31,-65,o),
(0,-65,cs),
(-33,-65,o),
(-53,-88,o),
(-53,-125,cs),
(-53,-161,o),
(-33,-184,o),
(0,-184,cs)
);
}
);
vertWidth = 0;
width = 0;
},
{
anchors = (
{
name = _nukta;
pos = (0,-137);
}
);
layerId = "03D26766-37BE-4C80-9191-ECBB7A84F3C2";
shapes = (
{
closed = 1;
nodes = (
(44,-215,o),
(71,-185,o),
(71,-137,cs),
(71,-88,o),
(44,-58,o),
(0,-58,cs),
(-45,-58,o),
(-73,-88,o),
(-73,-137,cs),
(-73,-185,o),
(-45,-215,o),
(0,-215,cs)
);
}
);
vertWidth = 0;
width = 0;
}
);
production = uni09BC;
script = bengali;
subCategory = Nonspacing;
unicode = 2492;
}
{
category = Letter;
glyphname = "iiMatra-beng";
layers = (
{
anchors = (
{
name = top;
pos = (120,653);
},
{
name = topright;
pos = (-28,602);
},
{
name = vedic;
pos = (-184,0);
}
);
layerId = "94EB6DF8-7434-4BE0-9F23-77BCD575F5B8";
shapes = (
{
closed = 1;
nodes = (
(121,-9,l),
(121,602,l),
(238,602,l),
(224,622,l),
(120,622,l),
(101,840,o),
(-63,888,o),
(-212,888,cs),
(-343,888,o),
(-434,846,o),
(-434,777,cs),
(-434,733,o),
(-398,710,o),
(-341,710,cs),
(-292,710,o),
(-246,721,o),
(-197,721,cs),
(-138,721,o),
(-121,699,o),
(-121,619,c),
(-97,619,l),
(-99,646,ls),
(-104,707,o),
(-128,743,o),
(-197,743,cs),
(-247,743,o),
(-286,732,o),
(-336,732,cs),
(-396,732,o),
(-413,751,o),
(-413,779,cs),
(-413,837,o),
(-320,866,o),
(-203,866,cs),
(-41,866,o),
(82,806,o),
(98,622,c),
(-13,622,l),
(1,602,l),
(98,602,l),
(98,3,l),
(118,-10,l)
);
}
);
vertWidth = 0;
width = 219;
},
{
anchors = (
{
name = top;
pos = (137,665);
},
{
name = topright;
pos = (10,570);
},
{
name = vedic;
pos = (-194,0);
}
);
layerId = "B2542900-2B87-4688-8902-A06B6D3D93DD";
shapes = (
{
closed = 1;
nodes = (
(134,-24,l),
(134,570,l),
(243,570,l),
(208,622,l),
(133,622,l),
(112,827,o),
(-18,918,o),
(-236,918,cs),
(-383,918,o),
(-472,868,o),
(-472,790,cs),
(-472,713,o),
(-408,692,o),
(-353,692,cs),
(-295,692,o),
(-246,707,o),
(-200,707,cs),
(-157,707,o),
(-134,693,o),
(-134,618,c),
(-78,618,l),
(-80,650,ls),
(-85,734,o),
(-144,770,o),
(-211,770,cs),
(-259,770,o),
(-298,763,o),
(-352,763,cs),
(-409,763,o),
(-424,772,o),
(-424,793,cs),
(-424,830,o),
(-348,847,o),
(-233,847,cs),
(-62,847,o),
(73,796,o),
(80,622,c),
(-29,622,l),
(4,570,l),
(80,570,l),
(80,3,l),
(131,-25,l)
);
}
);
vertWidth = 0;
width = 214;
},
{
anchors = (
{
name = top;
pos = (158,688);
},
{
name = topright;
pos = (-10,576);
},
{
name = vedic;
pos = (-248,0);
}
);
layerId = "18A8C34B-6260-4854-BBF8-229863F38B25";
shapes = (
{
closed = 1;
nodes = (
(195,-40,l),
(195,536,l),
(314,536,l),
(265,622,l),
(189,622,l),
(169,808,o),
(0,954,o),
(-262,954,cs),
(-486,954,o),
(-563,873,o),
(-563,798,cs),
(-563,715,o),
(-504,677,o),
(-415,677,cs),
(-347,677,o),
(-316,693,o),
(-265,693,cs),
(-226,693,o),
(-195,678,o),
(-195,615,c),
(-86,615,l),
(-91,653,ls),
(-103,742,o),
(-183,797,o),
(-285,797,cs),
(-347,797,o),
(-399,787,o),
(-445,787,cs),
(-475,787,o),
(-488,792,o),
(-488,805,cs),
(-488,827,o),
(-441,840,o),
(-274,840,cs),
(-65,840,o),
(85,781,o),
(85,622,c),
(-39,622,l),
(9,536,l),
(80,536,l),
(80,-1,l),
(184,-43,l)
);
}
);
vertWidth = 0;
width = 275;
},
{
anchors = (
{
name = top;
pos = (96,653);
},
{
name = topright;
pos = (-28,602);
},
{
name = vedic;
pos = (-136,0);
}
);
layerId = "33F2F8B2-CCE7-4937-A852-9C044B0330C5";
shapes = (
{
closed = 1;
nodes = (
(96,-9,l),
(96,602,l),
(185,602,l),
(173,622,l),
(95,622,l),
(84,836,o),
(-29,888,o),
(-162,888,cs),
(-254,888,o),
(-324,843,o),
(-324,782,cs),
(-324,736,o),
(-289,713,o),
(-243,713,cs),
(-209,713,o),
(-181,720,o),
(-150,720,cs),
(-108,720,o),
(-96,697,o),
(-96,619,c),
(-74,619,l),
(-75,644,ls),
(-78,710,o),
(-101,742,o),
(-150,742,cs),
(-181,742,o),
(-204,735,o),
(-242,735,cs),
(-285,735,o),
(-302,752,o),
(-302,782,cs),
(-302,836,o),
(-231,866,o),
(-158,866,cs),
(-16,866,o),
(65,802,o),
(73,622,c),
(-15,622,l),
(-3,602,l),
(74,602,l),
(74,3,l),
(93,-10,l)
);
}
);
vertWidth = 0;
width = 170;
},
{
anchors = (
{
name = top;
pos = (108,665);
},
{
name = topright;
pos = (-8,610);
},
{
name = vedic;
pos = (-167,0);
}
);
layerId = "5278E13D-D735-4789-ABCD-F52B0BBC306E";
shapes = (
{
closed = 1;
nodes = (
(118,-24,l),
(118,570,l),
(210,570,l),
(182,622,l),
(115,622,l),
(99,827,o),
(-5,918,o),
(-171,918,cs),
(-297,918,o),
(-366,865,o),
(-366,787,cs),
(-366,715,o),
(-314,692,o),
(-268,692,cs),
(-224,692,o),
(-198,707,o),
(-164,707,cs),
(-137,707,o),
(-118,693,o),
(-118,618,c),
(-67,618,l),
(-69,650,ls),
(-74,734,o),
(-117,770,o),
(-174,770,cs),
(-212,770,o),
(-239,763,o),
(-275,763,cs),
(-306,763,o),
(-318,774,o),
(-318,791,cs),
(-318,826,o),
(-269,847,o),
(-173,847,cs),
(-42,847,o),
(60,796,o),
(65,622,c),
(-25,622,l),
(3,570,l),
(67,570,l),
(67,3,l),
(114,-25,l)
);
}
);
vertWidth = 0;
width = 185;
},
{
anchors = (
{
name = top;
pos = (121,689);
},
{
name = topright;
pos = (-4,616);
},
{
name = vedic;
pos = (-227,0);
}
);
layerId = "03D26766-37BE-4C80-9191-ECBB7A84F3C2";
shapes = (
{
closed = 1;
nodes = (
(157,-40,l),
(157,536,l),
(238,536,l),
(192,622,l),
(152,622,l),
(135,808,o),
(22,954,o),
(-211,954,cs),
(-420,954,o),
(-478,873,o),
(-478,798,cs),
(-478,721,o),
(-422,679,o),
(-347,679,cs),
(-285,679,o),
(-261,695,o),
(-216,695,cs),
(-185,695,o),
(-158,680,o),
(-157,615,c),
(-48,615,l),
(-53,653,ls),
(-65,742,o),
(-143,795,o),
(-237,795,cs),
(-293,795,o),
(-337,785,o),
(-374,785,cs),
(-393,785,o),
(-403,790,o),
(-403,802,cs),
(-403,827,o),
(-358,844,o),
(-219,844,cs),
(-37,844,o),
(49,801,o),
(49,622,c),
(-35,622,l),
(11,536,l),
(46,536,l),
(46,-1,l),
(146,-43,l)
);
}
);
vertWidth = 0;
width = 203;
}
);
metricRight = "aaMatra-beng";
production = uni09C0;
script = bengali;
subCategory = Other;
unicode = 2496;
}
{
category = Mark;
glyphname = "uMatra-beng";
layers = (
{
anchors = (
{
name = _bottom;
}
);
layerId = "94EB6DF8-7434-4BE0-9F23-77BCD575F5B8";
shapes = (
{
closed = 1;
nodes = (
(173,-225,l),
(110,-115,o),
(18,-29,o),
(-106,-29,cs),
(-175,-29,o),
(-221,-61,o),
(-221,-125,cs),
(-221,-185,o),
(-174,-220,o),
(-120,-220,cs),
(-29,-220,o),
(15,-147,o),
(15,-69,cs),
(15,-37,o),
(14,-9,o),
(-1,42,c),
(-17,30,l),
(-6,-10,o),
(-5,-33,o),
(-5,-54,cs),
(-5,-156,o),
(-61,-196,o),
(-115,-196,cs),
(-162,-196,o),
(-196,-168,o),
(-196,-123,cs),
(-196,-80,o),
(-162,-54,o),
(-106,-54,cs),
(10,-54,o),
(90,-130,o),
(156,-235,c)
);
}
);
vertWidth = 0;
width = 0;
},
{
anchors = (
{
name = _bottom;
}
);
layerId = "B2542900-2B87-4688-8902-A06B6D3D93DD";
shapes = (
{
closed = 1;
nodes = (
(211,-266,l),
(142,-144,o),
(21,-33,o),
(-119,-33,cs),
(-208,-33,o),
(-256,-77,o),
(-256,-141,cs),
(-256,-207,o),
(-203,-251,o),
(-137,-251,cs),
(-39,-251,o),
(9,-181,o),
(9,-83,cs),
(9,-31,o),
(2,30,o),
(-16,68,c),
(-65,56,l),
(-53,33,o),
(-43,-27,o),
(-43,-54,cs),
(-43,-148,o),
(-80,-189,o),
(-139,-189,cs),
(-181,-189,o),
(-204,-168,o),
(-204,-137,cs),
(-204,-108,o),
(-182,-90,o),
(-129,-90,cs),
(7,-90,o),
(107,-172,o),
(181,-288,c)
);
}
);
vertWidth = 0;
width = 0;
},
{
anchors = (
{
name = _bottom;
}
);
layerId = "18A8C34B-6260-4854-BBF8-229863F38B25";
shapes = (
{
closed = 1;
nodes = (
(218,-279,l),
(159,-160,o),
(12,-30,o),
(-151,-30,cs),
(-250,-30,o),
(-309,-84,o),
(-309,-161,cs),
(-309,-239,o),
(-252,-292,o),
(-163,-292,cs),
(-51,-292,o),
(14,-205,o),
(14,-119,cs),
(14,-51,o),
(-1,-2,o),
(-17,40,c),
(-101,15,l),
(-92,-11,o),
(-83,-42,o),
(-83,-79,cs),
(-83,-173,o),
(-129,-195,o),
(-172,-195,cs),
(-201,-195,o),
(-218,-183,o),
(-218,-162,cs),
(-218,-140,o),
(-202,-127,o),
(-169,-127,cs),
(-27,-127,o),
(84,-190,o),
(166,-309,c)
);
}
);
vertWidth = 0;
width = 0;
},
{
anchors = (
{
name = _bottom;
}
);
layerId = "33F2F8B2-CCE7-4937-A852-9C044B0330C5";
shapes = (
{
closed = 1;
nodes = (
(128,-225,l),
(77,-104,o),
(18,-29,o),
(-78,-29,cs),
(-123,-29,o),
(-162,-54,o),
(-162,-117,cs),
(-162,-182,o),
(-122,-220,o),
(-76,-220,cs),
(-16,-220,o),
(15,-156,o),
(15,-82,cs),
(15,-50,o),
(13,-21,o),
(-1,42,c),
(-17,30,l),
(-6,-23,o),
(-5,-50,o),
(-5,-71,cs),
(-5,-136,o),
(-27,-197,o),
(-75,-197,cs),
(-110,-197,o),
(-139,-169,o),
(-139,-118,cs),
(-139,-75,o),
(-113,-52,o),
(-77,-52,cs),
(15,-52,o),
(63,-128,o),
(112,-233,c)
);
}
);
vertWidth = 0;
width = 0;
},
{
anchors = (
{
name = _bottom;
}
);
layerId = "5278E13D-D735-4789-ABCD-F52B0BBC306E";
shapes = (
{
closed = 1;
nodes = (
(142,-266,l),
(96,-145,o),
(15,-33,o),
(-92,-33,cs),
(-157,-33,o),
(-196,-73,o),
(-196,-136,cs),
(-196,-203,o),
(-154,-251,o),
(-100,-251,cs),
(-26,-251,o),
(10,-181,o),
(10,-86,cs),
(10,-35,o),
(1,30,o),
(-11,68,c),
(-56,56,l),
(-48,33,o),
(-39,-31,o),
(-39,-67,cs),
(-39,-148,o),
(-63,-192,o),
(-103,-192,cs),
(-128,-192,o),
(-147,-174,o),
(-147,-139,cs),
(-147,-109,o),
(-129,-88,o),
(-94,-88,cs),
(0,-88,o),
(56,-166,o),
(111,-283,c)
);
}
);
vertWidth = 0;
width = 0;
},
{
anchors = (
{
name = _bottom;
}
);
layerId = "03D26766-37BE-4C80-9191-ECBB7A84F3C2";
shapes = (
{
closed = 1;
nodes = (
(191,-279,l),
(142,-156,o),
(-1,-30,o),
(-141,-30,cs),
(-227,-30,o),
(-274,-78,o),
(-274,-155,cs),
(-274,-233,o),
(-226,-291,o),
(-147,-291,cs),
(-48,-291,o),
(11,-204,o),
(11,-118,cs),
(11,-52,o),
(-3,-1,o),
(-16,41,c),
(-97,16,l),
(-90,-12,o),
(-83,-44,o),
(-83,-79,cs),
(-83,-172,o),
(-121,-195,o),
(-151,-195,cs),
(-172,-195,o),
(-187,-183,o),
(-187,-161,cs),
(-187,-139,o),
(-173,-123,o),
(-138,-123,cs),
(-31,-123,o),
(71,-189,o),
(142,-308,c)
);
}
);
vertWidth = 0;
width = 0;
}
);
production = uni09C1;
script = bengali;
subCategory = Nonspacing;
unicode = 2497;
}
{
category = Letter;
glyphname = "aiMatra-beng";
kernRight = bnmE;
layers = (
{
layerId = "94EB6DF8-7434-4BE0-9F23-77BCD575F5B8";
shapes = (
{
closed = 1;
nodes = (
(349,618,l),
(342,720,o),
(301,769,o),
(230,769,cs),
(178,769,o),
(139,756,o),
(79,756,cs),
(15,756,o),
(-11,783,o),
(-11,861,cs),
(-11,872,o),
(-10,885,o),
(-8,898,c),
(-26,900,l),
(-28,890,o),
(-30,871,o),
(-30,856,cs),
(-30,767,o),
(9,734,o),
(79,734,cs),
(140,734,o),
(170,747,o),
(236,747,cs),
(297,747,o),
(325,693,o),
(330,618,c)
);
},
{
ref = "eMatra-beng";
}
);
vertWidth = 0;
width = 362;
},
{
layerId = "B2542900-2B87-4688-8902-A06B6D3D93DD";
shapes = (
{
closed = 1;
nodes = (
(369,612,l),
(357,739,o),
(318,805,o),
(225,805,cs),
(189,805,o),
(155,796,o),
(109,796,cs),
(36,796,o),
(3,810,o),
(3,888,cs),
(3,895,o),
(3,904,o),
(4,913,c),
(-37,917,l),
(-40,899,o),
(-41,883,o),
(-41,867,cs),
(-41,768,o),
(7,710,o),
(102,710,cs),
(157,710,o),
(203,720,o),
(240,720,cs),
(291,720,o),
(316,687,o),
(326,612,c)
);
},
{
ref = "eMatra-beng";
}
);
vertWidth = 0;
width = 389;
},
{
layerId = "18A8C34B-6260-4854-BBF8-229863F38B25";
shapes = (
{
closed = 1;
nodes = (
(423,588,l),
(420,737,o),
(367,831,o),
(261,831,cs),
(197,831,o),
(166,821,o),
(104,821,cs),
(45,821,o),
(15,847,o),
(15,897,cs),
(15,910,o),
(16,926,o),
(18,938,c),
(-40,945,l),
(-46,919,o),
(-50,888,o),
(-50,859,cs),
(-50,756,o),
(2,682,o),
(115,682,cs),
(181,682,o),
(213,694,o),
(259,694,cs),
(310,694,o),
(352,682,o),
(352,588,c)
);
},
{
ref = "eMatra-beng";
}
);
vertWidth = 0;
width = 427;
},
{
layerId = "33F2F8B2-CCE7-4937-A852-9C044B0330C5";
shapes = (
{
closed = 1;
nodes = (
(250,618,l),
(248,724,o),
(225,768,o),
(151,768,cs),
(126,768,o),
(97,762,o),
(69,762,cs),
(33,762,o),
(-5,780,o),
(-5,856,cs),
(-5,869,o),
(-4,885,o),
(-2,898,c),
(-19,900,l),
(-21,888,o),
(-23,871,o),
(-23,856,cs),
(-23,763,o),
(23,740,o),
(69,740,cs),
(98,740,o),
(124,746,o),
(158,746,cs),
(222,746,o),
(228,693,o),
(231,618,c)
);
},
{
ref = "eMatra-beng";
}
);
vertWidth = 0;
width = 260;
},
{
layerId = "5278E13D-D735-4789-ABCD-F52B0BBC306E";
shapes = (
{
closed = 1;
nodes = (
(284,612,l),
(281,749,o),
(243,796,o),
(171,796,cs),
(140,796,o),
(119,791,o),
(82,791,cs),
(34,791,o),
(14,817,o),
(14,864,cs),
(14,885,o),
(17,904,o),
(19,913,c),
(-20,917,l),
(-25,892,o),
(-28,870,o),
(-28,843,cs),
(-28,755,o),
(15,712,o),
(84,712,cs),
(126,712,o),
(146,718,o),
(177,718,cs),
(221,718,o),
(240,687,o),
(243,612,c)
);
},
{
ref = "eMatra-beng";
}
);
vertWidth = 0;
width = 283;
},
{
layerId = "03D26766-37BE-4C80-9191-ECBB7A84F3C2";
shapes = (
{
closed = 1;
nodes = (
(369,588,l),
(367,737,o),
(317,824,o),
(219,824,cs),
(172,824,o),
(141,816,o),
(93,816,cs),
(39,816,o),
(15,842,o),
(15,897,cs),
(15,910,o),
(16,926,o),
(18,938,c),
(-40,945,l),
(-46,919,o),
(-50,888,o),
(-50,859,cs),
(-50,756,o),
(-11,682,o),
(93,682,cs),
(153,682,o),
(186,692,o),
(224,692,cs),
(259,692,o),
(300,682,o),
(302,588,c)
);
},
{
ref = "eMatra-beng";
}
);
vertWidth = 0;
width = 375;
}
);
metricRight = "eMatra-beng";
production = uni09C8;
script = bengali;
subCategory = Matra;
unicode = 2504;
}
{
category = Letter;
glyphname = "auMatra-beng";
layers = (
{
anchors = (
{
name = top;
pos = (805,612);
},
{
name = topright;
pos = (515,650);
},
{
name = vedic;
pos = (378,0);
}
);
layerId = "94EB6DF8-7434-4BE0-9F23-77BCD575F5B8";
shapes = (
{
closed = 1;
nodes = (
(452,249,o),
(480,272,o),
(480,310,cs),
(480,346,o),
(453,372,o),
(419,372,cs),
(384,372,o),
(355,346,o),
(355,310,cs),
(355,274,o),
(385,249,o),
(419,249,cs)
);
},
{
pos = (562,0);
ref = "auLength-beng";
},
{
ref = "eMatra-beng";
}
);
vertWidth = 0;
width = 783;
},
{
anchors = (
{
name = top;
pos = (847,596);
},
{
name = topright;
pos = (512,620);
},
{
name = vedic;
pos = (368,0);
}
);
layerId = "B2542900-2B87-4688-8902-A06B6D3D93DD";
shapes = (
{
closed = 1;
nodes = (
(452,249,o),
(480,272,o),
(480,310,cs),
(480,346,o),
(453,372,o),
(419,372,cs),
(384,372,o),
(355,346,o),
(355,310,cs),
(355,274,o),
(385,249,o),
(419,249,cs)
);
},
{
pos = (562,0);
ref = "auLength-beng";
},
{
ref = "eMatra-beng";
}
);
vertWidth = 0;
width = 776;
},
{
anchors = (
{
name = top;
pos = (927,599);
},
{
name = topright;
pos = (552,586);
},
{
name = vedic;
pos = (314,0);
}
);
layerId = "18A8C34B-6260-4854-BBF8-229863F38B25";
shapes = (
{
closed = 1;
nodes = (
(452,249,o),
(480,272,o),
(480,310,cs),
(480,346,o),
(453,372,o),
(419,372,cs),
(384,372,o),
(355,346,o),
(355,310,cs),
(355,274,o),
(385,249,o),
(419,249,cs)
);
},
{
pos = (562,0);
ref = "auLength-beng";
},
{
ref = "eMatra-beng";
}
);
vertWidth = 0;
width = 837;
},
{
anchors = (
{
name = top;
pos = (740,612);
},
{
name = topright;
pos = (529,650);
},
{
name = vedic;
pos = (426,0);
}
);
layerId = "33F2F8B2-CCE7-4937-A852-9C044B0330C5";
shapes = (
{
closed = 1;
nodes = (
(452,249,o),
(480,272,o),
(480,310,cs),
(480,346,o),
(453,372,o),
(419,372,cs),
(384,372,o),
(355,346,o),
(355,310,cs),
(355,274,o),
(385,249,o),
(419,249,cs)
);
},
{
pos = (562,0);
ref = "auLength-beng";
},
{
ref = "eMatra-beng";
}
);
vertWidth = 0;
width = 732;
},
{
anchors = (
{
name = top;
pos = (786,596);
},
{
name = topright;
pos = (538,620);
},
{
name = vedic;
pos = (395,0);
}
);
layerId = "5278E13D-D735-4789-ABCD-F52B0BBC306E";
shapes = (
{
closed = 1;
nodes = (
(452,249,o),
(480,272,o),
(480,310,cs),
(480,346,o),
(453,372,o),
(419,372,cs),
(384,372,o),
(355,346,o),
(355,310,cs),
(355,274,o),
(385,249,o),
(419,249,cs)
);
},
{
pos = (562,0);
ref = "auLength-beng";
},
{
ref = "eMatra-beng";
}
);
vertWidth = 0;
width = 747;
},
{
anchors = (
{
name = top;
pos = (894,599);
},
{
name = topright;
pos = (562,586);
},
{
name = vedic;
pos = (335,0);
}
);
layerId = "03D26766-37BE-4C80-9191-ECBB7A84F3C2";
shapes = (
{
closed = 1;
nodes = (
(452,249,o),
(480,272,o),
(480,310,cs),
(480,346,o),
(453,372,o),
(419,372,cs),
(384,372,o),
(355,346,o),
(355,310,cs),
(355,274,o),
(385,249,o),
(419,249,cs)
);
},
{
pos = (562,0);
ref = "auLength-beng";
},
{
ref = "eMatra-beng";
}
);
vertWidth = 0;
width = 765;
}
);
metricLeft = "eMatra-beng";
metricRight = "auLength-beng";
production = uni09CC;
script = bengali;
subCategory = Matra;
unicode = 2508;
}
{
category = Mark;
glyphname = "halant-beng";
layers = (
{
anchors = (
{
name = _bottom.virama;
pos = (-85,0);
}
);
layerId = "94EB6DF8-7434-4BE0-9F23-77BCD575F5B8";
shapes = (
{
closed = 1;
nodes = (
(88,-202,l),
(49,-156,o),
(-17,-90,o),
(-110,-60,c),
(-118,-82,l),
(-15,-116,o),
(40,-180,o),
(75,-215,c)
);
}
);
vertWidth = 0;
width = 0;
},
{
anchors = (
{
name = _bottom.virama;
pos = (-75,0);
}
);
layerId = "B2542900-2B87-4688-8902-A06B6D3D93DD";
shapes = (
{
closed = 1;
nodes = (
(114,-212,l),
(56,-133,o),
(-20,-83,o),
(-113,-53,c),
(-133,-119,l),
(-48,-138,o),
(28,-183,o),
(85,-243,c)
);
}
);
vertWidth = 0;
width = 0;
},
{
anchors = (
{
name = _bottom.virama;
pos = (-75,0);
}
);
layerId = "18A8C34B-6260-4854-BBF8-229863F38B25";
shapes = (
{
closed = 1;
nodes = (
(125,-252,l),
(38,-136,o),
(-58,-87,o),
(-153,-59,c),
(-192,-176,l),
(-94,-197,o),
(-11,-223,o),
(81,-300,c)
);
}
);
vertWidth = 0;
width = 0;
},
{
anchors = (
{
name = _bottom.virama;
pos = (-85,0);
}
);
layerId = "33F2F8B2-CCE7-4937-A852-9C044B0330C5";
shapes = (
{
closed = 1;
nodes = (
(88,-202,l),
(49,-156,o),
(-17,-90,o),
(-110,-60,c),
(-118,-82,l),
(-15,-116,o),
(40,-180,o),
(75,-215,c)
);
}
);
vertWidth = 0;
width = 0;
},
{
anchors = (
{
name = _bottom.virama;
pos = (-75,0);
}
);
layerId = "5278E13D-D735-4789-ABCD-F52B0BBC306E";
shapes = (
{
closed = 1;
nodes = (
(114,-212,l),
(56,-133,o),
(-20,-83,o),
(-113,-53,c),
(-133,-119,l),
(-48,-138,o),
(28,-183,o),
(85,-243,c)
);
}
);
vertWidth = 0;
width = 0;
},
{
anchors = (
{
name = _bottom.virama;
pos = (-75,0);
}
);
layerId = "03D26766-37BE-4C80-9191-ECBB7A84F3C2";
shapes = (
{
closed = 1;
nodes = (
(125,-252,l),
(38,-136,o),
(-58,-87,o),
(-153,-59,c),
(-192,-176,l),
(-94,-197,o),
(-11,-223,o),
(81,-300,c)
);
}
);
vertWidth = 0;
width = 0;
}
);
production = uni09CD;
script = bengali;
subCategory = Nonspacing;
unicode = 2509;
}
{
category = Letter;
glyphname = "auLength-beng";
layers = (
{
anchors = (
{
name = top;
pos = (243,612);
},
{
name = topright;
pos = (-47,650);
},
{
name = vedic;
pos = (-184,0);
}
);
layerId = "94EB6DF8-7434-4BE0-9F23-77BCD575F5B8";
shapes = (
{
closed = 1;
nodes = (
(122,-9,l),
(122,602,l),
(240,602,l),
(226,622,l),
(-18,622,l),
(-4,602,l),
(99,602,l),
(99,3,l),
(119,-10,l)
);
},
{
closed = 1;
nodes = (
(124,616,l),
(123,721,o),
(68,777,o),
(-34,777,cs),
(-109,777,o),
(-178,756,o),
(-273,756,cs),
(-344,756,o),
(-390,783,o),
(-390,861,cs),
(-390,872,o),
(-389,885,o),
(-387,898,c),
(-405,900,l),
(-407,890,o),
(-409,871,o),
(-409,856,cs),
(-409,767,o),
(-357,733,o),
(-274,733,cs),
(-177,733,o),
(-113,754,o),
(-31,754,cs),
(60,754,o),
(100,698,o),
(100,637,cs),
(100,632,o),
(100,623,o),
(99,616,c)
);
}
);
vertWidth = 0;
width = 221;
},
{
anchors = (
{
name = top;
pos = (285,596);
},
{
name = topright;
pos = (-50,620);
},
{
name = vedic;
pos = (-194,0);
}
);
layerId = "B2542900-2B87-4688-8902-A06B6D3D93DD";
shapes = (
{
closed = 1;
nodes = (
(134,-22,l),
(134,570,l),
(243,570,l),
(208,622,l),
(-29,622,l),
(4,570,l),
(80,570,l),
(80,5,l),
(131,-23,l)
);
},
{
closed = 1;
nodes = (
(136,612,l),
(128,739,o),
(65,807,o),
(-43,807,cs),
(-99,807,o),
(-159,795,o),
(-244,795,cs),
(-337,795,o),
(-382,816,o),
(-382,882,cs),
(-382,891,o),
(-381,902,o),
(-380,913,c),
(-421,917,l),
(-424,899,o),
(-425,881,o),
(-425,864,cs),
(-425,775,o),
(-373,709,o),
(-251,709,cs),
(-156,709,o),
(-93,726,o),
(-23,726,cs),
(43,726,o),
(81,696,o),
(81,632,cs),
(81,624,o),
(80,617,o),
(79,612,c)
);
}
);
vertWidth = 0;
width = 214;
},
{
anchors = (
{
name = top;
pos = (365,599);
},
{
name = topright;
pos = (-10,586);
},
{
name = vedic;
pos = (-248,0);
}
);
layerId = "18A8C34B-6260-4854-BBF8-229863F38B25";
shapes = (
{
closed = 1;
nodes = (
(195,-40,l),
(195,536,l),
(314,536,l),
(265,622,l),
(-39,622,l),
(9,536,l),
(80,536,l),
(80,-1,l),
(184,-43,l)
);
},
{
closed = 1;
nodes = (
(193,596,l),
(190,743,o),
(80,835,o),
(-53,835,cs),
(-143,835,o),
(-199,820,o),
(-289,820,cs),
(-380,820,o),
(-435,831,o),
(-435,895,cs),
(-435,909,o),
(-434,926,o),
(-431,938,c),
(-491,945,l),
(-496,919,o),
(-500,888,o),
(-500,857,cs),
(-500,735,o),
(-413,681,o),
(-285,681,cs),
(-177,681,o),
(-111,706,o),
(-14,706,cs),
(66,706,o),
(89,669,o),
(89,635,cs),
(89,623,o),
(88,610,o),
(85,596,c)
);
}
);
vertWidth = 0;
width = 275;
},
{
anchors = (
{
name = top;
pos = (178,612);
},
{
name = topright;
pos = (-33,650);
},
{
name = vedic;
pos = (-136,0);
}
);
layerId = "33F2F8B2-CCE7-4937-A852-9C044B0330C5";
shapes = (
{
closed = 1;
nodes = (
(96,-9,l),
(96,602,l),
(185,602,l),
(173,622,l),
(-15,622,l),
(-3,602,l),
(74,602,l),
(74,3,l),
(93,-10,l)
);
},
{
closed = 1;
nodes = (
(97,616,l),
(95,736,o),
(48,777,o),
(-25,777,cs),
(-76,777,o),
(-124,756,o),
(-190,756,cs),
(-243,756,o),
(-276,773,o),
(-276,853,cs),
(-276,867,o),
(-274,883,o),
(-271,898,c),
(-289,900,l),
(-292,886,o),
(-294,865,o),
(-294,847,cs),
(-294,761,o),
(-255,733,o),
(-189,733,cs),
(-123,733,o),
(-77,754,o),
(-18,754,cs),
(44,754,o),
(74,705,o),
(74,637,cs),
(74,632,o),
(74,623,o),
(73,616,c)
);
}
);
vertWidth = 0;
width = 170;
},
{
anchors = (
{
name = top;
pos = (224,596);
},
{
name = topright;
pos = (-24,620);
},
{
name = vedic;
pos = (-167,0);
}
);
layerId = "5278E13D-D735-4789-ABCD-F52B0BBC306E";
shapes = (
{
closed = 1;
nodes = (
(118,-24,l),
(118,570,l),
(210,570,l),
(182,622,l),
(-25,622,l),
(3,570,l),
(67,570,l),
(67,3,l),
(114,-25,l)
);
},
{
closed = 1;
nodes = (
(118,612,l),
(114,739,o),
(55,805,o),
(-28,805,cs),
(-77,805,o),
(-121,792,o),
(-184,792,cs),
(-247,792,o),
(-275,815,o),
(-275,876,cs),
(-275,885,o),
(-275,898,o),
(-273,913,c),
(-313,917,l),
(-316,895,o),
(-317,877,o),
(-317,859,cs),
(-317,770,o),
(-270,712,o),
(-172,712,cs),
(-111,712,o),
(-69,729,o),
(-17,729,cs),
(41,729,o),
(66,695,o),
(66,632,cs),
(66,623,o),
(65,616,o),
(64,612,c)
);
}
);
vertWidth = 0;
width = 185;
},
{
anchors = (
{
name = top;
pos = (332,599);
},
{
name = topright;
pos = (0,586);
},
{
name = vedic;
pos = (-227,0);
}
);
layerId = "03D26766-37BE-4C80-9191-ECBB7A84F3C2";
shapes = (
{
closed = 1;
nodes = (
(157,-40,l),
(157,536,l),
(238,536,l),
(192,622,l),
(-35,622,l),
(11,536,l),
(46,536,l),
(46,-1,l),
(146,-43,l)
);
},
{
closed = 1;
nodes = (
(155,596,l),
(153,743,o),
(62,834,o),
(-43,834,cs),
(-116,834,o),
(-171,816,o),
(-244,816,cs),
(-311,816,o),
(-352,832,o),
(-352,897,cs),
(-352,911,o),
(-351,927,o),
(-349,939,c),
(-406,945,l),
(-411,921,o),
(-414,890,o),
(-414,857,cs),
(-414,735,o),
(-334,681,o),
(-234,681,cs),
(-146,681,o),
(-100,706,o),
(-22,706,cs),
(40,706,o),
(55,669,o),
(55,635,cs),
(55,623,o),
(54,610,o),
(51,596,c)
);
}
);
vertWidth = 0;
width = 203;
}
);
metricRight = "aaMatra-beng";
production = uni09D7;
script = bengali;
subCategory = Other;
unicode = 2519;
}
{
category = Mark;
glyphname = "llVocalicMatra-beng";
layers = (
{
anchors = (
{
name = _bottom;
pos = (0,30);
}
);
layerId = "94EB6DF8-7434-4BE0-9F23-77BCD575F5B8";
shapes = (
{
closed = 1;
nodes = (
(38,-222,o),
(69,-189,o),
(69,-137,cs),
(69,-89,o),
(40,-57,o),
(-14,-41,cs),
(-73,-23,o),
(-104,-15,o),
(-104,22,cs),
(-104,37,o),
(-98,54,o),
(-89,67,c),
(-105,74,l),
(-118,56,o),
(-124,36,o),
(-124,18,cs),
(-124,-29,o),
(-87,-43,o),
(-36,-58,cs),
(29,-77,o),
(50,-98,o),
(50,-142,cs),
(50,-184,o),
(18,-205,o),
(-2,-205,cs),
(-5,-205,o),
(-8,-205,o),
(-10,-204,c),
(-3,-214,l),
(-2,-207,o),
(-2,-200,o),
(-2,-194,cs),
(-2,-114,o),
(-52,-93,o),
(-87,-93,cs),
(-133,-93,o),
(-160,-127,o),
(-160,-164,cs),
(-160,-205,o),
(-133,-226,o),
(-110,-226,cs),
(-93,-226,o),
(-83,-218,o),
(-83,-202,cs),
(-83,-186,o),
(-94,-179,o),
(-105,-179,cs),
(-122,-179,o),
(-128,-192,o),
(-128,-206,c),
(-123,-206,l),
(-131,-200,o),
(-140,-191,o),
(-140,-168,cs),
(-140,-130,o),
(-116,-114,o),
(-87,-114,cs),
(-53,-114,o),
(-24,-137,o),
(-24,-198,cs),
(-24,-211,o),
(-25,-218,o),
(-26,-226,c)
);
},
{
closed = 1;
nodes = (
(124,-346,o),
(169,-312,o),
(169,-250,cs),
(169,-202,o),
(140,-170,o),
(65,-149,c),
(58,-168,l),
(129,-190,o),
(150,-211,o),
(150,-255,cs),
(150,-297,o),
(121,-325,o),
(99,-325,cs),
(96,-325,o),
(93,-324,o),
(90,-323,c),
(97,-337,l),
(98,-329,o),
(98,-322,o),
(98,-315,cs),
(98,-227,o),
(48,-206,o),
(13,-206,cs),
(-33,-206,o),
(-60,-240,o),
(-60,-277,cs),
(-60,-318,o),
(-33,-339,o),
(-10,-339,cs),
(7,-339,o),
(17,-331,o),
(17,-315,cs),
(17,-299,o),
(6,-292,o),
(-5,-292,cs),
(-22,-292,o),
(-28,-305,o),
(-28,-319,c),
(-23,-319,l),
(-31,-313,o),
(-40,-304,o),
(-40,-281,cs),
(-40,-243,o),
(-16,-227,o),
(13,-227,cs),
(47,-227,o),
(76,-250,o),
(76,-321,cs),
(76,-334,o),
(75,-344,o),
(74,-349,c),
(76,-351,l)
);
}
);
vertWidth = 0;
width = 0;
},
{
anchors = (
{
name = _bottom;
pos = (0,42);
}
);
layerId = "B2542900-2B87-4688-8902-A06B6D3D93DD";
shapes = (
{
closed = 1;
nodes = (
(11,-254,o),
(62,-198,o),
(62,-127,cs),
(62,-62,o),
(16,-35,o),
(-43,-24,cs),
(-95,-14,o),
(-119,0,o),
(-119,34,cs),
(-119,43,o),
(-117,53,o),
(-112,65,c),
(-139,75,l),
(-156,51,o),
(-162,29,o),
(-162,6,cs),
(-162,-45,o),
(-126,-70,o),
(-62,-82,cs),
(0,-94,o),
(29,-106,o),
(29,-140,cs),
(29,-177,o),
(-1,-199,o),
(-27,-199,cs),
(-32,-199,o),
(-37,-198,o),
(-41,-197,c),
(-20,-220,l),
(-20,-217,o),
(-20,-213,o),
(-20,-210,cs),
(-20,-145,o),
(-56.006,-105,o),
(-114,-105,cs),
(-177,-105,o),
(-204,-149,o),
(-204,-190,cs),
(-204,-236,o),
(-176,-254,o),
(-150,-254,cs),
(-122,-254,o),
(-108,-233,o),
(-108,-211,cs),
(-108,-187,o),
(-125,-170,o),
(-145,-170,cs),
(-164,-170,o),
(-178,-183,o),
(-179,-198,c),
(-165,-203,l),
(-167,-199,o),
(-168,-195,o),
(-168,-189,cs),
(-168,-167,o),
(-151,-150,o),
(-128,-150,cs),
(-88,-150,o),
(-66,-175,o),
(-66,-227,cs),
(-66,-240,o),
(-67,-250,o),
(-69,-261,c)
);
},
{
closed = 1;
nodes = (
(107,-370,o),
(169,-327,o),
(169,-238,cs),
(169,-166,o),
(133,-130,o),
(51,-114,c),
(40,-169,l),
(115,-179,o),
(136,-210,o),
(136,-248,cs),
(136,-289,o),
(116,-309,o),
(92,-309,cs),
(88,-309,o),
(83,-308,o),
(78,-307,c),
(100,-330,l),
(100,-326,o),
(100,-322,o),
(100,-318,cs),
(100,-257,o),
(64,-205,o),
(3,-205,cs),
(-55,-205,o),
(-85,-249,o),
(-85,-290,cs),
(-85,-336,o),
(-56,-354,o),
(-31,-354,cs),
(-2,-354,o),
(11,-333,o),
(11,-310,cs),
(11,-286,o),
(-5,-270,o),
(-26,-270,cs),
(-44,-270,o),
(-58,-283,o),
(-59,-298,c),
(-45,-303,l),
(-47,-299,o),
(-48,-295,o),
(-48,-289,cs),
(-48,-267,o),
(-30,-250,o),
(-5,-250,cs),
(34,-250,o),
(49,-284,o),
(49,-338,cs),
(49,-355,o),
(48,-364,o),
(46,-374,c),
(50,-378,l)
);
}
);
vertWidth = 0;
width = 0;
},
{
anchors = (
{
name = _bottom;
pos = (0,20);
}
);
layerId = "18A8C34B-6260-4854-BBF8-229863F38B25";
shapes = (
{
closed = 1;
nodes = (
(0,-368,o),
(65,-304,o),
(65,-205,cs),
(65,-128,o),
(20,-87,o),
(-61,-60,cs),
(-134,-36,o),
(-157,-26,o),
(-157,8,cs),
(-157,15,o),
(-155,29,o),
(-146,46,c),
(-190,62,l),
(-214,32,o),
(-230,-5,o),
(-230,-35,cs),
(-230,-90,o),
(-199,-129,o),
(-108,-147,cs),
(-22,-164,o),
(3,-182,o),
(3,-226,cs),
(3,-266,o),
(-17,-287,o),
(-35,-287,cs),
(-53,-287,o),
(-62,-283,o),
(-69,-276,c),
(-24,-325,l),
(-23,-318,o),
(-23,-312,o),
(-23,-306,cs),
(-23,-204,o),
(-91,-161,o),
(-164,-161,cs),
(-236,-161,o),
(-286,-218,o),
(-286,-280,cs),
(-286,-346,o),
(-248,-370,o),
(-209,-370,cs),
(-167,-370,o),
(-147,-340,o),
(-147,-309,cs),
(-147,-274,o),
(-169,-250,o),
(-204,-250,cs),
(-229,-250,o),
(-249,-268,o),
(-250,-290,c),
(-230,-297,l),
(-234,-291,o),
(-235,-286,o),
(-235,-279,cs),
(-235,-246,o),
(-212,-236,o),
(-184,-236,cs),
(-136,-236,o),
(-111,-275,o),
(-111,-336,cs),
(-111,-353,o),
(-112,-363,o),
(-113,-373,c)
);
},
{
closed = 1;
nodes = (
(145,-493,o),
(225,-437,o),
(225,-329,cs),
(225,-252,o),
(180,-211,o),
(53,-171,c),
(48,-261,l),
(134,-278,o),
(163,-306,o),
(163,-350,cs),
(163,-390,o),
(143,-411,o),
(125,-411,cs),
(107,-411,o),
(98,-407,o),
(91,-400,c),
(130,-449,l),
(131,-442,o),
(131,-435,o),
(131,-428,cs),
(131,-327,o),
(68,-285,o),
(-4,-285,cs),
(-76,-285,o),
(-126,-342,o),
(-126,-404,cs),
(-126,-470,o),
(-88,-494,o),
(-49,-494,cs),
(-7,-494,o),
(13,-464,o),
(13,-433,cs),
(13,-398,o),
(-9,-374,o),
(-44,-374,cs),
(-69,-374,o),
(-89,-392,o),
(-90,-414,c),
(-70,-421,l),
(-74,-415,o),
(-75,-410,o),
(-75,-403,cs),
(-75,-370,o),
(-52,-360,o),
(-24,-360,cs),
(24,-360,o),
(49,-399,o),
(49,-460,cs),
(49,-477,o),
(48,-487,o),
(47,-497,c),
(51,-502,l)
);
}
);
vertWidth = 0;
width = 0;
},
{
anchors = (
{
name = _bottom;
pos = (0,30);
}
);
layerId = "33F2F8B2-CCE7-4937-A852-9C044B0330C5";
shapes = (
{
closed = 1;
nodes = (
(20,-238,o),
(48,-195,o),
(48,-137,cs),
(48,-84,o),
(25,-57,o),
(-13,-41,cs),
(-54,-23,o),
(-78,-15,o),
(-78,21,cs),
(-78,37,o),
(-71,55,o),
(-64,67,c),
(-79,74,l),
(-88,58,o),
(-95,39,o),
(-95,17,cs),
(-95,-29,o),
(-66,-43,o),
(-29,-58,cs),
(14,-76,o),
(31,-96,o),
(31,-142,cs),
(31,-176,o),
(14,-211,o),
(-5,-211,cs),
(-7,-211,o),
(-10,-211,o),
(-12,-210,c),
(-4,-224,l),
(-4,-216,o),
(-3,-209,o),
(-3,-203,cs),
(-3,-115,o),
(-38,-93,o),
(-66,-93,cs),
(-103,-93,o),
(-120,-126,o),
(-120,-156,cs),
(-120,-202,o),
(-94,-226,o),
(-73,-226,cs),
(-60,-226,o),
(-50,-218,o),
(-50,-202,cs),
(-50,-187,o),
(-59,-179,o),
(-70,-179,cs),
(-85,-179,o),
(-91,-193,o),
(-91,-206,c),
(-85,-206,l),
(-90,-200,o),
(-101,-191,o),
(-101,-163,cs),
(-101,-129,o),
(-85,-114,o),
(-66,-114,cs),
(-41,-114,o),
(-22,-137,o),
(-22,-208,cs),
(-22,-221,o),
(-23,-228,o),
(-23,-236,c)
);
},
{
closed = 1;
nodes = (
(79,-365,o),
(112,-326,o),
(112,-264,cs),
(112,-211,o),
(84,-179,o),
(38,-163,c),
(32,-184,l),
(72,-193,o),
(95,-225,o),
(95,-269,cs),
(95,-303,o),
(78,-338,o),
(59,-338,cs),
(57,-338,o),
(54,-338,o),
(52,-337,c),
(60,-351,l),
(61,-343,o),
(61,-336,o),
(61,-330,cs),
(61,-242,o),
(26,-220,o),
(-2,-220,cs),
(-39,-220,o),
(-56,-253,o),
(-56,-283,cs),
(-56,-329,o),
(-30,-353,o),
(-9,-353,cs),
(4,-353,o),
(14,-345,o),
(14,-329,cs),
(14,-314,o),
(5,-306,o),
(-6,-306,cs),
(-21,-306,o),
(-27,-320,o),
(-27,-333,c),
(-21,-333,l),
(-26,-327,o),
(-37,-318,o),
(-37,-290,cs),
(-37,-256,o),
(-21,-241,o),
(-2,-241,cs),
(23,-241,o),
(42,-259,o),
(42,-330,cs),
(42,-343,o),
(40,-355,o),
(38,-363,c),
(39,-365,l)
);
}
);
vertWidth = 0;
width = 0;
},
{
anchors = (
{
name = _bottom;
pos = (0,42);
}
);
layerId = "5278E13D-D735-4789-ABCD-F52B0BBC306E";
shapes = (
{
closed = 1;
nodes = (
(5,-268,o),
(43,-217,o),
(43,-138,cs),
(43,-74,o),
(12,-43,o),
(-37,-24,cs),
(-78,-8,o),
(-92,-1,o),
(-92,34,cs),
(-92,41,o),
(-91,53,o),
(-86,65,c),
(-113,75,l),
(-127,51,o),
(-134,28,o),
(-134,6,cs),
(-134,-42,o),
(-112,-60,o),
(-60,-79,cs),
(-12,-97,o),
(11,-115,o),
(11,-151,cs),
(11,-183,o),
(-5,-206,o),
(-20,-206,cs),
(-29,-206,o),
(-34,-202,o),
(-38,-197,c),
(-17,-241,l),
(-16,-235,o),
(-16,-229,o),
(-16,-222,cs),
(-16,-152,o),
(-51,-104,o),
(-97,-104,cs),
(-142,-104,o),
(-168,-148,o),
(-168,-190,cs),
(-168,-236,o),
(-144,-253,o),
(-121,-253,cs),
(-96,-253,o),
(-85,-232,o),
(-85,-210,cs),
(-85,-186,o),
(-98,-169,o),
(-118,-169,cs),
(-133,-169,o),
(-147,-182,o),
(-147,-197,c),
(-136,-202,l),
(-138,-198,o),
(-138,-194,o),
(-138,-189,cs),
(-138,-167,o),
(-124,-149,o),
(-107,-149,cs),
(-76,-149,o),
(-62,-188,o),
(-62,-238,cs),
(-62,-249,o),
(-63,-262,o),
(-65,-273,c)
);
},
{
closed = 1;
nodes = (
(84,-389,o),
(133,-346,o),
(133,-258,cs),
(133,-194,o),
(101,-169,o),
(42,-139,c),
(20,-195,l),
(67,-203,o),
(101,-225,o),
(101,-271,cs),
(101,-303,o),
(85,-326,o),
(70,-326,cs),
(61,-326,o),
(56,-322,o),
(52,-317,c),
(73,-361,l),
(74,-355,o),
(74,-349,o),
(74,-342,cs),
(74,-272,o),
(39,-224,o),
(-7,-224,cs),
(-52,-224,o),
(-78,-268,o),
(-78,-310,cs),
(-78,-356,o),
(-54,-373,o),
(-31,-373,cs),
(-6,-373,o),
(5,-352,o),
(5,-330,cs),
(5,-306,o),
(-8,-289,o),
(-28,-289,cs),
(-43,-289,o),
(-57,-302,o),
(-57,-317,c),
(-46,-322,l),
(-48,-318,o),
(-48,-314,o),
(-48,-309,cs),
(-48,-287,o),
(-34,-269,o),
(-17,-269,cs),
(14,-269,o),
(28,-308,o),
(28,-358,cs),
(28,-369,o),
(27,-382,o),
(25,-393,c),
(28,-397,l)
);
}
);
vertWidth = 0;
width = 0;
},
{
anchors = (
{
name = _bottom;
pos = (0,20);
}
);
layerId = "03D26766-37BE-4C80-9191-ECBB7A84F3C2";
shapes = (
{
closed = 1;
nodes = (
(-2,-358,o),
(55,-299,o),
(55,-205,cs),
(55,-127,o),
(15,-89,o),
(-58,-62,cs),
(-124,-38,o),
(-143,-30,o),
(-143,5,cs),
(-143,15,o),
(-140,30,o),
(-132,46,c),
(-174,62,l),
(-197,32,o),
(-212,-6,o),
(-212,-38,cs),
(-212,-90,o),
(-188,-125,o),
(-103,-143,cs),
(-25,-160,o),
(-5,-182,o),
(-5,-226,cs),
(-5,-263,o),
(-21,-282,o),
(-34,-282,cs),
(-51,-282,o),
(-58,-275,o),
(-67,-271,c),
(-22,-320,l),
(-22,-313,o),
(-22,-307,o),
(-22,-301,cs),
(-22,-203,o),
(-85,-161,o),
(-151,-161,cs),
(-222,-161,o),
(-263,-219,o),
(-263,-285,cs),
(-263,-347,o),
(-230,-370,o),
(-195,-370,cs),
(-156,-370,o),
(-138,-340,o),
(-138,-309,cs),
(-138,-274,o),
(-158,-253,o),
(-191,-253,cs),
(-213,-253,o),
(-231,-271,o),
(-232,-293,c),
(-204,-297,l),
(-208,-291,o),
(-207,-285,o),
(-207,-279,cs),
(-207,-246,o),
(-186,-236,o),
(-163,-236,cs),
(-120,-236,o),
(-102,-271,o),
(-102,-325,cs),
(-102,-342,o),
(-104,-353,o),
(-106,-363,c)
);
},
{
closed = 1;
nodes = (
(117,-492,o),
(187,-436,o),
(187,-328,cs),
(187,-250,o),
(147,-212,o),
(53,-179,c),
(29,-266,l),
(107,-283,o),
(127,-305,o),
(127,-349,cs),
(127,-389,o),
(111,-410,o),
(98,-410,cs),
(81,-410,o),
(71,-403,o),
(65,-399,c),
(110,-448,l),
(110,-441,o),
(110,-435,o),
(110,-429,cs),
(110,-327,o),
(47,-284,o),
(-19,-284,cs),
(-90,-284,o),
(-131,-342,o),
(-131,-408,cs),
(-131,-470,o),
(-98,-493,o),
(-63,-493,cs),
(-24,-493,o),
(-6,-463,o),
(-6,-432,cs),
(-6,-397,o),
(-26,-376,o),
(-59,-376,cs),
(-81,-376,o),
(-99,-394,o),
(-100,-416,c),
(-72,-420,l),
(-76,-414,o),
(-75,-408,o),
(-75,-402,cs),
(-75,-369,o),
(-54,-359,o),
(-31,-359,cs),
(12,-359,o),
(30,-398,o),
(30,-458,cs),
(30,-475,o),
(28,-486,o),
(26,-496,c),
(29,-501,l)
);
}
);
vertWidth = 0;
width = 0;
}
);
production = uni09E3;
script = bengali;
subCategory = Nonspacing;
unicode = 2531;
}
{
category = Number;
glyphname = "two-beng";
layers = (
{
layerId = "94EB6DF8-7434-4BE0-9F23-77BCD575F5B8";
shapes = (
{
closed = 1;
nodes = (
(489,-9,l),
(426,59,o),
(306,184,o),
(133,242,c),
(137,232,l),
(181,220,o),
(222,214,o),
(257,214,cs),
(359,214,o),
(419,261,o),
(419,335,cs),
(419,395,o),
(386,432,o),
(291,458,cs),
(165,492,o),
(157,529,o),
(157,555,c),
(146,557,l),
(151,549,o),
(159,546,o),
(169,546,cs),
(195,546,o),
(211,560,o),
(211,585,cs),
(211,604,o),
(202,625,o),
(172,625,cs),
(146,625,o),
(127,604,o),
(127,569,cs),
(127,510,o),
(165,469,o),
(278,439,cs),
(366,416,o),
(397,389,o),
(397,337,cs),
(397,263,o),
(326,239,o),
(258,239,cs),
(198,239,o),
(133,259,o),
(102,278,c),
(111,224,l),
(258,182,o),
(407,58,o),
(476,-22,c)
);
}
);
vertWidth = 0;
width = 519;
},
{
layerId = "B2542900-2B87-4688-8902-A06B6D3D93DD";
shapes = (
{
closed = 1;
nodes = (
(525,-2,l),
(439,80,o),
(331,172,o),
(217,201,c),
(217,168,l),
(235,160,o),
(255,161,o),
(284,161,cs),
(384,161,o),
(424,231,o),
(424,296,cs),
(424,362,o),
(389,409,o),
(286,440,cs),
(187,470,o),
(178,484,o),
(178,515,c),
(149,508,l),
(156,500,o),
(165,500,o),
(180,500,cs),
(220,500,o),
(239,529,o),
(239,562,cs),
(239,596,o),
(215,624,o),
(174,624,cs),
(122,624,o),
(84,584,o),
(84,526,cs),
(84,446,o),
(152,408,o),
(260,382,cs),
(355,359,o),
(371,338,o),
(371,304,cs),
(371,261,o),
(323,237,o),
(234,237,cs),
(173,237,o),
(121,250,o),
(70,273,c),
(90,175,l),
(257,137,o),
(353,88,o),
(494,-35,c)
);
}
);
vertWidth = 0;
width = 495;
},
{
layerId = "18A8C34B-6260-4854-BBF8-229863F38B25";
shapes = (
{
closed = 1;
nodes = (
(600,-71,l),
(496,38,o),
(358,133,o),
(225,160,c),
(218,105,l),
(234,102,o),
(263,100,o),
(292,100,cs),
(437,100,o),
(521,151,o),
(521,269,cs),
(521,352,o),
(477,412,o),
(352,438,cs),
(256,458,o),
(217,482,o),
(211,523,c),
(165,476,l),
(175,466,o),
(192,463,o),
(211,463,cs),
(264,463,o),
(292,495,o),
(292,547,cs),
(292,590,o),
(260,640,o),
(191,640,cs),
(117,640,o),
(60,585,o),
(60,504,cs),
(60,416,o),
(115,358,o),
(229,335,cs),
(360,308,o),
(419,319,o),
(419,278,cs),
(419,242,o),
(342,231,o),
(269,231,cs),
(193,231,o),
(117,253,o),
(73,281,c),
(107,89,l),
(240,53,o),
(382,19,o),
(558,-118,c)
);
}
);
vertWidth = 0;
width = 555;
},
{
layerId = "33F2F8B2-CCE7-4937-A852-9C044B0330C5";
shapes = (
{
closed = 1;
nodes = (
(351,-9,l),
(305,57,o),
(220,184,o),
(104,242,c),
(113,231,l),
(143,219,o),
(168,217,o),
(186,217,cs),
(258,217,o),
(298,262,o),
(298,329,cs),
(298,389,o),
(275,431,o),
(206,458,cs),
(119,492,o),
(114,529,o),
(114,555,c),
(105,557,l),
(109,549,o),
(117,546,o),
(128,546,cs),
(150,546,o),
(162,562,o),
(162,587,cs),
(162,607,o),
(151,625,o),
(128,625,cs),
(102,625,o),
(84,601,o),
(84,562,cs),
(84,510,o),
(115,469,o),
(195,439,cs),
(257,416,o),
(278,386,o),
(278,331,cs),
(278,268,o),
(239,240,o),
(184,240,cs),
(142,240,o),
(88,260,o),
(68,278,c),
(76,224,l),
(183,182,o),
(283,56,o),
(340,-22,c)
);
}
);
vertWidth = 0;
width = 365;
},
{
layerId = "5278E13D-D735-4789-ABCD-F52B0BBC306E";
shapes = (
{
closed = 1;
nodes = (
(394,-2,l),
(337,77,o),
(242,172,o),
(157,201,c),
(154,171,l),
(166,166,o),
(183,164,o),
(203,164,cs),
(286,164,o),
(328,231,o),
(328,296,cs),
(328,361,o),
(301,409,o),
(223,440,cs),
(152,468,o),
(134,485,o),
(133,516,c),
(109,516,l),
(116,507,o),
(127,500,o),
(143,500,cs),
(176,500,o),
(197,526,o),
(197,561,cs),
(197,596,o),
(175,624,o),
(131,624,cs),
(86,624,o),
(50,583,o),
(50,522,cs),
(50,445,o),
(99,411,o),
(180,384,cs),
(256,359,o),
(279,345,o),
(279,306,cs),
(279,261,o),
(240,235,o),
(176,235,cs),
(130,235,o),
(85,248,o),
(51,271,c),
(69,175,l),
(178,137,o),
(268,86,o),
(369,-35,c)
);
}
);
vertWidth = 0;
width = 369;
},
{
layerId = "03D26766-37BE-4C80-9191-ECBB7A84F3C2";
shapes = (
{
closed = 1;
nodes = (
(520,-62,l),
(423,42,o),
(302,136,o),
(193,163,c),
(190,108,l),
(200,105,o),
(227,103,o),
(249,103,cs),
(378,103,o),
(456,155,o),
(456,270,cs),
(456,348,o),
(415,394,o),
(313,421,cs),
(227,444,o),
(198,456,o),
(194,499,c),
(135,499,l),
(142,475,o),
(164,465,o),
(188,465,cs),
(234,465,o),
(258,497,o),
(258,548,cs),
(258,596,o),
(228,639,o),
(160,639,cs),
(92,639,o),
(41,585,o),
(41,502,cs),
(41,421,o),
(86,359,o),
(216,332,cs),
(306,313,o),
(357,320,o),
(357,279,cs),
(357,241,o),
(293,231,o),
(235,231,cs),
(167,231,o),
(97,253,o),
(59,281,c),
(91,93,l),
(197,57,o),
(317,23,o),
(478,-114,c)
);
}
);
vertWidth = 0;
width = 473;
}
);
production = uni09E8;
script = bengali;
subCategory = "Decimal Digit";
unicode = 2536;
}
{
category = Number;
glyphname = "three-beng";
layers = (
{
layerId = "94EB6DF8-7434-4BE0-9F23-77BCD575F5B8";
shapes = (
{
closed = 1;
nodes = (
(482,82,o),
(568,156,o),
(568,294,cs),
(568,425,o),
(486,518,o),
(372,518,cs),
(305,518,o),
(281,490,o),
(281,452,cs),
(281,418,o),
(304,395,o),
(338,395,cs),
(374,395,o),
(392,419,o),
(392,452,cs),
(392,474,o),
(381,496,o),
(361,505,c),
(330,476,l),
(340,483,o),
(361,492,o),
(389,492,cs),
(467,492,o),
(546,420,o),
(546,296,cs),
(546,182,o),
(481,108,o),
(373,108,cs),
(247,108,o),
(134,211,o),
(74,502,c),
(55,497,l),
(121,177,o),
(242,82,o),
(376,82,cs)
);
}
);
vertWidth = 0;
width = 633;
},
{
layerId = "B2542900-2B87-4688-8902-A06B6D3D93DD";
shapes = (
{
closed = 1;
nodes = (
(514,47,o),
(595,139,o),
(595,278,cs),
(595,413,o),
(520,538,o),
(367,538,cs),
(287,538,o),
(240,491,o),
(240,424,cs),
(240,366,o),
(274,317,o),
(342,317,cs),
(400,317,o),
(434,357,o),
(434,413,cs),
(434,449,o),
(420,478,o),
(405,493,c),
(378,450,l),
(390,454,o),
(406,456,o),
(422,456,cs),
(477,456,o),
(542,411,o),
(542,304,cs),
(542,200,o),
(485,139,o),
(385,139,cs),
(243,139,o),
(151,243,o),
(81,505,c),
(40,492,l),
(109,186,o),
(209,47,o),
(382,47,cs)
);
}
);
vertWidth = 0;
width = 665;
},
{
layerId = "18A8C34B-6260-4854-BBF8-229863F38B25";
shapes = (
{
closed = 1;
nodes = (
(534,-16,o),
(647,61,o),
(647,260,cs),
(647,427,o),
(547,552,o),
(386,552,cs),
(283,552,o),
(229,492,o),
(229,408,cs),
(229,334,o),
(280,274,o),
(363,274,cs),
(445,274,o),
(482,335,o),
(479,392,cs),
(477,434,o),
(454,467,o),
(436,485,c),
(391,390,l),
(404,398,o),
(427,410,o),
(456,410,cs),
(516,410,o),
(562,376,o),
(562,291,cs),
(562,192,o),
(491,155,o),
(396,155,cs),
(258,155,o),
(155,235,o),
(95,505,c),
(30,490,l),
(90,143,o),
(200,-16,o),
(402,-16,cs)
);
}
);
vertWidth = 0;
width = 682;
},
{
layerId = "33F2F8B2-CCE7-4937-A852-9C044B0330C5";
shapes = (
{
closed = 1;
nodes = (
(346,92,o),
(417,146,o),
(417,299,cs),
(417,442,o),
(361,518,o),
(271,518,cs),
(222,518,o),
(198,492,o),
(198,454,cs),
(198,422,o),
(218,400,o),
(248,400,cs),
(279,400,o),
(294,423,o),
(294,453,cs),
(294,473,o),
(285,495,o),
(270,500,c),
(248,478,l),
(256,486,o),
(271,492,o),
(290,492,cs),
(344,492,o),
(395,430,o),
(395,306,cs),
(395,172,o),
(341,117,o),
(275,117,cs),
(176,117,o),
(100,220,o),
(52,511,c),
(33,507,l),
(82,187,o),
(168,92,o),
(277,92,cs)
);
}
);
vertWidth = 0;
width = 453;
},
{
layerId = "5278E13D-D735-4789-ABCD-F52B0BBC306E";
shapes = (
{
closed = 1;
nodes = (
(372,57,o),
(439,130,o),
(439,287,cs),
(439,443,o),
(371,536,o),
(270,536,cs),
(204,536,o),
(162,492,o),
(162,422,cs),
(162,368,o),
(194,325,o),
(248,325,cs),
(296,325,o),
(325,365,o),
(325,411,cs),
(325,446,o),
(311,476,o),
(299,491,c),
(271,448,l),
(280,452,o),
(293,454,o),
(308,454,cs),
(352,454,o),
(390,414,o),
(390,302,cs),
(390,185,o),
(337,142,o),
(273,142,cs),
(169,142,o),
(105,231,o),
(54,500,c),
(16,492,l),
(66,176,o),
(148,57,o),
(277,57,cs)
);
}
);
vertWidth = 0;
width = 477;
},
{
layerId = "03D26766-37BE-4C80-9191-ECBB7A84F3C2";
shapes = (
{
closed = 1;
nodes = (
(464,-15,o),
(555,81,o),
(555,262,cs),
(555,427,o),
(465,552,o),
(317,552,cs),
(219,552,o),
(166,491,o),
(166,408,cs),
(166,331,o),
(213,271,o),
(295,271,cs),
(371,271,o),
(407,324,o),
(407,387,cs),
(407,432,o),
(380,468,o),
(364,485,c),
(322,390,l),
(333,398,o),
(357,410,o),
(383,410,cs),
(434,410,o),
(464,368,o),
(464,295,cs),
(464,220,o),
(429,142,o),
(328,142,cs),
(210,142,o),
(128,230,o),
(71,494,c),
(5,478,l),
(62,136,o),
(154,-15,o),
(334,-15,cs)
);
}
);
vertWidth = 0;
width = 565;
}
);
production = uni09E9;
script = bengali;
subCategory = "Decimal Digit";
unicode = 2537;
}
{
category = Number;
glyphname = "four-beng";
layers = (
{
layerId = "94EB6DF8-7434-4BE0-9F23-77BCD575F5B8";
shapes = (
{
closed = 1;
nodes = (
(399,26,o),
(459,96,o),
(459,176,cs),
(459,254,o),
(399,305,o),
(311,342,c),
(294,331,l),
(363,298,o),
(435,257,o),
(435,180,cs),
(435,95,o),
(366,48,o),
(275,48,cs),
(183,48,o),
(117,94,o),
(117,161,cs),
(117,226,o),
(156,264,o),
(279,319,cs),
(375,362,o),
(439,399,o),
(439,480,cs),
(439,560,o),
(367,603,o),
(281,603,cs),
(172,603,o),
(114,543,o),
(114,474,cs),
(114,395,o),
(185,348,o),
(240,316,c),
(256,327,l),
(174,374,o),
(138,420,o),
(138,472,cs),
(138,538,o),
(197,582,o),
(281,582,cs),
(370,582,o),
(417,538,o),
(417,487,cs),
(417,427,o),
(373,388,o),
(262,339,cs),
(167,297,o),
(95,257,o),
(95,169,cs),
(95,68,o),
(188,26,o),
(273,26,cs)
);
}
);
vertWidth = 0;
width = 554;
},
{
layerId = "B2542900-2B87-4688-8902-A06B6D3D93DD";
shapes = (
{
closed = 1;
nodes = (
(419,6,o),
(490,79,o),
(490,164,cs),
(490,250,o),
(427,289,o),
(341,337,c),
(298,313,l),
(364,277,o),
(415,236,o),
(415,182,cs),
(415,115,o),
(347,71,o),
(265,71,cs),
(206,71,o),
(149,97,o),
(149,155,cs),
(149,218,o),
(226,249,o),
(307,287,cs),
(398,330,o),
(472,375,o),
(472,467,cs),
(472,562,o),
(389,616,o),
(286,616,cs),
(171,616,o),
(104,551,o),
(104,476,cs),
(104,384,o),
(186,346,o),
(234,315,c),
(279,333,l),
(220,371,o),
(188,415,o),
(188,465,cs),
(188,522,o),
(237,554,o),
(307,554,cs),
(364,554,o),
(408,532,o),
(408,484,cs),
(408,434,o),
(352,401,o),
(281,368,cs),
(186,324,o),
(80,281,o),
(80,176,cs),
(80,68,o),
(181,6,o),
(290,6,cs)
);
}
);
vertWidth = 0;
width = 570;
},
{
layerId = "18A8C34B-6260-4854-BBF8-229863F38B25";
shapes = (
{
closed = 1;
nodes = (
(443,-41,o),
(527,32,o),
(527,130,cs),
(527,221,o),
(451,267,o),
(355,308,c),
(301,259,l),
(359,235,o),
(392,192,o),
(392,149,cs),
(392,96,o),
(330,61,o),
(272,61,cs),
(213,61,o),
(181,81,o),
(181,119,cs),
(181,165,o),
(242,180,o),
(354,236,cs),
(472,295,o),
(511,343,o),
(511,437,cs),
(511,553,o),
(397,617,o),
(276,617,cs),
(139,617,o),
(69,541,o),
(69,454,cs),
(69,350,o),
(173,312,o),
(227,285,c),
(269,339,l),
(235,360,o),
(208,395,o),
(208,443,cs),
(208,491,o),
(246,520,o),
(301,520,cs),
(362,520,o),
(389,497,o),
(389,466,cs),
(389,431,o),
(352,410,o),
(250,362,cs),
(107,295,o),
(50,245,o),
(50,149,cs),
(50,19,o),
(175,-41,o),
(298,-41,cs)
);
}
);
vertWidth = 0;
width = 577;
},
{
layerId = "33F2F8B2-CCE7-4937-A852-9C044B0330C5";
shapes = (
{
closed = 1;
nodes = (
(286,26,o),
(330,96,o),
(330,176,cs),
(330,254,o),
(287,305,o),
(225,342,c),
(210,331,l),
(258,298,o),
(307,257,o),
(307,180,cs),
(307,96,o),
(259,48,o),
(196,48,cs),
(135,48,o),
(89,93,o),
(89,160,cs),
(89,226,o),
(119,266,o),
(201,318,cs),
(271,363,o),
(316,399,o),
(316,480,cs),
(316,560,o),
(268,603,o),
(201,603,cs),
(123,603,o),
(80,543,o),
(80,474,cs),
(80,395,o),
(131,347,o),
(170,316,c),
(187,327,l),
(131,374,o),
(105,420,o),
(105,472,cs),
(105,538,o),
(146,581,o),
(203,581,cs),
(262,581,o),
(294,535,o),
(294,483,cs),
(294,423,o),
(263,388,o),
(188,339,cs),
(121,296,o),
(66,257,o),
(66,169,cs),
(66,68,o),
(134,26,o),
(196,26,cs)
);
}
);
vertWidth = 0;
width = 396;
},
{
layerId = "5278E13D-D735-4789-ABCD-F52B0BBC306E";
shapes = (
{
closed = 1;
nodes = (
(298,7,o),
(351,80,o),
(351,165,cs),
(351,248,o),
(306,288,o),
(241,337,c),
(208,314,l),
(252,278,o),
(283,237,o),
(283,182,cs),
(283,114,o),
(237,70,o),
(187,70,cs),
(145,70,o),
(112,97,o),
(112,155,cs),
(112,216,o),
(160,249,o),
(226,293,cs),
(299,342,o),
(339,382,o),
(339,468,cs),
(339,562,o),
(272,615,o),
(196,615,cs),
(111,615,o),
(63,551,o),
(63,476,cs),
(63,385,o),
(126,346,o),
(161,315,c),
(191,333,l),
(156,371,o),
(135,417,o),
(135,465,cs),
(135,523,o),
(167,555,o),
(212,555,cs),
(253,555,o),
(279,532,o),
(279,484,cs),
(279,434,o),
(246,397,o),
(187,364,cs),
(109,320,o),
(48,276,o),
(48,176,cs),
(48,68,o),
(125,7,o),
(204,7,cs)
);
}
);
vertWidth = 0;
width = 399;
},
{
layerId = "03D26766-37BE-4C80-9191-ECBB7A84F3C2";
shapes = (
{
closed = 1;
nodes = (
(378,-39,o),
(452,35,o),
(452,132,cs),
(452,222,o),
(385,268,o),
(303,309,c),
(253,262,l),
(301,236,o),
(321,193,o),
(321,151,cs),
(321,97,o),
(277,61,o),
(228,61,cs),
(184,61,o),
(158,82,o),
(158,119,cs),
(158,167,o),
(209,191,o),
(309,245,cs),
(406,298,o),
(439,346,o),
(439,439,cs),
(439,557,o),
(336,617,o),
(229,617,cs),
(109,617,o),
(49,541,o),
(49,455,cs),
(49,352,o),
(142,314,o),
(188,287,c),
(225,339,l),
(206,361,o),
(183,395,o),
(183,444,cs),
(183,493,o),
(212,522,o),
(253,522,cs),
(302,522,o),
(321,498,o),
(321,467,cs),
(321,426,o),
(292,403,o),
(205,359,cs),
(78,295,o),
(34,249,o),
(34,150,cs),
(34,22,o),
(144,-39,o),
(253,-39,cs)
);
}
);
vertWidth = 0;
width = 486;
}
);
production = uni09EA;
script = bengali;
subCategory = "Decimal Digit";
unicode = 2538;
}
{
category = Number;
glyphname = "six-beng";
layers = (
{
layerId = "94EB6DF8-7434-4BE0-9F23-77BCD575F5B8";
shapes = (
{
closed = 1;
nodes = (
(507,49,o),
(579,137,o),
(579,261,cs),
(579,343,o),
(553,393,o),
(525,423,c),
(477,361,o),
(419,299,o),
(362,299,cs),
(326,299,o),
(309,315,o),
(309,349,cs),
(309,578,ls),
(309,609,o),
(292,627,o),
(264,627,cs),
(242,627,o),
(226,612,o),
(226,590,cs),
(226,565,o),
(242,551,o),
(264,551,cs),
(287,551,o),
(295,563,o),
(297,578,c),
(286,580,l),
(286,345,ls),
(286,313,o),
(301,296,o),
(314,287,cs),
(328,278,o),
(344,275,o),
(362,275,cs),
(419,275,o),
(475,322,o),
(533,392,c),
(518,401,l),
(537,378,o),
(557,338,o),
(557,268,cs),
(557,140,o),
(482,75,o),
(378,75,cs),
(199,75,o),
(127,267,o),
(79,479,c),
(60,474,l),
(116,210,o),
(208,49,o),
(378,49,cs)
);
}
);
vertWidth = 0;
width = 659;
},
{
layerId = "B2542900-2B87-4688-8902-A06B6D3D93DD";
shapes = (
{
closed = 1;
nodes = (
(534,10,o),
(607,101,o),
(607,222,cs),
(607,319,o),
(573,386,o),
(515,437,c),
(476,375,o),
(429,314,o),
(370,314,cs),
(349,314,o),
(338,324,o),
(338,342,cs),
(338,532,ls),
(338,592,o),
(309,624,o),
(261,624,cs),
(219,624,o),
(195,594,o),
(195,558,cs),
(195,524,o),
(219,497,o),
(257,497,cs),
(292,497,o),
(305,517,o),
(309,545,c),
(284,545,l),
(284,345,ls),
(284,311,o),
(294,285,o),
(316,265,cs),
(334,248,o),
(361,235,o),
(392,235,cs),
(452,235,o),
(509,282,o),
(553,349,c),
(516,343,l),
(543,325,o),
(556,299,o),
(556,244,cs),
(556,158,o),
(498,101,o),
(401,101,cs),
(251,101,o),
(169,207,o),
(102,471,c),
(60,460,l),
(126,147,o),
(238,10,o),
(400,10,cs)
);
}
);
vertWidth = 0;
width = 677;
},
{
layerId = "18A8C34B-6260-4854-BBF8-229863F38B25";
shapes = (
{
closed = 1;
nodes = (
(584,-46,o),
(666,72,o),
(666,225,cs),
(666,338,o),
(617,428,o),
(557,481,c),
(496,399,o),
(448,359,o),
(418,359,cs),
(394,359,o),
(382,370,o),
(382,397,cs),
(382,507,ls),
(382,575,o),
(342,639,o),
(261,639,cs),
(202,639,o),
(163,603,o),
(163,546,cs),
(163,489,o),
(202,456,o),
(246,456,cs),
(301,456,o),
(320,499,o),
(321,529,c),
(267,526,l),
(267,359,ls),
(267,302,o),
(288,269,o),
(317,241,cs),
(348,212,o),
(385,199,o),
(428,199,cs),
(493,199,o),
(568,252,o),
(619,329,c),
(551,355,l),
(573,326,o),
(591,296,o),
(591,258,cs),
(591,173,o),
(512,118,o),
(409,118,cs),
(259,118,o),
(165,247,o),
(104,473,c),
(40,457,l),
(101,128,o),
(204,-46,o),
(418,-46,cs)
);
}
);
vertWidth = 0;
width = 701;
},
{
layerId = "33F2F8B2-CCE7-4937-A852-9C044B0330C5";
shapes = (
{
closed = 1;
nodes = (
(371,52,o),
(426,121,o),
(426,245,cs),
(426,326,o),
(399,381,o),
(372,411,c),
(343,346,o),
(299,290,o),
(258,290,cs),
(235,290,o),
(224,307,o),
(224,334,cs),
(224,578,ls),
(224,609,o),
(208,627,o),
(186,627,cs),
(165,627,o),
(151,612,o),
(151,590,cs),
(151,565,o),
(165,551,o),
(185,551,cs),
(204,551,o),
(211,563,o),
(213,578,c),
(202,570,l),
(202,333,ls),
(202,303,o),
(212,287,o),
(224,278,cs),
(235,269,o),
(247,266,o),
(261,266,cs),
(300,266,o),
(346,303,o),
(383,380,c),
(368,378,l),
(386,357,o),
(404,316,o),
(404,249,cs),
(404,129,o),
(352,77,o),
(277,77,cs),
(158,77,o),
(96,201,o),
(64,479,c),
(45,476,l),
(74,185,o),
(144,52,o),
(278,52,cs)
);
}
);
vertWidth = 0;
width = 471;
},
{
layerId = "5278E13D-D735-4789-ABCD-F52B0BBC306E";
shapes = (
{
closed = 1;
nodes = (
(399,12,o),
(452,104,o),
(452,224,cs),
(452,320,o),
(418,386,o),
(373,431,c),
(349,365,o),
(304,315,o),
(270,315,cs),
(257,315,o),
(248,325,o),
(249,343,cs),
(249,532,ls),
(249,592,o),
(220,624,o),
(178,624,cs),
(139,624,o),
(119,595,o),
(119,560,cs),
(119,524,o),
(140,497,o),
(177,497,cs),
(207,497,o),
(217,517,o),
(219,545,c),
(197,532,l),
(197,341,ls),
(197,310,o),
(204,286,o),
(223,267,cs),
(240,250,o),
(260,242,o),
(283,242,cs),
(332,242,o),
(383,288,o),
(415,355,c),
(375,330,l),
(393,312,o),
(406,285,o),
(406,242,cs),
(406,156,o),
(361,97,o),
(290,97,cs),
(170,97,o),
(115,207,o),
(80,448,c),
(42,442,l),
(76,138,o),
(157,12,o),
(290,12,cs)
);
}
);
vertWidth = 0;
width = 487;
},
{
layerId = "03D26766-37BE-4C80-9191-ECBB7A84F3C2";
shapes = (
{
closed = 1;
nodes = (
(496,-27,o),
(571,75,o),
(571,228,cs),
(571,342,o),
(528,422,o),
(475,475,c),
(424,385,o),
(388,348,o),
(358,348,cs),
(346,348,o),
(329,354,o),
(329,380,cs),
(329,508,ls),
(329,576,o),
(293,638,o),
(214,638,cs),
(159,638,o),
(122,603,o),
(122,548,cs),
(122,492,o),
(157,458,o),
(205,458,cs),
(256,458,o),
(270,500,o),
(270,530,c),
(218,500,l),
(218,374,ls),
(218,319,o),
(231,281,o),
(259,251,cs),
(288,220,o),
(319,205,o),
(366,205,cs),
(427,205,o),
(487,253,o),
(521,331,c),
(465,322,l),
(482,301,o),
(493,272,o),
(493,243,cs),
(493,168,o),
(437,124,o),
(350,124,cs),
(197,124,o),
(133,255,o),
(101,475,c),
(33,462,l),
(66,143,o),
(148,-27,o),
(347,-27,cs)
);
}
);
vertWidth = 0;
width = 592;
}
);
production = uni09EC;
script = bengali;
subCategory = "Decimal Digit";
unicode = 2540;
}
{
category = Number;
glyphname = "eight-beng";
layers = (
{
layerId = "94EB6DF8-7434-4BE0-9F23-77BCD575F5B8";
shapes = (
{
closed = 1;
nodes = (
(317,30,o),
(414,123,o),
(414,236,cs),
(414,277,o),
(397,315,o),
(355,363,c),
(335,363,l),
(374,315,o),
(391,277,o),
(391,238,cs),
(391,144,o),
(310,54,o),
(225,54,cs),
(182,54,o),
(158,86,o),
(158,130,cs),
(158,578,ls),
(158,609,o),
(141,627,o),
(113,627,cs),
(91,627,o),
(75,612,o),
(75,590,cs),
(75,565,o),
(91,551,o),
(113,551,cs),
(136,551,o),
(144,563,o),
(146,578,c),
(135,580,l),
(135,131,ls),
(135,77,o),
(162,30,o),
(230,30,cs)
);
},
{
closed = 1;
nodes = (
(190,344,o),
(238,365,o),
(290,365,cs),
(382,365,o),
(398,324,o),
(459,324,cs),
(492,324,o),
(510,348,o),
(519,395,c),
(503,399,l),
(495,376,o),
(483,351,o),
(453,351,cs),
(404,351,o),
(367,388,o),
(285,388,cs),
(238,388,o),
(187,371,o),
(145,351,c),
(145,319,l)
);
}
);
vertWidth = 0;
width = 539;
},
{
layerId = "B2542900-2B87-4688-8902-A06B6D3D93DD";
shapes = (
{
closed = 1;
nodes = (
(373,11,o),
(477,112,o),
(477,214,cs),
(477,265,o),
(452,297,o),
(401,348,c),
(363,348,l),
(390,304,o),
(402,277,o),
(402,237,cs),
(402,150,o),
(317,74,o),
(257,74,cs),
(221,74,o),
(198,95,o),
(198,139,cs),
(198,532,ls),
(198,592,o),
(169,624,o),
(121,624,cs),
(79,624,o),
(55,594,o),
(55,558,cs),
(55,524,o),
(79,497,o),
(117,497,cs),
(152,497,o),
(165,517,o),
(169,545,c),
(144,545,l),
(144,153,ls),
(144,78,o),
(189,11,o),
(277,11,cs)
);
},
{
closed = 1;
nodes = (
(230,307,o),
(298,343,o),
(370,343,cs),
(430,343,o),
(460,305,o),
(503,305,cs),
(541,305,o),
(573,321,o),
(583,422,c),
(546,431,l),
(529,381,o),
(514,371,o),
(476,371,cs),
(407,371,o),
(376,398,o),
(314,398,cs),
(275,398,o),
(227,386,o),
(185,364,c),
(180,274,l)
);
}
);
vertWidth = 0;
width = 608;
},
{
layerId = "18A8C34B-6260-4854-BBF8-229863F38B25";
shapes = (
{
closed = 1;
nodes = (
(465,-47,o),
(586,43,o),
(586,172,cs),
(586,242,o),
(535,285,o),
(472,336,c),
(410,336,l),
(441,289,o),
(447,259,o),
(447,216,cs),
(447,134,o),
(369,75,o),
(320,75,cs),
(290,75,o),
(271,88,o),
(271,124,cs),
(271,497,ls),
(271,579,o),
(230,639,o),
(149,639,cs),
(87,639,o),
(50,603,o),
(50,546,cs),
(50,489,o),
(89,456,o),
(133,456,cs),
(188,456,o),
(207,499,o),
(208,529,c),
(156,538,l),
(156,139,ls),
(156,32,o),
(244,-47,o),
(350,-47,cs)
);
},
{
closed = 1;
nodes = (
(288,271,o),
(385,310,o),
(470,310,cs),
(535,310,o),
(565,267,o),
(621,267,cs),
(680,267,o),
(710,319,o),
(722,434,c),
(667,446,l),
(640,385,o),
(621,375,o),
(580,375,cs),
(505,375,o),
(470,412,o),
(388,412,cs),
(337,412,o),
(285,401,o),
(234,380,c),
(234,236,l)
);
}
);
vertWidth = 0;
width = 717;
},
{
layerId = "33F2F8B2-CCE7-4937-A852-9C044B0330C5";
shapes = (
{
closed = 1;
nodes = (
(232,30,o),
(303,124,o),
(303,236,cs),
(303,276,o),
(288,317,o),
(251,363,c),
(226,367,l),
(265,316,o),
(279,275,o),
(279,238,cs),
(279,144,o),
(221,54,o),
(164,54,cs),
(136,54,o),
(117,74,o),
(117,118,cs),
(117,578,ls),
(117,609,o),
(101,627,o),
(79,627,cs),
(58,627,o),
(44,612,o),
(44,590,cs),
(44,565,o),
(58,551,o),
(78,551,cs),
(97,551,o),
(104,563,o),
(106,578,c),
(95,580,l),
(95,119,ls),
(95,64,o),
(121,30,o),
(169,30,cs)
);
},
{
closed = 1;
nodes = (
(140,344,o),
(177,365,o),
(216,365,cs),
(273,365,o),
(290,324,o),
(332,324,cs),
(355,324,o),
(370,348,o),
(377,395,c),
(361,399,l),
(356,376,o),
(346,351,o),
(325,351,cs),
(287,351,o),
(270,388,o),
(206,388,cs),
(174,388,o),
(138,371,o),
(108,351,c),
(107,319,l)
);
}
);
vertWidth = 0;
width = 392;
},
{
layerId = "5278E13D-D735-4789-ABCD-F52B0BBC306E";
shapes = (
{
closed = 1;
nodes = (
(290,11,o),
(369,112,o),
(369,214,cs),
(369,265,o),
(344,297,o),
(304,348,c),
(271,348,l),
(291,304,o),
(303,277,o),
(303,237,cs),
(303,150,o),
(252,74,o),
(200,74,cs),
(177,74,o),
(157,90,o),
(158,132,cs),
(158,532,ls),
(158,592,o),
(129,624,o),
(87,624,cs),
(48,624,o),
(28,595,o),
(28,560,cs),
(28,524,o),
(49,497,o),
(86,497,cs),
(116,497,o),
(126,517,o),
(128,545,c),
(106,545,l),
(106,142,ls),
(106,70,o),
(150,11,o),
(217,11,cs)
);
},
{
closed = 1;
nodes = (
(179,312,o),
(237,343,o),
(290,343,cs),
(334,343,o),
(356,305,o),
(390,305,cs),
(424,305,o),
(445,325,o),
(452,422,c),
(421,431,l),
(406,381,o),
(394,371,o),
(367,371,cs),
(316,371,o),
(293,398,o),
(243,398,cs),
(213,398,o),
(177,386,o),
(145,364,c),
(143,279,l)
);
}
);
vertWidth = 0;
width = 462;
},
{
layerId = "03D26766-37BE-4C80-9191-ECBB7A84F3C2";
shapes = (
{
closed = 1;
nodes = (
(413,-44,o),
(518,47,o),
(518,174,cs),
(518,243,o),
(470,285,o),
(415,337,c),
(357,337,l),
(381,290,o),
(390,258,o),
(390,217,cs),
(390,135,o),
(336,77,o),
(285,77,cs),
(257,77,o),
(246,94,o),
(246,124,cs),
(246,508,ls),
(246,576,o),
(209,638,o),
(130,638,cs),
(76,638,o),
(38,603,o),
(38,548,cs),
(38,492,o),
(73,458,o),
(121,458,cs),
(172,458,o),
(186,500,o),
(186,530,c),
(135,538,l),
(135,136,ls),
(135,31,o),
(214,-44,o),
(312,-44,cs)
);
},
{
closed = 1;
nodes = (
(255,272,o),
(344,312,o),
(421,312,cs),
(474,312,o),
(494,269,o),
(542,269,cs),
(595,269,o),
(622,319,o),
(625,433,c),
(569,445,l),
(556,393,o),
(546,375,o),
(505,375,cs),
(439,375,o),
(411,411,o),
(342,411,cs),
(297,411,o),
(254,400,o),
(210,379,c),
(210,238,l)
);
}
);
vertWidth = 0;
width = 628;
}
);
production = uni09EE;
script = bengali;
subCategory = "Decimal Digit";
unicode = 2542;
}
{
category = Symbol;
glyphname = "rupeemark-beng";
layers = (
{
layerId = "94EB6DF8-7434-4BE0-9F23-77BCD575F5B8";
shapes = (
{
closed = 1;
nodes = (
(505,26,l),
(380,319,o),
(261,439,o),
(103,535,c),
(100,505,l),
(265,413,o),
(372,268,o),
(486,18,c)
);
}
);
vertWidth = 0;
width = 570;
},
{
layerId = "B2542900-2B87-4688-8902-A06B6D3D93DD";
shapes = (
{
closed = 1;
nodes = (
(515,26,l),
(388,340,o),
(234,459,o),
(113,545,c),
(90,455,l),
(190,394,o),
(343,286,o),
(478,14,c)
);
}
);
vertWidth = 0;
width = 570;
},
{
layerId = "18A8C34B-6260-4854-BBF8-229863F38B25";
shapes = (
{
closed = 1;
nodes = (
(565,23,l),
(439,353,o),
(236,490,o),
(109,558,c),
(70,384,l),
(175,342,o),
(358,269,o),
(492,1,c)
);
}
);
vertWidth = 0;
width = 596;
},
{
layerId = "33F2F8B2-CCE7-4937-A852-9C044B0330C5";
shapes = (
{
closed = 1;
nodes = (
(360,26,l),
(271,319,o),
(182,438,o),
(81,534,c),
(70,505,l),
(179,413,o),
(260,268,o),
(342,18,c)
);
}
);
vertWidth = 0;
width = 405;
},
{
layerId = "5278E13D-D735-4789-ABCD-F52B0BBC306E";
shapes = (
{
closed = 1;
nodes = (
(379,26,l),
(289,340,o),
(166,459,o),
(79,545,c),
(58,455,l),
(131,393,o),
(247,286,o),
(343,14,c)
);
}
);
vertWidth = 0;
width = 412;
},
{
layerId = "03D26766-37BE-4C80-9191-ECBB7A84F3C2";
shapes = (
{
closed = 1;
nodes = (
(435,23,l),
(343,353,o),
(166,491,o),
(79,558,c),
(41,384,l),
(109,342,o),
(263,268,o),
(363,1,c)
);
}
);
vertWidth = 0;
width = 446;
}
);
production = uni09F2;
script = bengali;
subCategory = Currency;
unicode = 2546;
}
{
category = Number;
glyphname = "twoNumr-beng";
layers = (
{
layerId = "94EB6DF8-7434-4BE0-9F23-77BCD575F5B8";
shapes = (
{
closed = 1;
nodes = (
(327,128,o),
(445,277,o),
(494,612,c),
(476,617,l),
(441,423,o),
(397,276,o),
(294,164,c),
(298,157,l),
(302,169,o),
(306,194,o),
(306,219,cs),
(306,305,o),
(247,367,o),
(165,367,cs),
(91,367,o),
(50,322,o),
(50,277,cs),
(50,245,o),
(69,224,o),
(97,224,cs),
(122,224,o),
(140,240,o),
(140,267,cs),
(140,290,o),
(124,313,o),
(87,311,c),
(91,296,l),
(96,314,o),
(118,343,o),
(172,343,cs),
(248,343,o),
(283,279,o),
(283,221,cs),
(283,136,o),
(238,101,o),
(172,64,c),
(196,46,l)
);
}
);
vertWidth = 0;
width = 569;
},
{
layerId = "B2542900-2B87-4688-8902-A06B6D3D93DD";
shapes = (
{
closed = 1;
nodes = (
(368,99,o),
(496,284,o),
(557,625,c),
(514,637,l),
(466,433,o),
(393,288,o),
(306,199,c),
(326,162,l),
(332,176,o),
(334,193,o),
(334,209,cs),
(334,333,o),
(249,392,o),
(161,392,cs),
(80,392,o),
(35,338,o),
(35,280,cs),
(35,223,o),
(68,195,o),
(112,195,cs),
(158,195,o),
(184,227,o),
(184,263,cs),
(184,293,o),
(172,311,o),
(147,325,c),
(134,305,l),
(145,314,o),
(173,322,o),
(190,322,cs),
(244,322,o),
(271,288,o),
(271,235,cs),
(271,158,o),
(217,113,o),
(150,78,c),
(223,11,l)
);
}
);
vertWidth = 0;
width = 632;
},
{
layerId = "18A8C34B-6260-4854-BBF8-229863F38B25";
shapes = (
{
closed = 1;
nodes = (
(498,97,o),
(628,291,o),
(706,649,c),
(622,670,l),
(559,463,o),
(482,329,o),
(374,231,c),
(411,191,l),
(419,209,o),
(421,230,o),
(421,248,cs),
(421,399,o),
(316,485,o),
(202,485,cs),
(101,485,o),
(30,426,o),
(30,332,cs),
(30,255,o),
(79,215,o),
(141,215,cs),
(206,215,o),
(242,258,o),
(242,311,cs),
(242,354,o),
(222,381,o),
(190,396,c),
(168,358,l),
(185,374,o),
(201,385,o),
(234,385,cs),
(288,385,o),
(319,334,o),
(319,273,cs),
(319,184,o),
(238,121,o),
(154,93,c),
(302,-19,l)
);
}
);
vertWidth = 0;
width = 766;
},
{
layerId = "33F2F8B2-CCE7-4937-A852-9C044B0330C5";
shapes = (
{
closed = 1;
nodes = (
(238,128,o),
(322,279,o),
(359,612,c),
(341,615,l),
(316,418,o),
(280,271,o),
(211,161,c),
(213,154,l),
(218,174,o),
(221,206,o),
(221,234,cs),
(221,322,o),
(182,367,o),
(121,367,cs),
(67,367,o),
(34,322,o),
(34,277,cs),
(34,245,o),
(51,224,o),
(78,224,cs),
(101,224,o),
(117,240,o),
(117,267,cs),
(117,290,o),
(103,311,o),
(68,311,c),
(69,296,l),
(73,320,o),
(89,343,o),
(125,343,cs),
(176,343,o),
(200,297,o),
(200,236,cs),
(200,137,o),
(167,101,o),
(120,64,c),
(143,46,l)
);
}
);
vertWidth = 0;
width = 412;
},
{
layerId = "5278E13D-D735-4789-ABCD-F52B0BBC306E";
shapes = (
{
closed = 1;
nodes = (
(294,101,o),
(391,274,o),
(436,625,c),
(392,634,l),
(359,434,o),
(309,283,o),
(236,194,c),
(258,185,l),
(263,199,o),
(265,217,o),
(265,232,cs),
(265,341,o),
(212,392,o),
(134,392,cs),
(68,392,o),
(23,337,o),
(23,280,cs),
(23,223,o),
(57,196,o),
(93,196,cs),
(135,196,o),
(157,224,o),
(157,263,cs),
(157,295,o),
(143,316,o),
(112,327,c),
(110,302,l),
(116,313,o),
(130,326,o),
(151,326,cs),
(186,326,o),
(210,292,o),
(210,240,cs),
(210,154,o),
(160,109,o),
(107,75,c),
(179,11,l)
);
}
);
vertWidth = 0;
width = 485;
},
{
layerId = "03D26766-37BE-4C80-9191-ECBB7A84F3C2";
shapes = (
{
closed = 1;
nodes = (
(413,96,o),
(521,291,o),
(587,649,c),
(505,670,l),
(450,463,o),
(393,308,o),
(305,227,c),
(339,207,l),
(347,226,o),
(348,249,o),
(348,264,cs),
(348,419,o),
(256,485,o),
(162,485,cs),
(79,485,o),
(17,420,o),
(17,335,cs),
(17,255,o),
(63,215,o),
(119,215,cs),
(180,215,o),
(211,259,o),
(211,311,cs),
(211,352,o),
(195,380,o),
(169,396,c),
(149,357,l),
(161,373,o),
(175,385,o),
(197,385,cs),
(235,385,o),
(260,348,o),
(260,287,cs),
(260,175,o),
(181,122,o),
(115,93,c),
(262,-19,l)
);
}
);
vertWidth = 0;
width = 625;
}
);
production = uni09F5;
script = bengali;
subCategory = Other;
unicode = 2549;
}
{
category = Number;
glyphname = "threeNumr-beng";
layers = (
{
layerId = "94EB6DF8-7434-4BE0-9F23-77BCD575F5B8";
shapes = (
{
closed = 1;
nodes = (
(297,46,o),
(444,157,o),
(548,612,c),
(530,617,l),
(453,281,o),
(324,68,o),
(190,68,cs),
(145,68,o),
(103,94,o),
(103,131,cs),
(103,168,o),
(128,182,o),
(203,211,cs),
(286,243,o),
(310,277,o),
(310,327,cs),
(310,392,o),
(253,435,o),
(189,435,cs),
(124,435,o),
(83,396,o),
(83,351,cs),
(83,319,o),
(102,298,o),
(130,298,cs),
(155,298,o),
(173,314,o),
(173,341,cs),
(173,364,o),
(157,387,o),
(120,383,c),
(124,370,l),
(129,388,o),
(147,412,o),
(198,412,cs),
(255,412,o),
(289,372,o),
(289,330,cs),
(289,291,o),
(269,260,o),
(188,230,cs),
(107,200,o),
(79,180,o),
(79,135,cs),
(79,84,o),
(127,46,o),
(195,46,cs)
);
}
);
vertWidth = 0;
width = 623;
},
{
layerId = "B2542900-2B87-4688-8902-A06B6D3D93DD";
shapes = (
{
closed = 1;
nodes = (
(360,15,o),
(506,142,o),
(617,625,c),
(574,637,l),
(460,239,o),
(288,78,o),
(183,78,cs),
(154,78,o),
(139,92,o),
(139,111,cs),
(139,138,o),
(174,159,o),
(231,179,cs),
(323,211,o),
(362,249,o),
(362,318,cs),
(362,420,o),
(279,469,o),
(199,469,cs),
(119,469,o),
(78,418,o),
(78,365,cs),
(78,312,o),
(113,284,o),
(156,284,cs),
(203,284,o),
(227,316,o),
(227,350,cs),
(227,374,o),
(215,399,o),
(190,413,c),
(177,393,l),
(188,398,o),
(207,402,o),
(224,402,cs),
(274,402,o),
(310,387,o),
(310,348,cs),
(310,305,o),
(277,287,o),
(197,258,cs),
(137,236,o),
(70,210,o),
(70,150,cs),
(70,87,o),
(132,15,o),
(235,15,cs)
);
}
);
vertWidth = 0;
width = 692;
},
{
layerId = "18A8C34B-6260-4854-BBF8-229863F38B25";
shapes = (
{
closed = 1;
nodes = (
(447,-28,o),
(610,45,o),
(760,649,c),
(676,670,l),
(538,204,o),
(343,86,o),
(238,86,cs),
(211,86,o),
(192,94,o),
(192,112,cs),
(192,136,o),
(212,139,o),
(296,169,cs),
(405,208,o),
(448,270,o),
(448,347,cs),
(448,471,o),
(334,538,o),
(218,538,cs),
(113,538,o),
(58,484,o),
(58,406,cs),
(58,337,o),
(101,301,o),
(159,301,cs),
(216,301,o),
(251,336,o),
(251,384,cs),
(251,421,o),
(236,442,o),
(207,456,c),
(210,401,l),
(227,422,o),
(242,432,o),
(268,432,cs),
(309,432,o),
(331,416,o),
(331,382,cs),
(331,340,o),
(296,310,o),
(198,282,cs),
(91,251,o),
(50,214,o),
(50,148,cs),
(50,48,o),
(166,-28,o),
(279,-28,cs)
);
}
);
vertWidth = 0;
width = 820;
},
{
layerId = "33F2F8B2-CCE7-4937-A852-9C044B0330C5";
shapes = (
{
closed = 1;
nodes = (
(219,46,o),
(323,157,o),
(398,612,c),
(381,616,l),
(323,283,o),
(237,70,o),
(140,70,cs),
(109,70,o),
(79,93,o),
(79,133,cs),
(79,172,o),
(101,185,o),
(148,211,cs),
(210,246,o),
(228,282,o),
(228,332,cs),
(228,399,o),
(186,435,o),
(137,435,cs),
(89,435,o),
(58,396,o),
(58,351,cs),
(58,319,o),
(76,298,o),
(100,298,cs),
(123,298,o),
(137,313,o),
(137,340,cs),
(137,363,o),
(119,384,o),
(90,383,c),
(91,370,l),
(95,392,o),
(109,412,o),
(144,412,cs),
(183,412,o),
(208,378,o),
(208,333,cs),
(208,294,o),
(192,260,o),
(135,230,cs),
(83,202,o),
(55,182,o),
(55,134,cs),
(55,84,o),
(93,46,o),
(142,46,cs)
);
}
);
vertWidth = 0;
width = 451;
},
{
layerId = "5278E13D-D735-4789-ABCD-F52B0BBC306E";
shapes = (
{
closed = 1;
nodes = (
(285,15,o),
(387,142,o),
(477,625,c),
(435,637,l),
(348,239,o),
(223,78,o),
(152,78,cs),
(129,78,o),
(112,93,o),
(112,114,cs),
(112,140,o),
(132,156,o),
(181,180,cs),
(243,210,o),
(280,253,o),
(280,322,cs),
(280,424,o),
(217,469,o),
(151,469,cs),
(83,469,o),
(50,418,o),
(50,365,cs),
(50,312,o),
(81,284,o),
(117,284,cs),
(156,284,o),
(176,316,o),
(176,350,cs),
(176,374,o),
(170,401,o),
(139,413,c),
(134,378,l),
(144,393,o),
(159,404,o),
(177,404,cs),
(205,404,o),
(230,386,o),
(230,347,cs),
(230,304,o),
(202,279,o),
(140,252,cs),
(82,227,o),
(44,198,o),
(44,146,cs),
(44,83,o),
(104,15,o),
(180,15,cs)
);
}
);
vertWidth = 0;
width = 526;
},
{
layerId = "03D26766-37BE-4C80-9191-ECBB7A84F3C2";
shapes = (
{
closed = 1;
nodes = (
(375,-28,o),
(508,58,o),
(615,649,c),
(533,669,l),
(426,204,o),
(291,86,o),
(199,86,cs),
(181,86,o),
(163,96,o),
(163,116,cs),
(163,138,o),
(180,146,o),
(248,173,cs),
(338,209,o),
(372,270,o),
(372,347,cs),
(372,471,o),
(275,538,o),
(174,538,cs),
(94,538,o),
(34,482,o),
(34,403,cs),
(34,334,o),
(75,301,o),
(126,301,cs),
(175,301,o),
(207,336,o),
(207,384,cs),
(207,421,o),
(191,442,o),
(170,456,c),
(172,403,l),
(184,424,o),
(200,432,o),
(220,432,cs),
(245,432,o),
(264,418,o),
(264,385,cs),
(264,344,o),
(231,310,o),
(146,282,cs),
(62,254,o),
(27,213,o),
(27,148,cs),
(27,48,o),
(137,-28,o),
(232,-28,cs)
);
}
);
vertWidth = 0;
width = 655;
}
);
production = uni09F6;
script = bengali;
subCategory = Other;
unicode = 2550;
}
{
category = Number;
glyphname = "fourNumr-beng";
layers = (
{
layerId = "94EB6DF8-7434-4BE0-9F23-77BCD575F5B8";
shapes = (
{
closed = 1;
nodes = (
(217,22,o),
(233,37,o),
(233,59,cs),
(233,84,o),
(217,98,o),
(195,98,cs),
(172,98,o),
(164,86,o),
(162,71,c),
(173,69,l),
(173,578,ls),
(173,609,o),
(156,627,o),
(128,627,cs),
(106,627,o),
(90,612,o),
(90,590,cs),
(90,565,o),
(106,551,o),
(128,551,cs),
(151,551,o),
(159,563,o),
(161,578,c),
(150,580,l),
(150,71,ls),
(150,40,o),
(167,22,o),
(195,22,cs)
);
}
);
vertWidth = 0;
width = 303;
},
{
layerId = "B2542900-2B87-4688-8902-A06B6D3D93DD";
shapes = (
{
closed = 1;
nodes = (
(270,0,o),
(290,26,o),
(290,62,cs),
(290,100,o),
(265,127,o),
(227,127,cs),
(192,127,o),
(179,107,o),
(175,79,c),
(203,79,l),
(203,532,ls),
(203,592,o),
(174,624,o),
(126,624,cs),
(84,624,o),
(60,594,o),
(60,558,cs),
(60,524,o),
(84,497,o),
(122,497,cs),
(157,497,o),
(170,517,o),
(174,545,c),
(149,545,l),
(149,102,ls),
(149,42,o),
(180,0,o),
(228,0,cs)
);
}
);
vertWidth = 0;
width = 350;
},
{
layerId = "18A8C34B-6260-4854-BBF8-229863F38B25";
shapes = (
{
closed = 1;
nodes = (
(345,-47,o),
(379,-11,o),
(379,47,cs),
(379,104,o),
(340,138,o),
(295,138,cs),
(240,138,o),
(221,95,o),
(220,64,c),
(272,55,l),
(272,496,ls),
(272,579,o),
(231,639,o),
(150,639,cs),
(87,639,o),
(50,602,o),
(50,545,cs),
(50,488,o),
(89,454,o),
(134,454,cs),
(189,454,o),
(208,497,o),
(209,528,c),
(157,537,l),
(157,100,ls),
(157,17,o),
(200,-47,o),
(281,-47,cs)
);
}
);
vertWidth = 0;
width = 379;
},
{
layerId = "33F2F8B2-CCE7-4937-A852-9C044B0330C5";
shapes = (
{
closed = 1;
nodes = (
(161,22,o),
(175,37,o),
(175,59,cs),
(175,84,o),
(161,98,o),
(141,98,cs),
(123,98,o),
(117,86,o),
(115,71,c),
(126,69,l),
(126,578,ls),
(126,608,o),
(113,627,o),
(89,627,cs),
(68,627,o),
(54,612,o),
(54,590,cs),
(54,565,o),
(68,551,o),
(89,551,cs),
(107,551,o),
(113,563,o),
(115,578,c),
(104,580,l),
(104,71,ls),
(104,41,o),
(117,22,o),
(141,22,cs)
);
}
);
vertWidth = 0;
width = 220;
},
{
layerId = "5278E13D-D735-4789-ABCD-F52B0BBC306E";
shapes = (
{
closed = 1;
nodes = (
(220,0,o),
(241,28,o),
(241,65,cs),
(241,101,o),
(218,127,o),
(184,127,cs),
(155,127,o),
(139,107,o),
(134,79,c),
(163,79,l),
(163,532,ls),
(163,592,o),
(137,624,o),
(96,624,cs),
(55,624,o),
(34,596,o),
(34,559,cs),
(34,523,o),
(57,497,o),
(91,497,cs),
(120,497,o),
(136,517,o),
(141,545,c),
(112,545,l),
(112,92,ls),
(112,32,o),
(138,0,o),
(179,0,cs)
);
}
);
vertWidth = 0;
width = 256;
},
{
layerId = "03D26766-37BE-4C80-9191-ECBB7A84F3C2";
shapes = (
{
closed = 1;
nodes = (
(296,-46,o),
(332,-10,o),
(332,47,cs),
(332,103,o),
(297,135,o),
(255,135,cs),
(205,135,o),
(190,95,o),
(190,65,c),
(238,61,l),
(238,498,ls),
(238,581,o),
(203,639,o),
(127,639,cs),
(71,639,o),
(35,603,o),
(35,546,cs),
(35,490,o),
(70,458,o),
(112,458,cs),
(162,458,o),
(177,498,o),
(177,528,c),
(129,532,l),
(129,95,ls),
(129,12,o),
(164,-46,o),
(240,-46,cs)
);
}
);
vertWidth = 0;
width = 327;
}
);
production = uni09F7;
script = bengali;
subCategory = Other;
unicode = 2551;
}
{
category = Mark;
color = 10;
glyphname = uni09FE;
layers = (
{
layerId = "94EB6DF8-7434-4BE0-9F23-77BCD575F5B8";
shapes = (
{
closed = 1;
nodes = (
(139,866,l),
(83,907,o),
(28,945,o),
(-91,966,c),
(-87,957,l),
(-68,954,o),
(-50,952,o),
(-26,952,cs),
(58,952,o),
(96,985,o),
(96,1041,cs),
(96,1096,o),
(53,1126,o),
(-3,1126,cs),
(-65,1126,o),
(-85,1110,o),
(-85,1085,cs),
(-85,1065,o),
(-71,1053,o),
(-53,1053,cs),
(-28,1053,o),
(-15,1071,o),
(-15,1093,cs),
(-15,1123,o),
(-35,1157,o),
(-72,1178,c),
(-171,1178,l),
(-162,1159,l),
(-65,1159,l),
(-73,1170,l),
(-93,1170,l),
(-57,1150,o),
(-45,1137,o),
(-35,1111,c),
(-45,1099,l),
(-31,1104,o),
(-20,1106,o),
(1,1106,cs),
(39,1106,o),
(76,1090,o),
(76,1042,cs),
(76,982,o),
(23,970,o),
(-31,970,cs),
(-59,970,o),
(-92,975,o),
(-110,982,c),
(-103,950,l),
(-5,934,o),
(60,904,o),
(128,852,c)
);
}
);
vertWidth = 0;
width = 0;
},
{
layerId = "B2542900-2B87-4688-8902-A06B6D3D93DD";
shapes = (
{
closed = 1;
nodes = (
(158,890,l),
(110,933,o),
(34,978,o),
(-32,991,c),
(-63,974,l),
(-50,968,o),
(-30,965,o),
(-9,965,cs),
(54,965,o),
(108,1004,o),
(108,1066,cs),
(108,1116,o),
(72,1161,o),
(-22,1161,cs),
(-72,1161,o),
(-107,1143,o),
(-107,1108,cs),
(-107,1079,o),
(-87,1057,o),
(-51,1057,cs),
(-9,1057,o),
(3,1081,o),
(3,1118,cs),
(3,1152,o),
(-30,1198,o),
(-57,1212,c),
(-179,1212,l),
(-161,1177,l),
(-63,1177,l),
(-71,1190,l),
(-97,1191,l),
(-70,1181,o),
(-44,1162,o),
(-37,1135,c),
(-39,1101,l),
(-28,1110,o),
(-8,1118,o),
(15,1118,cs),
(53,1118,o),
(71,1099,o),
(71,1072,cs),
(71,1035,o),
(37,1016,o),
(-23,1016,cs),
(-57,1016,o),
(-86,1019,o),
(-115,1028,c),
(-103,968,l),
(-7,955,o),
(57,930,o),
(137,866,c)
);
}
);
vertWidth = 0;
width = 0;
},
{
layerId = "18A8C34B-6260-4854-BBF8-229863F38B25";
shapes = (
{
closed = 1;
nodes = (
(170,956,l),
(111,1006,o),
(38,1046,o),
(-37,1059,c),
(-67,1026,l),
(-56,1021,o),
(-39,1017,o),
(-21,1017,cs),
(80,1017,o),
(129,1059,o),
(129,1120,cs),
(129,1176,o),
(84,1226,o),
(-18,1226,cs),
(-93,1226,o),
(-122,1204,o),
(-122,1164,cs),
(-122,1121,o),
(-91,1103,o),
(-48,1103,cs),
(-3,1103,o),
(21,1123,o),
(21,1176,cs),
(21,1208,o),
(-3,1251,o),
(-39,1273,c),
(-199,1273,l),
(-174,1226,l),
(-73,1226,l),
(-89,1239,l),
(-135,1246,l),
(-97,1233,o),
(-69,1218,o),
(-48,1197,c),
(-42,1153,l),
(-32,1162,o),
(-7,1172,o),
(7,1172,cs),
(39,1172,o),
(55,1157,o),
(55,1137,cs),
(55,1103,o),
(18,1085,o),
(-37,1085,cs),
(-72,1085,o),
(-103,1092,o),
(-131,1102,c),
(-112,1013,l),
(-25,1005,o),
(48,977,o),
(139,919,c)
);
}
);
vertWidth = 0;
width = 0;
},
{
layerId = "33F2F8B2-CCE7-4937-A852-9C044B0330C5";
shapes = (
{
closed = 1;
nodes = (
(133,867,l),
(80,908,o),
(29,946,o),
(-82,967,c),
(-79,958,l),
(-61,955,o),
(-44,953,o),
(-22,953,cs),
(57,953,o),
(93,986,o),
(93,1042,cs),
(93,1097,o),
(52,1127,o),
(0,1127,cs),
(-59,1127,o),
(-78,1111,o),
(-78,1086,cs),
(-78,1066,o),
(-65,1054,o),
(-47,1054,cs),
(-23,1054,o),
(-10,1072,o),
(-10,1094,cs),
(-10,1124,o),
(-29,1158,o),
(-64,1179,c),
(-147,1179,l),
(-139,1160,l),
(-58,1160,l),
(-65,1171,l),
(-86,1171,l),
(-53,1151,o),
(-41,1138,o),
(-32,1112,c),
(-39,1100,l),
(-26,1105,o),
(-16,1107,o),
(4,1107,cs),
(39,1107,o),
(73,1091,o),
(73,1043,cs),
(73,983,o),
(24,971,o),
(-26,971,cs),
(-52,971,o),
(-83,976,o),
(-100,983,c),
(-93,951,l),
(-2,935,o),
(59,905,o),
(122,853,c)
);
}
);
vertWidth = 0;
width = 0;
},
{
layerId = "5278E13D-D735-4789-ABCD-F52B0BBC306E";
shapes = (
{
closed = 1;
nodes = (
(147,890,l),
(103,933,o),
(34,978,o),
(-27,991,c),
(-55,974,l),
(-44,968,o),
(-25,965,o),
(-6,965,cs),
(52,965,o),
(102,1004,o),
(102,1066,cs),
(102,1116,o),
(68,1161,o),
(-18,1161,cs),
(-64,1161,o),
(-96,1143,o),
(-96,1108,cs),
(-96,1079,o),
(-78,1057,o),
(-44,1057,cs),
(-6,1057,o),
(5,1081,o),
(5,1118,cs),
(5,1152,o),
(-25,1198,o),
(-50,1212,c),
(-162,1212,l),
(-145,1177,l),
(-55,1177,l),
(-63,1190,l),
(-87,1191,l),
(-62,1181,o),
(-38,1162,o),
(-32,1135,c),
(-33,1101,l),
(-23,1110,o),
(-5,1118,o),
(16,1118,cs),
(51,1118,o),
(68,1099,o),
(68,1072,cs),
(68,1035,o),
(36,1016,o),
(-19,1016,cs),
(-50,1016,o),
(-77,1019,o),
(-103,1028,c),
(-92,968,l),
(-4,955,o),
(55,930,o),
(128,866,c)
);
}
);
vertWidth = 0;
width = 0;
},
{
associatedMasterId = "5278E13D-D735-4789-ABCD-F52B0BBC306E";
attr = {
coordinates = (
152,
70
);
};
background = {
shapes = (
{
closed = 1;
nodes = (
(159.18,928.28,l),
(108.22,975.34,o),
(38.64,1017.44,o),
(-28.16,1030.44,c),
(-56.16,1004.16,l),
(-45.74,998.74,o),
(-28.48,995.16,o),
(-10.64,995.16,cs),
(68.82,995.16,o),
(117.66,1035.9,o),
(117.66,1097.32,cs),
(117.66,1150.8,o),
(77.86,1198.7,o),
(-13.94,1198.7,cs),
(-73.86,1198.7,o),
(-103.54,1178.38,o),
(-103.54,1140.48,cs),
(-103.54,1103.36,o),
(-79.16,1083.68,o),
(-41.1,1083.68,cs),
(-0.78,1083.68,o),
(18.34,1105.36,o),
(18.34,1151.64,cs),
(18.34,1184.48,o),
(-7.6,1228.74,o),
(-37.82,1247.38,c),
(-173.02,1247.38,l),
(-152.54,1205.42,l),
(-59.64,1205.42,l),
(-71.7,1218.42,l),
(-106.72,1222.9,l),
(-75.34,1211.16,o),
(-50.18,1194.48,o),
(-36.06,1170.96,c),
(-33.58,1131.16,l),
(-23.58,1140.16,o),
(-2.68,1149.32,o),
(13.68,1149.32,cs),
(46.36,1149.32,o),
(62.2,1132.64,o),
(62.2,1109.7,cs),
(62.2,1074.44,o),
(28.46,1056.02,o),
(-24.8,1056.02,cs),
(-56.96,1056.02,o),
(-85.12,1061.34,o),
(-111.12,1070.92,c),
(-96.06,994.1,l),
(-12.12,984,o),
(52.68,957.26,o),
(132.64,896.74,c)
);
}
);
};
layerId = "04438a23-0ca9-4b0d-b639-365ed5d6fe58";
name = "Bold Condensed (intermediate)";
shapes = (
{
closed = 1;
nodes = (
(158,954,l),
(107,1001,o),
(37,1043,o),
(-30,1056,c),
(-58,1029,l),
(-47,1024,o),
(-30,1020,o),
(-13,1020,cs),
(68,1020,o),
(117,1061,o),
(117,1123,cs),
(117,1176,o),
(77,1224,o),
(-15,1224,cs),
(-76,1224,o),
(-106,1204,o),
(-106,1166,cs),
(-106,1128,o),
(-81,1109,o),
(-43,1109,cs),
(-2,1109,o),
(17,1130,o),
(17,1177,cs),
(17,1210,o),
(-8,1254,o),
(-39,1273,c),
(-175,1273,l),
(-155,1231,l),
(-62,1231,l),
(-74,1244,l),
(-109,1248,l),
(-78,1236,o),
(-52,1220,o),
(-38,1196,c),
(-35,1156,l),
(-25,1165,o),
(-4,1175,o),
(12,1175,cs),
(44,1175,o),
(60,1158,o),
(60,1135,cs),
(60,1100,o),
(26,1082,o),
(-27,1082,cs),
(-59,1082,o),
(-87,1087,o),
(-113,1097,c),
(-98,1019,l),
(-14,1009,o),
(51,982,o),
(131,922,c)
);
}
);
vertWidth = 0;
width = 0;
},
{
layerId = "03D26766-37BE-4C80-9191-ECBB7A84F3C2";
shapes = (
{
closed = 1;
nodes = (
(168,956,l),
(112,1006,o),
(42,1046,o),
(-29,1059,c),
(-57,1026,l),
(-47,1021,o),
(-31,1017,o),
(-14,1017,cs),
(81,1017,o),
(129,1059,o),
(129,1120,cs),
(129,1176,o),
(85,1226,o),
(-11,1226,cs),
(-81,1226,o),
(-109,1204,o),
(-109,1164,cs),
(-109,1121,o),
(-80,1103,o),
(-39,1103,cs),
(3,1103,o),
(28,1123,o),
(28,1176,cs),
(28,1208,o),
(5,1251,o),
(-29,1273,c),
(-181,1273,l),
(-158,1226,l),
(-63,1226,l),
(-78,1239,l),
(-121,1246,l),
(-85,1233,o),
(-59,1218,o),
(-39,1197,c),
(-34,1153,l),
(-24,1162,o),
(-1,1172,o),
(12,1172,cs),
(43,1172,o),
(58,1157,o),
(58,1137,cs),
(58,1103,o),
(23,1085,o),
(-29,1085,cs),
(-62,1085,o),
(-91,1092,o),
(-117,1102,c),
(-99,1013,l),
(-18,1005,o),
(51,977,o),
(136,919,c)
);
}
);
vertWidth = 0;
width = 0;
}
);
script = bengali;
subCategory = Nonspacing;
unicode = 2558;
}
{
category = Mark;
glyphname = uni1CD0;
layers = (
{
anchors = (
{
name = _vedic;
pos = (-299,-220);
}
);
layerId = "94EB6DF8-7434-4BE0-9F23-77BCD575F5B8";
shapes = (
{
closed = 1;
nodes = (
(-289,888,l),
(-298,886,l),
(-153,710,l),
(-137,725,l),
(-295,917,l),
(-459,723,l),
(-439,708,l)
);
}
);
vertWidth = 0;
width = 0;
},
{
anchors = (
{
name = _vedic;
pos = (-299,-250);
}
);
layerId = "B2542900-2B87-4688-8902-A06B6D3D93DD";
shapes = (
{
closed = 1;
nodes = (
(-276,843,l),
(-285,844,l),
(-161,700,l),
(-132,729,l),
(-305,935,l),
(-465,750,l),
(-396,700,l)
);
}
);
vertWidth = 0;
width = 0;
},
{
anchors = (
{
name = _vedic;
pos = (-299,-280);
}
);
layerId = "18A8C34B-6260-4854-BBF8-229863F38B25";
shapes = (
{
closed = 1;
nodes = (
(-233,837,l),
(-297,837,l),
(-158,685,l),
(-104,738,l),
(-307,962,l),
(-494,775,l),
(-376,685,l)
);
}
);
vertWidth = 0;
width = 0;
},
{
anchors = (
{
name = _vedic;
pos = (-299,-220);
}
);
layerId = "33F2F8B2-CCE7-4937-A852-9C044B0330C5";
shapes = (
{
closed = 1;
nodes = (
(-295,888,l),
(-301,885,l),
(-200,704,l),
(-181,715,l),
(-299,922,l),
(-416,716,l),
(-397,705,l)
);
}
);
vertWidth = 0;
width = 0;
},
{
anchors = (
{
name = _vedic;
pos = (-299,-250);
}
);
layerId = "5278E13D-D735-4789-ABCD-F52B0BBC306E";
shapes = (
{
closed = 1;
nodes = (
(-276,853,l),
(-299,853,l),
(-189,700,l),
(-155,724,l),
(-304,934,l),
(-441,740,l),
(-379,700,l)
);
}
);
vertWidth = 0;
width = 0;
},
{
anchors = (
{
name = _vedic;
pos = (-299,-280);
}
);
layerId = "03D26766-37BE-4C80-9191-ECBB7A84F3C2";
shapes = (
{
closed = 1;
nodes = (
(-255,831,l),
(-299,831,l),
(-191,690,l),
(-130,732,l),
(-304,957,l),
(-467,761,l),
(-356,690,l)
);
}
);
vertWidth = 0;
width = 0;
}
);
note = uni1CD0;
script = bengali;
subCategory = Nonspacing;
unicode = 7376;
}
{
category = Mark;
glyphname = uni1CD5;
layers = (
{
anchors = (
{
name = _vedic;
pos = (-299,340);
}
);
layerId = "94EB6DF8-7434-4BE0-9F23-77BCD575F5B8";
shapes = (
{
closed = 1;
nodes = (
(-319,-294,o),
(-278,-245,o),
(-278,-164,cs),
(-278,-123,l),
(-299,-113,l),
(-299,-161,ls),
(-299,-232,o),
(-328,-274,o),
(-391,-274,cs),
(-434,-274,o),
(-475,-243,o),
(-475,-192,cs),
(-475,-152,o),
(-464,-132,o),
(-434,-95,c),
(-451,-84,l),
(-477,-115,o),
(-496,-152,o),
(-496,-190,cs),
(-496,-253,o),
(-446,-294,o),
(-391,-294,cs)
);
},
{
closed = 1;
nodes = (
(-136,-294,o),
(-101,-258,o),
(-101,-204,cs),
(-101,-157,o),
(-121,-122,o),
(-151,-84,c),
(-167,-96,l),
(-138,-132,o),
(-122,-162,o),
(-122,-199,cs),
(-122,-243,o),
(-144,-274,o),
(-197,-274,cs),
(-232,-274,o),
(-266,-251,o),
(-286,-210,c),
(-302,-220,l),
(-279,-268,o),
(-238,-294,o),
(-194,-294,cs)
);
}
);
vertWidth = 0;
width = 0;
},
{
anchors = (
{
name = _vedic;
pos = (-299,370);
}
);
layerId = "B2542900-2B87-4688-8902-A06B6D3D93DD";
shapes = (
{
closed = 1;
nodes = (
(-303,-285,o),
(-253,-241,o),
(-253,-180,cs),
(-253,-127,l),
(-322,-97,l),
(-322,-155,ls),
(-322,-211,o),
(-359,-238,o),
(-393,-238,cs),
(-416,-238,o),
(-440,-223,o),
(-440,-193,cs),
(-440,-172,o),
(-430,-145,o),
(-405,-110,c),
(-477,-65,l),
(-496,-92,o),
(-511,-127,o),
(-511,-156,cs),
(-511,-226,o),
(-442,-285,o),
(-365,-285,cs)
);
},
{
closed = 1;
nodes = (
(-121,-286,o),
(-84,-241,o),
(-84,-183,cs),
(-84,-141,o),
(-108,-100,o),
(-138,-68,c),
(-169,-92,l),
(-147,-117,o),
(-138,-141,o),
(-138,-165,cs),
(-138,-202,o),
(-165,-230,o),
(-204,-230,cs),
(-242,-230,o),
(-268,-214,o),
(-289,-182,c),
(-312,-198,l),
(-286,-254,o),
(-243,-286,o),
(-189,-286,cs)
);
}
);
vertWidth = 0;
width = 0;
},
{
anchors = (
{
name = _vedic;
pos = (-299,440);
}
);
layerId = "18A8C34B-6260-4854-BBF8-229863F38B25";
shapes = (
{
closed = 1;
nodes = (
(-283,-315,o),
(-232,-274,o),
(-232,-195,cs),
(-232,-124,l),
(-346,-81,l),
(-346,-159,ls),
(-346,-196,o),
(-361,-225,o),
(-402,-225,cs),
(-424,-225,o),
(-438,-212,o),
(-438,-192,cs),
(-438,-172,o),
(-424,-150,o),
(-403,-123,c),
(-510,-54,l),
(-535,-81,o),
(-552,-112,o),
(-552,-143,cs),
(-552,-218,o),
(-463,-315,o),
(-360,-315,cs)
);
},
{
closed = 1;
nodes = (
(-93,-315,o),
(-44,-271,o),
(-44,-201,cs),
(-44,-154,o),
(-65,-109,o),
(-119,-57,c),
(-177,-101,l),
(-160,-122,o),
(-146,-143,o),
(-146,-171,cs),
(-146,-202,o),
(-169,-219,o),
(-201,-219,cs),
(-234,-219,o),
(-260,-199,o),
(-283,-165,c),
(-326,-186,l),
(-300,-262,o),
(-237,-315,o),
(-159,-315,cs)
);
}
);
vertWidth = 0;
width = 0;
},
{
anchors = (
{
name = _vedic;
pos = (-299,340);
}
);
layerId = "33F2F8B2-CCE7-4937-A852-9C044B0330C5";
shapes = (
{
closed = 1;
nodes = (
(-310,-295,o),
(-282,-251,o),
(-282,-187,cs),
(-282,-124,l),
(-302,-115,l),
(-302,-183,ls),
(-302,-244,o),
(-322,-275,o),
(-366,-275,cs),
(-397,-275,o),
(-429,-250,o),
(-429,-200,cs),
(-429,-158,o),
(-416,-129,o),
(-397,-94,c),
(-414,-84,l),
(-433,-120,o),
(-449,-157,o),
(-449,-196,cs),
(-449,-256,o),
(-409,-295,o),
(-361,-295,cs)
);
},
{
closed = 1;
nodes = (
(-175,-295,o),
(-149,-258,o),
(-149,-203,cs),
(-149,-157,o),
(-164,-122,o),
(-187,-85,c),
(-204,-94,l),
(-184,-127,o),
(-169,-159,o),
(-169,-199,cs),
(-169,-254,o),
(-193,-275,o),
(-224,-275,cs),
(-254,-275,o),
(-276,-252,o),
(-290,-210,c),
(-304,-221,l),
(-286,-269,o),
(-257,-295,o),
(-218,-295,cs)
);
}
);
vertWidth = 0;
width = 0;
},
{
anchors = (
{
name = _vedic;
pos = (-299,370);
}
);
layerId = "5278E13D-D735-4789-ABCD-F52B0BBC306E";
shapes = (
{
closed = 1;
nodes = (
(-300,-287,o),
(-262,-242,o),
(-262,-181,cs),
(-262,-127,l),
(-321,-100,l),
(-321,-157,ls),
(-321,-214,o),
(-345,-242,o),
(-374,-242,cs),
(-395,-242,o),
(-414,-227,o),
(-414,-198,cs),
(-414,-171,o),
(-405,-143,o),
(-382,-104,c),
(-445,-68,l),
(-462,-96,o),
(-474,-132,o),
(-474,-164,cs),
(-474,-231,o),
(-417,-287,o),
(-352,-287,cs)
);
},
{
closed = 1;
nodes = (
(-152,-287,o),
(-123,-246,o),
(-123,-191,cs),
(-123,-147,o),
(-140,-106,o),
(-170,-70,c),
(-200,-91,l),
(-181,-120,o),
(-172,-146,o),
(-172,-174,cs),
(-172,-209,o),
(-190,-235,o),
(-223,-235,cs),
(-252,-235,o),
(-274,-218,o),
(-290,-186,c),
(-312,-201,l),
(-291,-256,o),
(-254,-287,o),
(-207,-287,cs)
);
}
);
vertWidth = 0;
width = 0;
},
{
anchors = (
{
name = _vedic;
pos = (-299,440);
}
);
layerId = "03D26766-37BE-4C80-9191-ECBB7A84F3C2";
shapes = (
{
closed = 1;
nodes = (
(-283,-305,o),
(-242,-263,o),
(-242,-188,cs),
(-242,-122,l),
(-341,-82,l),
(-341,-155,ls),
(-341,-197,o),
(-351,-225,o),
(-378,-225,cs),
(-393,-225,o),
(-403,-214,o),
(-403,-196,cs),
(-403,-171,o),
(-391,-143,o),
(-373,-109,c),
(-470,-54,l),
(-490,-83,o),
(-502,-118,o),
(-502,-150,cs),
(-502,-221,o),
(-427,-305,o),
(-341,-305,cs)
);
},
{
closed = 1;
nodes = (
(-133,-304,o),
(-95,-263,o),
(-95,-199,cs),
(-95,-151,o),
(-111,-106,o),
(-156,-57,c),
(-207,-93,l),
(-192,-117,o),
(-182,-142,o),
(-182,-171,cs),
(-182,-203,o),
(-198,-222,o),
(-223,-222,cs),
(-249,-222,o),
(-269,-202,o),
(-287,-167,c),
(-322,-186,l),
(-302,-257,o),
(-251,-304,o),
(-187,-304,cs)
);
}
);
vertWidth = 0;
width = 0;
}
);
note = uni1CD5;
script = bengali;
subCategory = Nonspacing;
unicode = 7381;
}
